<?xml version="1.0" standalone="no"?>
<!DOCTYPE svg PUBLIC "-//W3C//DTD SVG 1.1//EN" "http://www.w3.org/Graphics/SVG/1.1/DTD/svg11.dtd" >
<svg xmlns="http://www.w3.org/2000/svg">
<metadata></metadata>
<defs>
<font id="triump-regularuploaded_file" horiz-adv-x="1249" >
<font-face units-per-em="2048" ascent="1620" descent="-428" />
<missing-glyph horiz-adv-x="417" />
<glyph horiz-adv-x="0" />
<glyph unicode="&#xd;" horiz-adv-x="681" />
<glyph unicode=" "  horiz-adv-x="417" />
<glyph unicode="&#x09;" horiz-adv-x="417" />
<glyph unicode="&#xa0;" horiz-adv-x="417" />
<glyph unicode="!" horiz-adv-x="479" d="M111 1679q0 47 47 47h159q52 0 52 -47l-45 -1159q-5 -47 -50 -47h-71q-44 0 -49 47q-43 1109 -43 1159zM127 49v125q0 49 47 49h131q47 0 47 -49v-125q0 -49 -47 -49h-131q-47 0 -47 49z" />
<glyph unicode="&#x22;" horiz-adv-x="745" d="M84 1571q0 47 45 47h135q47 0 47 -47l-45 -520q-5 -47 -47 -47h-41q-44 0 -49 47q-45 498 -45 520zM432 1571q0 47 47 47h133q50 0 50 -47l-46 -520q-6 -47 -49 -47h-41q-43 0 -49 47q-45 498 -45 520z" />
<glyph unicode="#" horiz-adv-x="1525" d="M49 440l21 105q10 51 55 51h199l63 410h-201q-46 0 -39 49l21 104q10 51 55 51h197l57 361q6 47 58 47h104q49 0 43 -47l-57 -361h362l57 361q6 47 56 47h106q52 0 41 -47q0 -6 -55 -361h244q52 0 41 -51l-23 -104q-12 -49 -53 -49h-242l-63 -410h243q49 0 39 -51 l-20 -105q-12 -49 -55 -49h-240l-53 -344q-11 -47 -58 -47h-106q-47 0 -41 47l53 344h-362l-54 -344q-6 -47 -57 -47h-104q-49 0 -43 47l53 344h-203q-46 0 -39 49zM528 596h363q19 108 34 208q28 184 31 202h-364z" />
<glyph unicode="$" horiz-adv-x="1075" d="M74 489v39q0 54 47 54h172q47 0 47 -52v-41q0 -96 47 -135t150 -39q102 0 150 36t48 116v29q0 93 -65 149q-66 57 -160 90q-88 31 -188 72q-93 38 -160 122q-66 83 -66 210q0 144 76 223q77 80 254 98v111q0 47 49 47h125q51 0 51 -47v-111q169 -18 249 -95 q79 -76 79 -220v-49q0 -54 -45 -54h-160q-47 0 -47 54v37q0 92 -45 131t-141 39q-101 0 -144 -36t-43 -116q0 -55 36 -97q37 -44 93 -70q57 -27 126 -54t137 -61q73 -36 126 -77q58 -44 94 -118q35 -71 35 -170q0 -159 -77 -245q-78 -87 -273 -105v-107q0 -47 -51 -47h-125 q-49 0 -49 47v107q-192 15 -270 93q-81 81 -82 242z" />
<glyph unicode="%" horiz-adv-x="1824" d="M74 999v267q0 202 72 282t237 80q163 0 235 -80t72 -282v-267q0 -203 -72 -282q-72 -80 -235 -80q-165 0 -237 80q-72 79 -72 282zM260 936q0 -107 27 -148q27 -40 96 -40q70 0 97 40q28 42 28 148v393q0 106 -28 148q-27 41 -97 41q-69 0 -96 -41t-27 -148v-393zM293 37 l514 708q36 48 78 48h39q26 0 29 -13t-13 -35l-422 -708q-21 -33 -35 -40t-43 -7h-127q-58 0 -20 47zM877 872l421 709q21 33 35 40t43 7h127q56 0 21 -47l-512 -709q-33 -47 -78 -47h-39q-47 0 -18 47zM1135 352v266q0 204 72 283q72 80 237 80q163 0 235 -80 q72 -79 72 -283v-266q0 -202 -72 -282t-235 -80q-165 0 -237 80t-72 282zM1319 289q0 -106 28 -148q27 -41 97 -41q69 0 96 41t27 148v393q0 106 -27 147t-96 41q-70 0 -97 -41q-28 -42 -28 -147v-393z" />
<glyph unicode="&#x26;" horiz-adv-x="1386" d="M84 430v64q0 157 50 249t159 136q-113 92 -113 297v45q0 204 118 306q117 101 402 101q268 0 393 -101q126 -102 126 -315v-36q0 -50 -48 -50h-178q-47 0 -47 54v63q0 121 -60 171q-61 50 -186 50q-130 0 -190 -51q-59 -50 -59 -158v-127q0 -117 53 -161q53 -43 192 -43 h17q47 0 47 -52v-43q0 -51 -47 -51h-109q-138 0 -194 -48t-56 -173v-180q0 -127 56 -175t194 -48h125q139 0 195 48q55 48 55 175v500q0 53 47 53h268q47 0 47 -49v-52q0 -51 -47 -51h-53v-334q0 -257 -127 -356q-126 -98 -448 -98q-310 0 -446 97t-136 343z" />
<glyph unicode="'" horiz-adv-x="395" d="M84 1571q0 47 45 47h135q47 0 47 -47l-45 -520q-5 -47 -47 -47h-41q-44 0 -49 47q-45 495 -45 520z" />
<glyph unicode="(" horiz-adv-x="555" d="M82 809q0 470 235 877q38 63 95 63h86q61 0 16 -63q-244 -355 -244 -877t244 -877q45 -63 -16 -63h-86q-58 0 -95 63q-235 407 -235 877z" />
<glyph unicode=")" horiz-adv-x="557" d="M39 -68q244 355 244 877t-244 877q-45 63 16 63h86q57 0 95 -63q235 -407 235 -877t-235 -877q-38 -63 -95 -63h-86q-61 0 -16 63z" />
<glyph unicode="*" horiz-adv-x="1064" d="M94 936q0 22 27 37l278 160l-278 159q-27 15 -27 39q0 13 10 29l17 31q17 26 39 26q15 0 26 -8l281 -162v324q0 47 49 47h33q51 0 51 -47v-324l281 162q11 8 26 8q22 0 39 -26l17 -31q8 -16 8 -29q0 -25 -25 -37l-280 -161l280 -162q25 -13 25 -37q0 -13 -8 -29l-17 -31 q-17 -26 -39 -26q-15 0 -26 8l-281 160v-324q0 -45 -51 -45h-33q-49 0 -49 45v326l-281 -162q-11 -8 -26 -8q-22 0 -39 26l-17 31q-10 16 -10 31z" />
<glyph unicode="+" horiz-adv-x="1306" d="M57 612v74q0 51 45 51h463v461q0 47 49 47h76q51 0 51 -47v-461h461q47 0 47 -51v-74q0 -51 -47 -51h-461v-463q0 -45 -51 -45h-76q-49 0 -49 45v463h-463q-45 0 -45 51z" />
<glyph unicode="," horiz-adv-x="401" d="M88 49v125q0 49 47 49h131q47 0 47 -49v-143q0 -19 -6 -31l-90 -182q-11 -24 -19 -32q-9 -9 -18 -11q-10 -2 -24 -2h-31q-29 0 -29 22q0 8 6 23l56 182h-23q-47 0 -47 49z" />
<glyph unicode="-" horiz-adv-x="907" d="M100 610v76q0 51 47 51h613q47 0 47 -51v-76q0 -49 -47 -49h-613q-47 0 -47 49z" />
<glyph unicode="." horiz-adv-x="397" d="M86 49v125q0 49 47 49h131q47 0 47 -49v-125q0 -49 -47 -49h-131q-47 0 -47 49z" />
<glyph unicode="/" horiz-adv-x="1079" d="M45 37q817 1529 823 1544q27 47 76 47h66q32 0 32 -20q0 -5 -8 -27q-812 -1526 -825 -1544q-27 -47 -74 -47h-65q-52 0 -25 47z" />
<glyph unicode="0" horiz-adv-x="1183" d="M106 535v548q0 304 116 425q116 120 370 120t370 -120q115 -119 115 -425v-548q0 -306 -115 -425q-116 -120 -370 -120t-370 120q-116 121 -116 425zM373 422q0 -143 52 -205q52 -63 167 -63t166 63t51 205v774q0 142 -51 205t-166 63t-167 -63q-52 -62 -52 -205v-774z " />
<glyph unicode="1" horiz-adv-x="813" d="M68 49v62q0 51 45 51h178v1063q0 47 -49 47h-121q-47 0 -47 51v53q0 23 32 49l228 174q25 19 45 19h131q49 0 49 -49v-1407h176q47 0 47 -51v-62q0 -49 -47 -49h-622q-45 0 -45 49z" />
<glyph unicode="2" horiz-adv-x="1132" d="M82 47v131q0 128 39 231q39 105 101 172q63 69 138 125q77 58 152 103q60 37 138 94q62 46 102 109q39 62 39 135v45q0 151 -50 212q-49 60 -166 60q-114 0 -163 -60q-50 -61 -50 -212v-92q0 -49 -47 -49h-168q-45 0 -45 49q0 273 107 401q106 127 366 127 q267 0 375 -123q109 -124 109 -334q0 -101 -39 -187q-39 -85 -101 -143q-63 -59 -138 -111l-150 -105q-67 -46 -138 -112q-63 -59 -102 -142q-39 -84 -39 -187v-22h631q47 0 47 -51v-62q0 -49 -47 -49h-856q-45 0 -45 47z" />
<glyph unicode="3" horiz-adv-x="1161" d="M80 457v45q0 49 47 49h174q47 0 47 -49v-107q0 -130 53 -186q52 -55 174 -55q114 0 163 55q50 56 50 186v103q0 141 -53 199q-53 57 -176 57h-61q-49 0 -49 49v55q0 51 49 51h69q119 0 170 57t51 195v62q0 130 -50 186q-49 55 -163 55q-115 0 -164 -54q-51 -56 -51 -187 v-76q0 -49 -47 -49h-166q-47 0 -47 49v22q0 100 22 180q20 74 72 143q50 67 147 101q99 35 237 35q248 0 363 -106q116 -107 116 -283v-70q0 -238 -156 -338q162 -114 162 -382v-56q0 -184 -116 -294q-115 -109 -372 -109q-495 0 -495 467z" />
<glyph unicode="4" horiz-adv-x="1157" d="M33 399v62q0 21 6 33l618 1075q27 49 74 49h178q47 0 47 -49v-1057h99q47 0 47 -51v-62q0 -49 -47 -49h-99v-301q0 -49 -47 -49h-174q-47 0 -47 49v301h-610q-45 0 -45 49zM305 512h383v678z" />
<glyph unicode="5" horiz-adv-x="1122" d="M68 453v49q0 49 47 49h174q47 0 47 -49v-80q0 -142 51 -205t168 -63q115 0 166 63t51 205v229q0 153 -46 212q-47 61 -155 61q-167 0 -202 -158q-11 -47 -50 -47h-147q-45 0 -45 47l70 805q5 47 53 47h698q47 0 47 -49v-62q0 -51 -47 -51h-516l-39 -436q103 70 221 70 q226 0 326 -124t100 -386v-95q0 -274 -118 -385q-117 -110 -367 -110q-242 0 -365 105q-122 104 -122 358z" />
<glyph unicode="6" horiz-adv-x="1169" d="M109 477v662q0 243 108 366t371 123q259 0 366 -116t107 -320q0 -49 -45 -49h-168q-47 0 -47 51v35q0 130 -49 182q-50 53 -164 53q-115 0 -163 -54t-48 -187v-275q117 84 278 84q225 0 326 -116q100 -115 100 -373v-39q0 -287 -122 -401q-120 -113 -390 -113 q-250 0 -355 123t-105 364zM377 426q0 -151 50 -212q49 -60 167 -60q117 0 168 60t51 212v170q0 152 -51 212t-168 60q-217 0 -217 -233v-209z" />
<glyph unicode="7" horiz-adv-x="862" d="M39 1507v62q0 49 47 49h700q48 0 48 -49v-96q0 -12 -5 -25l-438 -1401q-17 -47 -61 -47h-176q-35 0 -35 25q0 11 4 22l442 1409h-479q-47 0 -47 51z" />
<glyph unicode="8" horiz-adv-x="1153" d="M90 424v53q0 283 189 379q-152 92 -152 344v29q0 199 103 299t348 100q242 0 346 -101t104 -298v-29q0 -248 -156 -342q191 -96 191 -381v-53q0 -434 -485 -434q-488 0 -488 434zM358 395q0 -130 53 -186q52 -55 167 -55q114 0 165 55q52 57 52 186v135q0 133 -52 188 q-51 54 -165 54q-117 0 -168 -54q-52 -55 -52 -188v-135zM358 1157q0 -120 51 -171q50 -50 164 -50q115 0 168 51q54 52 54 170v84q0 121 -53 172q-52 51 -169 51q-115 0 -164 -51q-51 -53 -51 -172v-84z" />
<glyph unicode="9" horiz-adv-x="1171" d="M90 1075v39q0 282 120 398q121 116 365 116q268 0 378 -122t110 -365v-692q0 -213 -105 -336t-370 -123q-264 0 -371 114q-106 113 -106 322q0 49 45 49h168q47 0 47 -51v-35q1 -130 50 -183q48 -52 163 -52q118 0 164 54q47 55 47 187v275q-117 -84 -279 -84 q-226 0 -326 115t-100 374zM356 1022q0 -150 51 -212q49 -60 168 -60q220 0 220 233v209q0 149 -53 211q-52 61 -167 61q-119 0 -168 -60q-51 -62 -51 -212v-170z" />
<glyph unicode=":" horiz-adv-x="456" d="M117 49v125q0 49 45 49h131q47 0 47 -49v-125q0 -49 -47 -49h-131q-45 0 -45 49zM117 850v125q0 49 45 49h131q47 0 47 -49v-125q0 -49 -47 -49h-131q-45 0 -45 49z" />
<glyph unicode=";" horiz-adv-x="456" d="M117 49v125q0 49 45 49h131q47 0 47 -49v-143q0 -19 -6 -31l-90 -182q-11 -22 -20 -32q-10 -10 -16 -11q-10 -2 -24 -2h-30q-29 0 -29 22q0 4 4 23l55 182h-22q-45 0 -45 49zM117 850v125q0 49 45 49h131q47 0 47 -49v-125q0 -49 -47 -49h-131q-45 0 -45 49z" />
<glyph unicode="&#x3c;" horiz-adv-x="1019" d="M61 641v98q0 48 48 70l753 330q15 6 25 6q22 0 22 -35v-98q0 -52 -47 -70l-575 -252l575 -252q47 -18 47 -69v-99q0 -34 -22 -34q-10 0 -25 6l-753 329q-48 22 -48 70z" />
<glyph unicode="=" horiz-adv-x="1175" d="M117 336v76q0 49 45 49h850q47 0 47 -49v-76q0 -51 -47 -51h-850q-45 0 -45 51zM117 911v76q0 49 45 49h850q47 0 47 -49v-76q0 -51 -47 -51h-850q-45 0 -45 51z" />
<glyph unicode="&#x3e;" horiz-adv-x="1019" d="M111 270v99q0 51 47 69l575 252l-575 252q-47 18 -47 70v98q0 35 22 35q10 0 25 -6l753 -330q47 -21 47 -70v-98q0 -49 -47 -70l-753 -329q-15 -6 -25 -6q-22 0 -22 34z" />
<glyph unicode="?" horiz-adv-x="1120" d="M53 1192q0 224 123 330q122 106 395 106q145 0 246 -34q105 -36 156 -92q53 -57 76 -122q22 -62 22 -139q0 -80 -49 -148q-48 -67 -119 -121q-23 -18 -69.5 -53.5t-69.5 -52.5q-69 -53 -119 -128q-49 -74 -49 -163v-53q0 -49 -47 -49h-162q-45 0 -45 49v53q0 108 47 199 q47 90 115 151q63 56 135 112q70 55 115 111q47 59 47 122q0 101 -55 148q-53 46 -183 46q-132 0 -187 -53q-54 -54 -54 -186v-33q0 -49 -46 -49h-180q-43 0 -43 49zM342 49v125q0 49 45 49h162q47 0 47 -49v-125q0 -49 -47 -49h-162q-45 0 -45 49z" />
<glyph unicode="@" horiz-adv-x="1783" d="M78 809q0 258 111 447t295 281q182 91 413 91q353 0 586 -232t233 -642v-166q0 -118 -64 -149q-63 -31 -270 -31h-264q-78 0 -78 69l-6 4q-63 -80 -188 -80q-133 0 -199 74q-65 72 -65 252v170q0 180 65 252q66 74 199 74q127 0 188 -82l6 6v39q0 31 29 31h88 q31 0 31 -31v-613q0 -49 41 -49h297q43 0 43 49v181q0 346 -190 538q-189 191 -480 191q-294 0 -482 -175q-190 -176 -190 -499q0 -318 186 -495t470 -177h26q47 0 47 -49v-49q0 -49 -47 -49h-41q-341 0 -566 219q-224 218 -224 600zM748 657q0 -74 32 -113q33 -40 92 -40 q148 0 148 141v334q0 139 -148 139q-124 0 -124 -151v-310z" />
<glyph unicode="A" d="M27 49l409 1393h-61q-45 0 -45 51v76q0 49 45 49h348q43 0 59 -49l451 -1520q3 -11 3 -20q0 -29 -32 -29h-176q-16 0 -20 1q-11 3 -15 5q-9 6 -13 14q-6 14 -11 29l-84 291h-537l-82 -291q-11 -36 -21 -42q-11 -7 -40 -7h-148q-34 0 -34 28q0 9 4 21zM397 516h437 l-220 766z" />
<glyph unicode="B" horiz-adv-x="1288" d="M70 49v76q0 51 47 51h55v1266h-55q-47 0 -47 51v76q0 49 47 49h542q287 0 404 -90t117 -303v-39q0 -240 -150 -326q170 -92 170 -358v-82q0 -231 -116 -326q-115 -94 -404 -94h-563q-47 0 -47 49zM446 176h228q146 0 198 48q54 49 54 175v148q0 125 -57 173t-195 48h-228 v-592zM446 930h207q140 0 196 43t56 162v104q0 123 -49 163t-203 40h-207v-512z" />
<glyph unicode="C" horiz-adv-x="1210" d="M102 539v540q0 305 119 427t391 122q274 0 396 -121t122 -413v-35q0 -49 -47 -49h-176q-47 0 -47 49v67q0 177 -53 247q-52 69 -189 69q-135 0 -188 -70t-53 -252v-622q0 -182 53 -252t188 -70q136 0 189 68t53 239v76q0 49 47 49h176q47 0 47 -49v-41q0 -293 -120 -410 q-121 -118 -398 -118q-273 0 -392 122q-118 121 -118 427z" />
<glyph unicode="D" horiz-adv-x="1304" d="M70 49v76q0 51 47 51h55v1266h-55q-47 0 -47 51v76q0 49 47 49h555q288 0 407 -108t119 -377v-648q0 -269 -119 -377t-407 -108h-555q-47 0 -47 49zM446 176h226q138 0 196 53t58 183v796q0 129 -58 182q-56 52 -196 52h-226v-1266z" />
<glyph unicode="E" horiz-adv-x="995" d="M57 696v76q0 51 47 51h56v746q0 49 47 49h690q47 0 47 -49v-76q0 -51 -47 -51h-463v-619h273q47 0 47 -51v-76q0 -49 -47 -49h-273v-471h463q47 0 47 -51v-76q0 -49 -47 -49h-690q-47 0 -47 49v598h-56q-47 0 -47 49z" />
<glyph unicode="F" horiz-adv-x="968" d="M57 696v76q0 51 47 51h56v746q0 49 47 49h690q47 0 47 -49v-76q0 -51 -47 -51h-463v-619h273q47 0 47 -51v-76q0 -49 -47 -49h-273v-598q0 -49 -47 -49h-180q-47 0 -47 49v598h-56q-47 0 -47 49z" />
<glyph unicode="G" horiz-adv-x="1218" d="M102 539v540q0 305 120 427t390 122q267 0 389 -119q121 -118 121 -411v-15q0 -49 -45 -49h-176q-49 0 -49 49v43q0 179 -52 247q-52 69 -182 69t-186 -71q-55 -70 -55 -251v-622q0 -182 53 -252t188 -70q136 0 189 70t53 252v149h-211q-47 0 -47 49v76q0 51 47 51h434 q47 0 47 -47v-246q0 -298 -122 -419t-396 -121q-270 0 -390 122t-120 427z" />
<glyph unicode="H" horiz-adv-x="1349" d="M57 696v76q0 51 47 51h56v746q0 49 47 49h180q47 0 47 -49v-746h481v746q0 49 46 49h180q47 0 47 -49v-746h55q47 0 47 -51v-76q0 -49 -47 -49h-55v-598q0 -49 -47 -49h-180q-46 0 -46 49v598h-481v-598q0 -49 -47 -49h-180q-47 0 -47 49v598h-56q-47 0 -47 49z" />
<glyph unicode="I" horiz-adv-x="550" d="M139 49v1520q0 49 45 49h183q45 0 45 -49v-1520q0 -49 -45 -49h-183q-45 0 -45 49z" />
<glyph unicode="J" horiz-adv-x="745" d="M25 49v76q0 51 47 51h123q84 0 114 49q31 51 31 185v1032h-64q-45 0 -45 51v76q0 49 45 49h291q47 0 47 -49v-1141q0 -233 -92 -331q-91 -97 -295 -97h-155q-47 0 -47 49z" />
<glyph unicode="K" horiz-adv-x="1257" d="M57 696v76q0 51 47 51h56v746q0 49 47 49h182q45 0 45 -49v-746h72l455 746q22 34 35 41q16 8 44 8h174q27 0 27 -19q0 -9 -12 -30l-510 -834l516 -686q9 -12 11 -21q1 -4 1 -8q0 -7 -4 -12q-6 -8 -24 -8h-181q-28 0 -39 7q-10 6 -38 42l-445 598h-82v-598q0 -49 -45 -49 h-182q-47 0 -47 49v598h-56q-47 0 -47 49z" />
<glyph unicode="L" horiz-adv-x="825" d="M139 49v1520q0 49 45 49h183q45 0 45 -49v-1393h350q47 0 47 -51v-76q0 -49 -47 -49h-578q-45 0 -45 49z" />
<glyph unicode="M" horiz-adv-x="1601" d="M102 49l80 1520q1 49 47 49h177q28 0 38 -6t21 -37l336 -1000l338 1000q7 29 18 36q10 7 33 7h182q46 0 47 -49l80 -1520v-7q0 -42 -43 -42h-174q-45 0 -49 49l-53 991l-279 -858q-8 -31 -19 -38t-40 -7h-82q-25 0 -38 8q-12 8 -20 37l-282 865l-51 -998q-4 -49 -47 -49 h-177q-43 0 -43 42v7z" />
<glyph unicode="N" horiz-adv-x="1308" d="M139 49v1520q0 49 45 49h181q18 0 28 -2q8 -2 19 -11q10 -9 18 -32l467 -1088v1084q0 49 45 49h182q47 0 47 -49v-1520q0 -49 -47 -49h-180q-19 0 -29 2q-7 2 -17 11q-10 10 -17 32l-469 1085v-1081q0 -49 -45 -49h-183q-45 0 -45 49z" />
<glyph unicode="O" horiz-adv-x="1273" d="M102 539v540q0 305 125 427t408 122q281 0 409 -123q127 -123 127 -426v-540q0 -303 -127 -426q-128 -123 -409 -123q-283 0 -408 122t-125 427zM383 498q0 -183 54 -252q55 -70 198 -70q145 0 201 70q55 68 55 252v622q0 184 -55 252q-56 70 -201 70q-143 0 -198 -70 q-54 -69 -54 -252v-622z" />
<glyph unicode="P" horiz-adv-x="1243" d="M55 1493v76q0 49 47 49h564q282 0 401 -105t119 -354v-112q0 -248 -119 -353q-117 -104 -401 -104h-234v-541q0 -49 -45 -49h-182q-47 0 -47 49v1393h-56q-47 0 -47 51zM432 754h225q141 0 198 51q56 50 56 188v215q0 130 -57 182q-56 52 -197 52h-225v-688z" />
<glyph unicode="Q" horiz-adv-x="1273" d="M102 539v540q0 305 125 427t408 122q281 0 409 -123q127 -123 127 -426v-540q0 -275 -101 -398q-102 -124 -322 -145v-221q0 -50 -46 -58l-137 -26q-6 -1 -11 -1q-32 0 -32 40v266q-222 21 -320 144q-100 126 -100 399zM383 498q0 -183 54 -252q55 -70 198 -70 q145 0 201 70q55 68 55 252v622q0 184 -55 252q-56 70 -201 70q-143 0 -198 -70q-54 -69 -54 -252v-622z" />
<glyph unicode="R" horiz-adv-x="1286" d="M55 1493v76q0 49 47 49h564q282 0 401 -105t119 -354v-45q0 -300 -182 -395q67 -57 102 -191l123 -479q2 -10 2 -18q0 -31 -37 -31h-174q-29 0 -40 7t-19 42l-136 504q-27 104 -125 104h-268v-608q0 -49 -45 -49h-182q-47 0 -47 49v1393h-56q-47 0 -47 51zM432 823h225 q141 0 198 51q56 50 56 189v145q0 130 -57 182q-56 52 -197 52h-225v-619z" />
<glyph unicode="S" horiz-adv-x="1216" d="M76 453v55q0 49 45 49h188q47 0 47 -49v-59q0 -151 58 -212t192 -61q132 0 193 50q59 49 59 157v35q0 83 -42 145q-42 61 -108 99q-54 31 -148 69q-66 27 -163 71q-78 35 -148 88q-67 50 -109 136t-42 203q0 201 116 300t392 99q273 0 391 -102q120 -103 121 -330v-39 q0 -49 -45 -49h-182q-47 0 -47 49v39q0 134 -56 190t-182 56q-124 0 -180 -50q-55 -49 -55 -157q0 -69 42 -122q43 -53 110 -87q76 -38 151 -68q89 -36 163 -74t149 -97q69 -54 111 -146q42 -91 42 -213q0 -222 -116 -330q-115 -108 -417 -108q-297 0 -413 107 q-117 108 -117 356z" />
<glyph unicode="T" horiz-adv-x="1062" d="M18 1493v76q0 49 45 49h934q47 0 47 -49v-76q0 -51 -47 -51h-329v-1393q0 -49 -45 -49h-183q-47 0 -47 49v1393h-330q-45 0 -45 51z" />
<glyph unicode="U" horiz-adv-x="1284" d="M131 539v1030q0 49 45 49h182q48 0 48 -49v-1071q0 -182 50 -252t185 -70q139 0 192 70q52 68 52 252v1071q0 49 45 49h178q45 0 45 -49v-1030q0 -306 -121 -427q-122 -122 -391 -122q-270 0 -390 122t-120 427z" />
<glyph unicode="V" horiz-adv-x="1243" d="M18 1569q-3 11 -3 20q0 29 32 29h174q17 0 27 -2q8 -2 18 -12q11 -11 17 -35l352 -1235l350 1235q11 35 22 42t40 7h147q35 0 35 -28q0 -9 -4 -21l-449 -1520q-11 -36 -21 -42q-11 -7 -38 -7h-191q-27 0 -38 7q-10 6 -21 42z" />
<glyph unicode="W" horiz-adv-x="1769" d="M35 1569q-2 9 -2 16q0 33 39 33h166q29 0 40 -7t17 -42l235 -1110l256 1110q6 33 19 41t39 8h86q16 0 26 -2q9 -2 18 -12q8 -10 13 -35l252 -1100l236 1100q6 35 17 42t40 7h166q39 0 39 -33q0 -7 -2 -16l-332 -1520q-6 -35 -18 -42q-11 -7 -37 -7h-162q-27 0 -38 7 q-13 8 -20 42l-241 1022l-242 -1022q-8 -35 -19 -42t-38 -7h-166q-27 0 -38 7t-17 42z" />
<glyph unicode="X" horiz-adv-x="1220" d="M24 15q-3 6 -3 12q0 10 8 22l403 727l-403 793q-6 11 -6 22q0 6 2 12q6 15 30 15h185q39 0 61 -49l311 -635l322 635q22 49 63 49h166q35 0 35 -23q0 -11 -8 -26l-397 -787l403 -733q8 -12 8 -22q0 -6 -3 -12q-7 -15 -32 -15h-186q-34 0 -61 49l-320 584l-317 -584 q-16 -28 -29 -39q-11 -10 -35 -10h-166q-23 0 -31 15z" />
<glyph unicode="Y" horiz-adv-x="1187" d="M18 1569q-7 15 -7 26q0 23 34 23h180q25 0 36 -7t26 -42l313 -725l315 725q17 35 28 42t36 7h166q33 0 33 -23q0 -11 -7 -26l-440 -991v-529q0 -49 -47 -49h-180q-47 0 -47 49v533z" />
<glyph unicode="Z" horiz-adv-x="1120" d="M63 49v94q0 14 7 33l694 1266h-506v-60q0 -47 -49 -47h-96q-50 0 -50 47v187q0 49 46 49h899q49 0 49 -49v-101q0 -14 -6 -26l-697 -1266h506v60q0 47 49 47h97q51 0 51 -47v-187q0 -49 -49 -49h-899q-46 0 -46 49z" />
<glyph unicode="[" horiz-adv-x="794" d="M125 -340v2296q0 49 49 49h557q45 0 45 -49v-60q0 -51 -45 -51h-412v-2074h412q45 0 45 -52v-59q0 -49 -45 -49h-557q-49 0 -49 49z" />
<glyph unicode="\" horiz-adv-x="1077" d="M45 1581q-24 47 25 47h65q18 0 30 -2q9 -2 21 -12q14 -12 25 -33l823 -1544q23 -47 -24 -47h-66q-18 0 -30 2q-8 1 -20 12q-12 10 -24 33z" />
<glyph unicode="]" horiz-adv-x="794" d="M16 -281q0 52 47 52h410v2074h-410q-47 0 -47 51v60q0 49 47 49h558q47 0 47 -49v-2296q0 -49 -47 -49h-558q-47 0 -47 49v59z" />
<glyph unicode="^" horiz-adv-x="1028" d="M59 494q0 6 7 24l329 754q21 47 70 47h98q49 0 70 -47l332 -754q6 -15 6 -24q0 -23 -37 -23h-98q-49 0 -70 47l-250 574l-254 -574q-21 -47 -69 -47h-99q-35 0 -35 23z" />
<glyph unicode="_" horiz-adv-x="1026" d="M0 -121q0 49 45 49h934q47 0 47 -49v-76q0 -51 -47 -51h-934q-45 0 -45 51v76z" />
<glyph unicode="`" horiz-adv-x="673" d="M82 1616q0 13 10 29l70 104q24 35 45 35q22 0 37 -12l321 -246q27 -21 27 -43q0 -18 -10 -29l-23 -31q-12 -18 -39 -18q-21 0 -41 10q-263 109 -375 166q-22 15 -22 35z" />
<glyph unicode="a" horiz-adv-x="1175" d="M72 334v31q0 110 52 181q52 72 129 102q69 27 168 53q76 20 168 38q77 15 129 54t52 102v68q0 96 -46 138t-161 42q-121 0 -168 -50t-47 -173v-52q0 -53 -47 -53h-156q-45 0 -45 53v45q0 394 471 394q248 0 357 -109q108 -108 108 -373v-671h49q48 0 48 -50v-55 q0 -49 -48 -49h-239q-47 0 -47 49v64l-13 8q-111 -131 -327 -131q-178 0 -283 90q-104 89 -104 254zM334 354q0 -106 50 -153t151 -47q116 0 176 57q59 56 59 151v291l-12 8q-59 -32 -175 -61q-120 -30 -185 -71q-64 -40 -64 -121v-54z" />
<glyph unicode="b" horiz-adv-x="1191" d="M37 1657v55q0 49 47 49h258q47 0 47 -49v-504l8 -8q102 107 279 107q212 0 317 -119q105 -118 105 -406v-268q0 -286 -105 -405t-317 -119q-195 0 -297 129l-8 -6v-64q0 -49 -47 -49h-146q-45 0 -45 49v1559h-49q-47 0 -47 49zM399 393q0 -123 54 -182q53 -57 163 -57 q116 0 165 63q50 64 50 205v452q0 141 -50 205t-165 64q-113 0 -165 -64t-52 -205v-481z" />
<glyph unicode="c" horiz-adv-x="1130" d="M90 535v227q0 304 116 425q116 120 367 120q480 0 480 -396v-43q0 -53 -45 -53h-160q-47 0 -47 53v52q0 121 -51 172t-175 51q-113 0 -165 -64t-52 -207v-448q0 -143 52 -207q51 -63 165 -63q124 0 175 51t51 172v51q0 53 47 53h160q45 0 45 -53v-43q0 -395 -480 -395 q-251 0 -367 120q-116 121 -116 425z" />
<glyph unicode="d" horiz-adv-x="1214" d="M94 514v268q0 288 105 406q105 119 317 119q176 0 277 -105l10 8v398h-45q-47 0 -47 49v55q0 49 47 49h256q45 0 45 -49v-1558h49q47 0 47 -50v-55q0 -49 -47 -49h-240q-47 0 -47 49v55l-12 9q-102 -123 -293 -123q-212 0 -317 119t-105 405zM360 422q0 -140 51 -205 q49 -63 164 -63q117 0 167 63q51 65 51 205v452q0 140 -51 205q-50 64 -167 64q-114 0 -164 -64q-51 -65 -51 -205v-452z" />
<glyph unicode="e" horiz-adv-x="1138" d="M90 535v227q0 304 116 425q116 120 367 120q237 0 359 -113q121 -112 121 -381v-100q0 -49 -47 -60l-648 -88v-141q0 -143 52 -207q51 -63 165 -63q124 0 175 51t51 172v51q0 53 47 53h160q45 0 45 -53v-43q0 -395 -480 -395q-251 0 -367 120q-116 121 -116 425zM358 705 l443 59v110q0 143 -52 205q-53 64 -174 64q-113 0 -165 -64t-52 -205v-169z" />
<glyph unicode="f" horiz-adv-x="704" d="M31 1192v55q0 49 47 49h96v37q0 235 86 332q85 96 279 96h127q47 0 47 -49v-55q0 -49 -47 -49h-140q-48 0 -67 -25t-19 -88v-199h195q47 0 47 -49v-55q0 -49 -47 -49h-195v-1094q0 -49 -47 -49h-172q-47 0 -47 49v1094h-96q-47 0 -47 49z" />
<glyph unicode="g" horiz-adv-x="1191" d="M94 514v268q0 288 105 406q105 119 317 119q195 0 297 -129l8 6v63q0 49 47 49h146q45 0 45 -49v-1284q0 -237 -91 -332q-92 -96 -294 -96h-410q-49 0 -49 49v56q0 49 49 49h371q92 0 125 47q33 46 33 178v180q-100 -104 -277 -104q-212 0 -317 119t-105 405zM360 422 q0 -140 51 -205q49 -63 164 -63q117 0 167 63q51 65 51 205v452q0 140 -51 205q-50 64 -167 64q-114 0 -164 -64q-51 -65 -51 -205v-452z" />
<glyph unicode="h" horiz-adv-x="1222" d="M37 1657v55q0 49 47 49h258q47 0 47 -49v-504l8 -8q102 107 279 107q212 0 317 -119q105 -118 105 -406v-733q0 -49 -47 -49h-172q-48 0 -48 49v825q0 141 -50 205t-165 64q-110 0 -163 -58q-54 -59 -54 -184v-852q0 -49 -47 -49h-172q-47 0 -47 49v1559h-49 q-47 0 -47 49z" />
<glyph unicode="i" horiz-adv-x="550" d="M57 1192v55q0 49 47 49h269q47 0 47 -49v-1198q0 -49 -47 -49h-172q-47 0 -47 49v1094h-50q-47 0 -47 49zM154 1524v153q0 49 45 49h176q45 0 45 -49v-153q0 -49 -45 -49h-176q-45 0 -45 49z" />
<glyph unicode="j" horiz-adv-x="552" d="M-133 -360q0 49 47 49h82q92 0 125 47t33 178v1229h-48q-47 0 -47 49v55q0 49 47 49h269q47 0 47 -49v-1284q0 -233 -92 -331q-91 -97 -295 -97h-121q-47 0 -47 49v56zM154 1524v153q0 49 47 49h174q47 0 47 -49v-153q0 -49 -47 -49h-174q-47 0 -47 49z" />
<glyph unicode="k" horiz-adv-x="1132" d="M133 49v1663q0 49 47 49h172q47 0 47 -49v-987h52l364 522q23 33 38 41q16 8 44 8h186q27 0 27 -16q0 -12 -14 -33l-422 -600l424 -598q14 -20 14 -33q0 -16 -27 -16h-180q-26 0 -42 8t-40 41l-372 522h-52v-522q0 -49 -47 -49h-172q-47 0 -47 49z" />
<glyph unicode="l" horiz-adv-x="536" d="M135 49v1663q0 49 47 49h170q47 0 47 -49v-1663q0 -49 -47 -49h-170q-47 0 -47 49z" />
<glyph unicode="m" horiz-adv-x="1878" d="M59 1192v55q0 49 47 49h236q47 0 47 -49v-63l10 -8q95 131 279 131q252 0 344 -174h10q96 174 314 174q205 0 307 -118t102 -407v-733q0 -49 -47 -49h-168q-47 0 -47 49v825q0 269 -203 269t-203 -269v-825q0 -49 -47 -49h-168q-47 0 -47 49v825q0 269 -200 269 q-205 0 -205 -256v-838q0 -49 -47 -49h-170q-49 0 -49 49v1094h-48q-47 0 -47 49z" />
<glyph unicode="n" horiz-adv-x="1243" d="M59 1192v55q0 49 47 49h236q47 0 47 -49v-63l10 -8q105 131 297 131q212 0 318 -118t106 -407v-733q0 -49 -47 -49h-172q-47 0 -47 49v825q0 142 -51 205q-52 64 -166 64t-166 -64q-51 -63 -51 -205v-825q0 -49 -47 -49h-170q-49 0 -49 49v1094h-48q-47 0 -47 49z" />
<glyph unicode="o" horiz-adv-x="1146" d="M90 535v227q0 304 116 425q116 120 367 120q255 0 369 -120q115 -121 115 -425v-227q0 -304 -115 -425q-114 -120 -369 -120q-251 0 -367 120q-116 121 -116 425zM358 422q0 -140 51 -205q50 -63 164 -63q115 0 166 63q52 64 52 205v452q0 141 -52 205t-166 64t-164 -64 q-51 -65 -51 -205v-452z" />
<glyph unicode="p" horiz-adv-x="1214" d="M59 1192v55q0 49 47 49h240q47 0 47 -49v-55l13 -8q100 123 292 123q213 0 318 -119q104 -117 104 -406v-268q0 -288 -104 -405q-105 -119 -318 -119q-178 0 -276 104l-10 -8v-502q0 -49 -47 -49h-164q-45 0 -45 49v1559h-50q-47 0 -47 49zM422 393q0 -124 53 -182 q53 -57 164 -57q115 0 165 63q50 64 50 205v452q0 141 -50 205t-165 64q-111 0 -164 -58t-53 -184v-508z" />
<glyph unicode="q" horiz-adv-x="1191" d="M94 514v268q0 288 105 406q105 119 317 119q191 0 293 -123l12 8v55q0 49 47 49h146q45 0 45 -49v-1663q0 -49 -45 -49h-164q-47 0 -47 49v502l-10 8q-100 -104 -277 -104q-212 0 -317 119t-105 405zM360 422q0 -140 51 -205q49 -63 164 -63q111 0 164 57q54 59 54 182 v481q0 140 -51 205q-50 64 -167 64q-114 0 -164 -64q-51 -65 -51 -205v-452z" />
<glyph unicode="r" horiz-adv-x="774" d="M59 1192v55q0 49 47 49h236q47 0 47 -49v-35l10 -8q91 103 250 103h60q47 0 47 -50v-135q0 -49 -47 -49h-185q-60 0 -82 -24q-22 -23 -22 -88v-912q0 -49 -47 -49h-170q-49 0 -49 49v1094h-48q-47 0 -47 49z" />
<glyph unicode="s" horiz-adv-x="1073" d="M72 330v39q0 53 47 53h172q47 0 47 -51v-41q0 -96 47 -135q46 -39 150 -39q103 0 150 35q48 36 48 116v29q0 93 -65 149q-66 57 -160 90t-189 72q-92 38 -159 122q-66 83 -66 210q0 166 101 247t340 81q231 0 336 -78q106 -79 106 -244v-49q0 -53 -45 -53h-160 q-47 0 -47 53v37q0 92 -45 131t-141 39q-101 0 -144 -36t-43 -116q0 -55 36 -97q37 -44 93 -70q57 -27 126 -54q78 -31 137 -60q69 -34 126 -78q58 -44 94 -118q35 -71 35 -170q0 -178 -102 -266q-101 -88 -362 -88q-257 0 -360 79t-103 261z" />
<glyph unicode="t" horiz-adv-x="700" d="M27 1192v55q0 49 49 49h94v258q0 50 49 50h172q47 0 47 -50v-258h199q47 0 47 -49v-55q0 -49 -47 -49h-199v-877q0 -63 19 -88q18 -24 67 -24h113q47 0 47 -50v-55q0 -49 -47 -49h-90q-206 0 -292 86q-85 85 -85 303v754h-94q-49 0 -49 49z" />
<glyph unicode="u" horiz-adv-x="1263" d="M47 1192v55q0 49 47 49h268q48 0 48 -49v-825q0 -141 50 -205q50 -63 165 -63q111 0 163 57q54 59 54 182v854q0 49 47 49h172q47 0 47 -49v-1093h49q47 0 47 -50v-55q0 -49 -47 -49h-239q-48 0 -48 49v60l-10 6q-102 -125 -295 -125q-211 0 -316 118q-106 120 -106 406 v629h-49q-47 0 -47 49z" />
<glyph unicode="v" horiz-adv-x="1089" d="M31 1247q-4 12 -4 21q0 28 34 28h162q17 0 21 -1q10 -2 14 -5q9 -6 13 -14q11 -24 12 -29l268 -950l274 950q11 35 22 42t38 7h143q35 0 35 -28q0 -9 -4 -21l-361 -1198q-11 -34 -23 -41q-14 -8 -42 -8h-184q-27 0 -37 7t-21 42z" />
<glyph unicode="w" horiz-adv-x="1564" d="M45 1247q-2 9 -2 16q0 33 37 33h162q15 0 25 -2q9 -2 17 -13t13 -34l174 -870l223 870q12 49 58 49h59q25 0 38 -9t21 -40l220 -887l176 887q6 34 18 41q13 8 39 8h162q37 0 37 -33q0 -7 -2 -16l-260 -1198q-6 -35 -18 -42q-11 -7 -38 -7h-157q-18 0 -30 2q-11 2 -19 13 q-9 12 -15 34l-201 785l-200 -785q-7 -33 -22 -41q-14 -8 -42 -8h-158q-26 0 -37 7q-12 7 -18 42z" />
<glyph unicode="x" horiz-adv-x="1126" d="M36 1281q8 15 30 15h174q36 0 63 -49l264 -504l269 504q24 49 63 49h160q27 0 34 -16q2 -5 2 -11q0 -10 -8 -22l-325 -600l325 -598q7 -12 7 -22q0 -6 -3 -12q-7 -15 -32 -15h-174q-34 0 -62 49l-266 504l-268 -504q-24 -49 -62 -49h-161q-35 0 -35 23q0 11 8 26l323 600 l-323 598q-6 10 -6 20q0 7 3 14z" />
<glyph unicode="y" horiz-adv-x="1116" d="M31 1247q-4 12 -4 21q0 28 34 28h162q48 0 60 -49l286 -1014l287 1014q8 31 20 40t35 9h140q35 0 35 -30q0 -8 -3 -19l-387 -1290q-23 -77 -50 -155q-19 -54 -48 -110t-57 -79q-30 -25 -76 -46q-50 -23 -104 -27q-63 -5 -142 -5h-8q-41 0 -41 34q0 7 2 15l14 56 q12 49 58 49h59q80 0 107 35q26 33 59 155l33 121h-53q-23 0 -36 10q-15 11 -22 39z" />
<glyph unicode="z" horiz-adv-x="1036" d="M68 49v70q0 23 12 47l612 977h-452v-58q0 -49 -47 -49h-78q-47 0 -47 49v162q0 49 45 49h807q47 0 47 -49v-69q0 -23 -11 -45l-612 -979h451v57q0 49 47 49h78q47 0 47 -49v-162q0 -49 -47 -49h-807q-45 0 -45 49z" />
<glyph unicode="{" horiz-adv-x="618" d="M57 774v82q0 37 33 37q29 0 46 13q19 14 26 42q9 33 10 54q2 34 2 71v514q0 186 78 252t262 66h29q49 0 49 -47v-29q0 -47 -49 -47h-72q-57 0 -80 -36q-22 -35 -22 -122v-532q0 -138 -21 -205q-21 -68 -78 -68v-10q57 0 78 -68q21 -67 21 -204v-521q0 -98 21 -138t81 -40 h72q49 0 49 -47v-31q0 -45 -49 -45h-29q-186 0 -263 65t-77 251v526q0 37 -2 71q-1 21 -10 54q-7 28 -26 42q-17 13 -46 13q-33 0 -33 37z" />
<glyph unicode="|" horiz-adv-x="442" d="M123 -74v1766q0 49 49 49h100q45 0 45 -49v-1766q0 -49 -45 -49h-100q-49 0 -49 49z" />
<glyph unicode="}" horiz-adv-x="618" d="M27 -209q0 47 49 47h71q60 0 81 40q22 42 22 138v521q0 140 20 204q21 68 78 68v10q-57 0 -78 68q-20 64 -20 205v532q0 84 -22 122q-21 36 -81 36h-71q-49 0 -49 47v29q0 47 49 47h28q188 0 264 -66t76 -252v-514q0 -37 2 -71q1 -16 11 -54q8 -29 25 -42t46 -13 q33 0 33 -37v-82q0 -37 -33 -37q-29 0 -46 -13t-25 -42q-10 -38 -11 -54q-2 -34 -2 -71v-526q0 -187 -76 -251q-77 -65 -264 -65h-28q-49 0 -49 45v31z" />
<glyph unicode="~" horiz-adv-x="1204" d="M111 659q-17 12 0 31q123 164 313 164q73 0 218 -46t224 -46q96 0 164 65q15 12 33 4q22 -13 35 -26q12 -12 0 -29q-114 -164 -314 -164q-116 0 -254 46q-141 47 -188 47q-78 0 -164 -66q-15 -12 -35 -2q-27 17 -32 22z" />
<glyph unicode="&#xa1;" horiz-adv-x="479" d="M111 47l43 1159q5 47 49 47h71q45 0 50 -47q45 -1122 45 -1159q0 -47 -52 -47h-159q-47 0 -47 47zM127 1552v125q0 49 47 49h131q47 0 47 -49v-125q0 -49 -47 -49h-131q-47 0 -47 49z" />
<glyph unicode="&#xa2;" horiz-adv-x="1136" d="M92 694v228q0 266 87 389t276 147v113q0 47 49 47h125q49 0 49 -47v-111q377 -41 377 -389v-43q0 -53 -45 -53h-160q-47 0 -47 53v51q0 121 -51 172q-52 52 -174 52q-114 0 -166 -64t-52 -207v-448q0 -143 52 -207t166 -64q122 0 174 52q51 51 51 172v51q0 53 47 53h160 q45 0 45 -53v-43q0 -350 -377 -391v-107q0 -47 -49 -47h-125q-49 0 -49 47v109q-189 24 -276 148t-87 390z" />
<glyph unicode="&#xa3;" horiz-adv-x="1341" d="M51 760v76q0 53 55 53h119q-65 161 -65 352q0 77 22 139t76 122q51 57 157 92q102 34 249 34q247 0 387 -112q141 -112 141 -324q0 -49 -45 -49h-180q-45 0 -45 49v33q0 131 -62 185t-192 54q-126 0 -184 -47q-56 -46 -56 -147q0 -70 19 -140q18 -66 38 -113 q6 -14 60 -128h391q55 0 55 -53v-76q0 -51 -55 -51h-315q24 -84 24 -156q0 -207 -145 -342l9 -3t15.5 -5.5t18.5 -6.5q40 -15 49 -17q22 -6 46 -12q27 -7 59 -10q30 -3 65 -3q127 0 191 41q63 41 63 159v72q0 49 45 49h180q45 0 45 -49q0 -208 -132 -322t-343 -114 q-119 0 -214 21q-99 22 -146 22q-76 0 -160 -29q-9 -4 -21 -4q-23 0 -34 20l-72 142q-15 30 33 47q176 62 176 278v25q0 78 -62 197h-205q-55 0 -55 51z" />
<glyph unicode="&#xa4;" horiz-adv-x="1261" d="M111 332q-28 34 0 67l94 95q-60 94 -60 264t60 270l-94 94q-30 30 0 68l69 70q43 34 70 2l112 -117q103 41 259 41q153 0 278 -41l115 117q34 33 69 -2l68 -70q33 -35 0 -68l-96 -96q57 -90 57 -258q0 -173 -59 -272l98 -97q33 -27 0 -67l-70 -70q-32 -32 -69 -2 l-115 115q-93 -35 -268 -35q-176 0 -267 35l-114 -113q-35 -29 -68 0zM399 688q0 -121 53 -168t179 -47t179 47q52 46 52 166v152q0 120 -52 166q-53 47 -179 47q-127 0 -179 -46q-53 -47 -53 -167v-150z" />
<glyph unicode="&#xa5;" d="M47 1569q-22 49 27 49h180q25 0 36 -7q9 -6 25 -42l314 -725l315 725q16 35 27 42q10 7 37 7h166q47 0 26 -49l-369 -828h144q53 0 53 -51v-76q0 -49 -53 -49h-215v-190h215q53 0 53 -51v-76q0 -49 -53 -49h-215v-150q0 -49 -47 -49h-181q-47 0 -47 49v150h-196 q-51 0 -51 49v76q0 51 51 51h196v190h-196q-51 0 -51 49v76q0 51 51 51h125z" />
<glyph unicode="&#xa6;" horiz-adv-x="399" d="M127 -119v719q0 47 51 47h43q51 0 51 -47v-719q0 -45 -51 -45h-43q-51 0 -51 45zM127 852v719q0 47 51 47h43q51 0 51 -47v-719q0 -45 -51 -45h-43q-51 0 -51 45z" />
<glyph unicode="&#xa7;" horiz-adv-x="1130" d="M94 645q0 224 137 313q-135 105 -135 283q0 195 105 290q106 95 362 95q232 0 347 -91q116 -92 116 -257v-51q0 -49 -43 -49h-156q-43 0 -43 49v39q0 182 -221 182q-117 0 -167 -42t-50 -132q0 -78 51 -133t127 -85q64 -25 166 -71q84 -38 166 -86q76 -45 127 -135 t51 -213q0 -227 -135 -313q135 -106 135 -283q0 -202 -107 -293q-109 -92 -360 -92q-463 0 -463 369v30q0 49 41 49h156q45 0 45 -49v-18q0 -110 52 -156q53 -47 169 -47q117 0 166 42t49 132q0 77 -51 133q-51 55 -127 85q-64 25 -166 71q-84 38 -166 86q-76 45 -127 135 t-51 213zM313 668q0 -113 66 -158q142 -103 260 -143q47 -21 76 -21q49 0 75 42q25 41 25 97v29q0 120 -74 164l-111 61q-94 52 -157 80q-40 19 -65 19q-47 0 -71 -42t-24 -100v-28z" />
<glyph unicode="&#xa8;" horiz-adv-x="796" d="M82 1454v125q0 49 47 49h129q47 0 47 -49v-125q0 -49 -47 -49h-129q-47 0 -47 49zM489 1454v125q0 49 48 49h131q47 0 47 -49v-125q0 -49 -47 -49h-131q-48 0 -48 49z" />
<glyph unicode="&#xa9;" horiz-adv-x="1796" d="M78 809q0 258 111 447t295 281q182 91 413 91t413 -91q184 -92 295 -281t111 -447q0 -259 -111 -448q-110 -188 -295 -280q-182 -91 -413 -91t-413 91q-185 92 -295 280q-111 189 -111 448zM233 809q0 -326 188 -500q187 -174 476 -174q291 0 478 174q188 174 188 500 t-188 500q-187 174 -478 174q-289 0 -476 -174q-188 -174 -188 -500zM537 719v170q0 229 86 318t276 89q358 0 358 -295v-32q0 -41 -32 -41h-121q-35 0 -35 41v39q0 90 -38 128t-130 38q-87 0 -126 -48q-38 -47 -38 -155v-336q0 -109 38 -156t126 -47q93 0 130 39 q38 40 38 129v39q0 39 35 39h121q32 0 32 -39v-33q0 -297 -358 -297q-191 0 -276 90q-86 91 -86 320z" />
<glyph unicode="&#xaa;" horiz-adv-x="829" d="M82 1016v18q0 80 45 128q46 49 111 67q79 21 130 31q64 12 109 36t45 72v43q0 60 -29 86q-30 27 -102 27q-74 0 -105 -31q-30 -30 -30 -109v-32q0 -33 -29 -33h-98q-29 0 -29 33v28q0 248 297 248q157 0 225 -68t68 -235v-424h31q29 0 29 -31v-34q0 -31 -29 -31h-152 q-28 0 -28 31v41l-9 4q-69 -82 -206 -82q-114 0 -179 56t-65 161zM248 1028q0 -127 125 -127q74 0 112 36q37 36 37 95v185l-8 4q-36 -19 -111 -38q-73 -19 -115 -45q-40 -25 -40 -77v-33z" />
<glyph unicode="&#xab;" horiz-adv-x="905" d="M70 522v70q0 60 32 88l250 231q22 17 27 17q12 0 12 -54v-22q0 -28 -5 -45q-4 -13 -32 -49l-145 -191v-20l145 -189q29 -40 32 -50q5 -15 5 -50v-22q0 -54 -12 -54q-5 0 -27 17l-250 231q-32 26 -32 92zM473 522v70q0 60 33 88l250 231q22 17 26 17q13 0 13 -54v-22 q0 -28 -5 -45q-4 -13 -32 -49l-146 -191v-20l146 -189q29 -40 32 -50q5 -15 5 -50v-22q0 -54 -13 -54q-4 0 -26 17l-250 231q-33 27 -33 92z" />
<glyph unicode="&#xac;" horiz-adv-x="1277" d="M90 784v76q0 49 47 49h973q47 0 47 -49v-510q0 -49 -47 -49h-80q-47 0 -47 49v383h-846q-47 0 -47 51z" />
<glyph unicode="&#xad;" horiz-adv-x="907" d="M100 610v76q0 51 47 51h613q47 0 47 -51v-76q0 -49 -47 -49h-613q-47 0 -47 49z" />
<glyph unicode="&#xae;" horiz-adv-x="1796" d="M78 809q0 258 111 447t295 281q182 91 413 91t413 -91q184 -92 295 -281t111 -447q0 -259 -111 -448q-110 -188 -295 -280q-182 -91 -413 -91t-413 91q-185 92 -295 280q-111 189 -111 448zM233 809q0 -326 188 -500q187 -174 476 -174q291 0 478 174q188 174 188 500 t-188 500q-187 174 -478 174q-289 0 -476 -174q-188 -174 -188 -500zM537 1223v45q0 30 28 30h344q173 0 244 -62q72 -63 72 -216v-27q0 -184 -111 -241q44 -38 62 -115l75 -291q8 -31 -22 -31h-105q-14 0 -17 1q-6 2 -10 9q-7 12 -10 21l-81 305q-17 64 -76 64h-164v-369 q0 -31 -27 -31h-110q-29 0 -29 31v846h-35q-28 0 -28 31zM766 815h137q85 0 120 32q34 31 34 114v90q0 77 -35 109t-119 32h-137v-377z" />
<glyph unicode="&#xaf;" horiz-adv-x="948" d="M82 1454v76q0 51 45 51h692q47 0 47 -51v-76q0 -49 -47 -49h-692q-45 0 -45 49z" />
<glyph unicode="&#xb0;" horiz-adv-x="692" d="M78 1317v24q0 161 63 224t207 63q141 0 204 -63q62 -62 62 -224v-24q0 -161 -62 -223q-64 -64 -204 -64q-143 0 -207 64q-63 63 -63 223zM227 1282q0 -85 28 -121q27 -35 93 -35q61 0 88 35t27 121v94q0 86 -27 121t-88 35q-66 0 -93 -35q-28 -36 -28 -121v-94z" />
<glyph unicode="&#xb1;" horiz-adv-x="1380" d="M94 49v76q0 51 45 51h1100q47 0 47 -51v-76q0 -49 -47 -49h-1100q-45 0 -45 49zM94 985v74q0 51 45 51h463v461q0 47 49 47h76q51 0 51 -47v-461h461q47 0 47 -51v-74q0 -51 -47 -51h-461v-463q0 -45 -51 -45h-76q-49 0 -49 45v463h-463q-45 0 -45 51z" />
<glyph unicode="&#xb2;" horiz-adv-x="618" d="M92 938v57q0 74 32 132q31 56 77 90q45 33 90 60t77 62q31 34 31 78q0 40 -2 56q-4 43 -23 59t-59 16q-49 0 -68 -24q-20 -25 -20 -86v-41q0 -21 -20 -21h-80q-21 0 -21 21q0 117 50 175q49 56 159 56q209 0 209 -198q0 -74 -48 -130q-48 -55 -106 -85q-61 -31 -107 -83 q-48 -54 -48 -128v-9h277q20 0 20 -22v-33q0 -22 -20 -22h-381q-19 0 -19 20z" />
<glyph unicode="&#xb3;" horiz-adv-x="602" d="M84 1120v19q0 22 20 22h82q21 0 21 -22v-45q0 -56 21 -77q22 -22 71 -22q47 0 67 22q19 20 19 77v45q0 61 -21 84q-21 22 -73 22h-27q-20 0 -20 21v32q0 21 20 21h31q46 0 67 21q22 22 23 81v31q0 54 -19 76t-67 22t-67 -22t-19 -76v-33q0 -22 -20 -22h-80q-21 0 -21 22 v11q0 198 209 198q207 0 207 -170v-31q0 -101 -66 -145q70 -53 70 -166v-24q0 -174 -211 -174q-217 0 -217 202z" />
<glyph unicode="&#xb4;" horiz-adv-x="673" d="M82 1483q0 22 27 43l321 246q17 12 37 12q21 0 45 -35l70 -104q10 -16 10 -29q0 -20 -23 -35q-116 -60 -374 -166q-20 -10 -41 -10q-24 0 -39 18l-23 31q-10 11 -10 29z" />
<glyph unicode="&#xb5;" horiz-adv-x="1298" d="M70 1192v55q0 49 47 49h266q47 0 47 -49v-825q0 -142 51 -205t166 -63t165 63q50 64 50 205v825q0 49 49 49h172q47 0 47 -49v-1093h48q47 0 47 -50v-55q0 -49 -47 -49h-238q-47 0 -47 49v64l-10 4q-91 -121 -252 -121q-134 0 -207 41v-453q0 -49 -49 -49h-164 q-47 0 -47 49v1559h-47q-47 0 -47 49z" />
<glyph unicode="&#xb6;" horiz-adv-x="1454" d="M47 1094v18q1 278 126 392t400 114h748q45 0 45 -49v-107q0 -49 -45 -49h-410v-1829q0 -49 -49 -49h-129q-47 0 -47 49v996h-113q-279 0 -401 113q-123 114 -125 401zM1087 -416v1653q0 51 46 51h131q47 0 47 -51v-1653q0 -49 -47 -49h-131q-46 0 -46 49z" />
<glyph unicode="&#xb7;" horiz-adv-x="514" d="M86 672q0 74 49 123t119 49q75 0 124 -49q50 -50 50 -123q0 -71 -50 -121q-49 -49 -124 -49q-70 0 -119 49t-49 121z" />
<glyph unicode="&#xb8;" horiz-adv-x="604" d="M63 -229l43 223q6 22 23 22h102q21 0 17 -22l-23 -107q50 35 127 35q89 0 144 -59t55 -164q0 -95 -61 -158q-60 -61 -175 -61q-105 0 -167 52t-70 126h141q4 -27 29 -49q24 -21 65 -21q47 0 72 31t25 78q0 121 -95 121q-79 0 -102 -70h-135q-20 0 -15 23z" />
<glyph unicode="&#xb9;" horiz-adv-x="475" d="M90 938v35q0 22 21 22h77v443q0 22 -22 22h-53q-21 0 -21 23v30q0 11 12 21q23 12 103 76q11 8 18 8h64q22 0 22 -21v-602h76q21 0 21 -22v-35q0 -20 -21 -20h-276q-21 0 -21 20z" />
<glyph unicode="&#xba;" horiz-adv-x="786" d="M88 1139v143q0 191 73 269q72 77 232 77q163 0 235 -77t72 -269v-143q0 -193 -72 -269q-71 -75 -235 -75q-161 0 -232 75q-73 78 -73 269zM258 1067q0 -89 32 -130q31 -40 103 -40q75 0 106 40t31 130v287q0 90 -31 130t-106 40q-72 0 -103 -40q-32 -41 -32 -130v-287z " />
<glyph unicode="&#xbb;" horiz-adv-x="905" d="M111 236v22q0 35 5 50q4 13 31 50l146 189v20l-146 191q-26 34 -31 49q-5 17 -5 45v22q0 54 12 54q5 0 27 -17l249 -231q33 -28 33 -88v-70q0 -65 -33 -92l-249 -231q-22 -17 -27 -17q-12 0 -12 54zM514 236v22q0 35 5 50q3 10 32 50l145 189v20l-145 191q-28 36 -32 49 q-5 17 -5 45v22q0 54 12 54q5 0 27 -17l250 -231q33 -28 33 -88v-70q0 -65 -33 -92l-250 -231q-22 -17 -27 -17q-12 0 -12 54z" />
<glyph unicode="&#xbc;" horiz-adv-x="1585" d="M70 678v43q0 31 26 31h107v624q0 35 -29 35h-74q-26 0 -26 31v31q0 16 16 28l137 103q15 14 31 14h84q29 0 29 -31v-835h106q29 0 29 -31v-43q0 -31 -29 -31h-381q-26 0 -26 31zM295 10q0 5 8 27q817 1529 823 1544q16 32 32 40q14 7 44 7h53q31 0 31 -20q0 -5 -8 -27 q-236 -442 -444.5 -834t-292.5 -549.5t-86 -160.5q-17 -32 -32 -40q-13 -7 -44 -7h-51q-33 0 -33 20zM879 240v45q0 13 4 18l372 639q17 29 43 29h115q29 0 29 -27v-631h65q29 0 29 -28v-45q0 -31 -29 -31h-65v-180q0 -29 -29 -29h-113q-26 0 -26 29v180h-367q-28 0 -28 31z M1055 313h219v383z" />
<glyph unicode="&#xbd;" horiz-adv-x="1652" d="M70 678v43q0 31 26 31h107v624q0 35 -29 35h-74q-26 0 -26 31v31q0 16 16 28l137 103q15 14 31 14h84q29 0 29 -31v-835h106q29 0 29 -31v-43q0 -31 -29 -31h-381q-26 0 -26 31zM286 4q-5 16 9 33q235 442 444 834t293 549.5t86 160.5q16 33 31 40q14 7 43 7h53 q50 0 23 -47q-238 -447 -445 -835t-292.5 -547.5t-86.5 -161.5q-18 -33 -31 -40t-42 -7h-52q-29 0 -33 14zM1001 29v75q0 88 32 158t79 111t101 80q41 30 102 67q48 29 79 71q31 41 31 93v27q0 87 -29 120q-30 35 -100 35q-61 0 -87 -35q-25 -34 -25 -120v-56q0 -28 -29 -28 h-108q-27 0 -27 28q0 160 66 238t219 78q159 0 223 -73q63 -72 63 -200q0 -85 -43 -147q-47 -67 -105 -105q-56 -36 -125 -82q-61 -41 -106 -106q-43 -62 -43 -145v-9h377q27 0 27 -32v-43q0 -29 -27 -29h-518q-27 0 -27 29z" />
<glyph unicode="&#xbe;" horiz-adv-x="1685" d="M68 928v24q0 31 26 31h111q28 0 28 -31v-61q0 -75 31 -108q30 -31 98 -31q67 0 94 31t27 108v61q0 88 -28 117q-29 31 -101 31h-39q-26 0 -26 30v41q0 31 26 31h43q68 0 97 31q28 29 28 115v36q0 76 -27 108t-94 32q-66 0 -93 -32t-27 -108v-43q0 -30 -29 -30h-107 q-26 0 -26 30v13q0 126 63 200t222 74q150 0 219 -63t69 -170v-41q0 -141 -92 -201q96 -73 96 -231v-33q0 -242 -292 -242q-159 0 -228 72t-69 209zM389 10q0 11 10 27q238 447 445 835t292.5 547.5t86.5 161.5q16 33 31 40q14 7 44 7h52q32 0 32 -20q0 -5 -8 -27 q-812 -1526 -825 -1544q-16 -33 -31 -40q-14 -7 -43 -7h-51q-35 0 -35 20zM979 240v45q0 13 4 18l373 639q12 24 37 29h120q29 0 29 -27v-631h66q28 0 28 -28v-45q0 -31 -28 -31h-66v-180q0 -29 -29 -29h-112q-27 0 -27 29v180h-366q-29 0 -29 31zM1155 313h219v383z" />
<glyph unicode="&#xbf;" horiz-adv-x="1120" d="M49 377q0 80 49 148q48 67 119 121q23 18 69.5 53.5t69.5 52.5q71 56 119 128q49 74 49 162v54q0 49 47 49h162q45 0 45 -49v-54q0 -107 -47 -198q-47 -90 -115 -151q-63 -56 -135 -112q-67 -53 -114 -111q-48 -60 -48 -122q0 -101 55 -148q53 -46 183 -46q132 0 187 53 t55 186v33q0 49 45 49h180q43 0 43 -49q0 -224 -123 -330q-122 -106 -395 -106q-145 0 -246 34q-105 36 -156 92q-52 58 -75 122t-23 139zM524 1444v125q0 49 47 49h162q45 0 45 -49v-125q0 -49 -45 -49h-162q-47 0 -47 49z" />
<glyph unicode="&#xc0;" d="M27 49l409 1393h-61q-45 0 -45 51v76q0 49 45 49h348q43 0 59 -49l451 -1520q12 -49 -29 -49h-176q-16 0 -20 1q-11 3 -15 5q-9 6 -13 14q-6 14 -11 29l-84 291h-537l-82 -291q-11 -36 -21 -42q-11 -7 -40 -7h-148q-45 0 -30 49zM342 1937q0 13 10 29l70 105q24 34 45 34 t37 -12l321 -246q27 -21 27 -43q0 -17 -10 -28l-23 -31q-16 -19 -39 -19q-19 0 -41 11q-258 106 -374 166q-23 15 -23 34zM397 516h437l-220 766z" />
<glyph unicode="&#xc1;" d="M27 49l409 1393h-61q-45 0 -45 51v76q0 49 45 49h348q43 0 59 -49l451 -1520q12 -49 -29 -49h-176q-16 0 -20 1q-11 3 -15 5q-9 6 -13 14q-6 14 -11 29l-84 291h-537l-82 -291q-11 -36 -21 -42q-11 -7 -40 -7h-148q-45 0 -30 49zM375 1804q0 23 26 43l322 246 q16 12 37 12t45 -34l69 -105q11 -17 11 -29q0 -19 -23 -34q-112 -57 -375 -166q-22 -11 -41 -11q-22 0 -38 19l-23 31q-10 11 -10 28zM397 516h437l-220 766z" />
<glyph unicode="&#xc2;" d="M27 49l409 1393h-61q-45 0 -45 51v76q0 49 45 49h348q43 0 59 -49l451 -1520q12 -49 -29 -49h-176q-16 0 -20 1q-11 3 -15 5q-9 6 -13 14q-6 14 -11 29l-84 291h-537l-82 -291q-11 -36 -21 -42q-11 -7 -40 -7h-148q-45 0 -30 49zM215 1739q0 6 16 26l232 250q30 33 84 33 h110q54 0 84 -33l232 -250q16 -20 16 -26q0 -13 -53 -13h-82q-42 0 -80 37l-172 152l-172 -152q-38 -37 -80 -37h-82q-53 0 -53 13zM397 516h437l-220 766z" />
<glyph unicode="&#xc3;" d="M27 49l409 1393h-61q-45 0 -45 51v76q0 49 45 49h348q43 0 59 -49l451 -1520q12 -49 -29 -49h-176q-16 0 -20 1q-11 3 -15 5q-9 6 -13 14q-6 14 -11 29l-84 291h-537l-82 -291q-11 -36 -21 -42q-11 -7 -40 -7h-148q-45 0 -30 49zM184 1817q130 159 297 159q56 0 158 -50 t156 -50q37 0 72 15q30 13 43 24q9 7 40 37q22 22 43 0q24 -25 31 -37q15 -18 4 -31q-69 -87 -136 -122q-69 -36 -159 -36q-83 0 -173 51q-88 50 -140 50q-27 0 -44 -4q-19 -4 -37 -15q-24 -14 -27 -16t-6.5 -5t-9 -8t-10.5 -9q-18 -15 -22 -19q-24 -23 -43 -4q-9 9 -22 27 l-13 18q-12 15 -2 25zM397 516h437l-220 766z" />
<glyph unicode="&#xc4;" d="M27 49l409 1393h-61q-45 0 -45 51v76q0 49 45 49h348q43 0 59 -49l451 -1520q12 -49 -29 -49h-176q-16 0 -20 1q-11 3 -15 5q-9 6 -13 14q-6 14 -11 29l-84 291h-537l-82 -291q-11 -36 -21 -42q-11 -7 -40 -7h-148q-45 0 -30 49zM301 1776v125q0 49 47 49h129 q47 0 47 -49v-125q0 -50 -47 -50h-129q-47 0 -47 50zM397 516h437l-220 766zM709 1776v125q0 49 47 49h131q47 0 47 -49v-125q0 -50 -47 -50h-131q-47 0 -47 50z" />
<glyph unicode="&#xc5;" d="M27 49l409 1393h-61q-45 0 -45 51v76q0 49 45 49h348q43 0 59 -49l451 -1520q12 -49 -29 -49h-176q-16 0 -20 1q-11 3 -15 5q-9 6 -13 14q-6 14 -11 29l-84 291h-537l-82 -291q-11 -36 -21 -42q-11 -7 -40 -7h-148q-45 0 -30 49zM397 516h437l-220 766zM406 1944 q0 88 63 152q63 65 154 65q90 0 153 -65q64 -66 64 -152q0 -87 -64 -153q-63 -65 -153 -65q-91 0 -154 65t-63 153zM522 1944q0 -41 30 -71t71 -30q40 0 70 30t30 71q0 40 -30 70t-70 30q-41 0 -71 -30t-30 -70z" />
<glyph unicode="&#xc6;" horiz-adv-x="1495" d="M27 49l409 1393h-71q-46 0 -46 51v76q0 49 46 49h1032q47 0 47 -49v-76q0 -51 -47 -51h-463v-619h272q47 0 47 -51v-76q0 -49 -47 -49h-272v-471h463q47 0 47 -51v-76q0 -49 -47 -49h-692q-46 0 -46 49v291h-311l-82 -291q-16 -49 -61 -49h-146q-47 0 -32 49zM399 516 h260v914z" />
<glyph unicode="&#xc7;" horiz-adv-x="1210" d="M102 539v540q0 305 119 427t391 122q274 0 396 -121t122 -413v-35q0 -49 -47 -49h-176q-47 0 -47 49v67q0 177 -53 247q-52 69 -189 69q-135 0 -188 -70t-53 -252v-622q0 -182 53 -252t188 -70q136 0 189 68t53 239v76q0 49 47 49h176q47 0 47 -49v-41q0 -293 -120 -410 q-121 -118 -398 -118q-27 0 -49 2l-22 -105q50 35 127 35q88 0 143 -59t55 -164q0 -97 -60 -158t-175 -61q-105 0 -167 52q-64 53 -71 126h142q4 -28 28 -49t66 -21q46 0 71 31t25 78q0 121 -94 121q-80 0 -103 -70h-135q-20 0 -14 23l45 235q-168 34 -245 160 q-77 125 -77 373z" />
<glyph unicode="&#xc8;" horiz-adv-x="995" d="M57 696v76q0 51 47 51h56v746q0 49 47 49h690q47 0 47 -49v-76q0 -51 -47 -51h-463v-619h273q47 0 47 -51v-76q0 -49 -47 -49h-273v-471h463q47 0 47 -51v-76q0 -49 -47 -49h-690q-47 0 -47 49v598h-56q-47 0 -47 49zM262 1937q0 13 10 29l70 105q24 34 45 34 q22 0 37 -12l321 -246q27 -21 27 -43q0 -17 -10 -28l-23 -31q-16 -19 -39 -19q-19 0 -41 11q-258 106 -374 166q-23 15 -23 34z" />
<glyph unicode="&#xc9;" horiz-adv-x="995" d="M57 696v76q0 51 47 51h56v746q0 49 47 49h690q47 0 47 -49v-76q0 -51 -47 -51h-463v-619h273q47 0 47 -51v-76q0 -49 -47 -49h-273v-471h463q47 0 47 -51v-76q0 -49 -47 -49h-690q-47 0 -47 49v598h-56q-47 0 -47 49zM305 1804q0 22 27 43l321 246q17 12 37 12 q21 0 45 -34l70 -105q10 -16 10 -29q0 -19 -22 -34q-112 -57 -375 -166q-22 -11 -41 -11q-23 0 -39 19l-23 31q-10 11 -10 28z" />
<glyph unicode="&#xca;" horiz-adv-x="995" d="M57 696v76q0 51 47 51h56v746q0 49 47 49h690q47 0 47 -49v-76q0 -51 -47 -51h-463v-619h273q47 0 47 -51v-76q0 -49 -47 -49h-273v-471h463q47 0 47 -51v-76q0 -49 -47 -49h-690q-47 0 -47 49v598h-56q-47 0 -47 49zM164 1739q0 6 16 26l232 250q30 33 84 33h110 q54 0 84 -33l232 -250q16 -20 16 -26q0 -13 -53 -13h-82q-42 0 -80 37l-172 152l-172 -152q-38 -37 -80 -37h-82q-53 0 -53 13z" />
<glyph unicode="&#xcb;" horiz-adv-x="995" d="M57 696v76q0 51 47 51h56v746q0 49 47 49h690q47 0 47 -49v-76q0 -51 -47 -51h-463v-619h273q47 0 47 -51v-76q0 -49 -47 -49h-273v-471h463q47 0 47 -51v-76q0 -49 -47 -49h-690q-47 0 -47 49v598h-56q-47 0 -47 49zM238 1776v125q0 49 47 49h129q47 0 47 -49v-125 q0 -50 -47 -50h-129q-47 0 -47 50zM645 1776v125q0 49 47 49h131q47 0 47 -49v-125q0 -50 -47 -50h-131q-47 0 -47 50z" />
<glyph unicode="&#xcc;" horiz-adv-x="548" d="M6 1937q0 13 10 29l70 105q24 34 45 34t37 -12l321 -246q27 -21 27 -43q0 -17 -10 -28l-23 -31q-16 -19 -39 -19q-19 0 -41 11q-258 106 -374 166q-23 15 -23 34zM139 49v1520q0 49 45 49h183q45 0 45 -49v-1520q0 -49 -45 -49h-183q-45 0 -45 49z" />
<glyph unicode="&#xcd;" horiz-adv-x="548" d="M18 1804q0 22 27 43l322 246q16 12 36 12q22 0 46 -34l69 -105q10 -16 10 -29q0 -19 -22 -34q-112 -57 -375 -166q-22 -11 -41 -11q-23 0 -39 19l-22 31q-11 13 -11 28zM139 49v1520q0 49 45 49h183q45 0 45 -49v-1520q0 -49 -45 -49h-183q-45 0 -45 49z" />
<glyph unicode="&#xce;" horiz-adv-x="548" d="M-106 1739q0 6 16 26l231 250q30 33 84 33h111q54 0 84 -33l231 -250q17 -22 17 -26q0 -13 -54 -13h-82q-41 0 -79 37l-172 152l-172 -152q-38 -37 -80 -37h-82q-53 0 -53 13zM139 49v1520q0 49 45 49h183q45 0 45 -49v-1520q0 -49 -45 -49h-183q-45 0 -45 49z" />
<glyph unicode="&#xcf;" horiz-adv-x="548" d="M-37 1776v125q0 49 47 49h129q47 0 47 -49v-125q0 -50 -47 -50h-129q-47 0 -47 50zM139 49v1520q0 49 45 49h183q45 0 45 -49v-1520q0 -49 -45 -49h-183q-45 0 -45 49zM371 1776v125q0 49 47 49h131q47 0 47 -49v-125q0 -50 -47 -50h-131q-47 0 -47 50z" />
<glyph unicode="&#xd0;" horiz-adv-x="1343" d="M16 745v76q0 49 45 49h150v572h-55q-47 0 -47 51v76q0 49 47 49h555q288 0 408 -108t120 -377v-648q0 -269 -120 -377t-408 -108h-555q-47 0 -47 49v76q0 51 47 51h55v520h-150q-45 0 -45 49zM485 176h226q138 0 196 53t58 183v796q0 129 -58 182q-56 52 -196 52h-226 v-572h244q47 0 47 -49v-76q0 -49 -47 -49h-244v-520z" />
<glyph unicode="&#xd1;" horiz-adv-x="1308" d="M139 49v1520q0 49 45 49h181q18 0 28 -2q8 -2 19 -11q10 -9 18 -32l467 -1088v1084q0 49 45 49h182q47 0 47 -49v-1520q0 -49 -47 -49h-180q-19 0 -29 2q-7 2 -17 11q-10 10 -17 32l-469 1085v-1081q0 -49 -45 -49h-183q-45 0 -45 49zM229 1817q131 159 297 159 q56 0 158 -50t156 -50q38 0 72 15q30 13 43 24q9 7 40 37q22 22 43 0l31 -37q15 -18 4 -31q-69 -87 -136 -122q-69 -36 -159 -36q-83 0 -173 51q-88 50 -140 50q-27 0 -44 -4q-19 -4 -37 -15q-24 -14 -27 -16t-6.5 -5t-9 -8t-10.5 -9q-18 -15 -22 -19q-24 -23 -43 -4 q-9 9 -22 27l-13 18q-12 15 -2 25z" />
<glyph unicode="&#xd2;" horiz-adv-x="1273" d="M102 539v540q0 305 125 427t408 122q281 0 409 -123q127 -123 127 -426v-540q0 -303 -127 -426q-128 -123 -409 -123q-283 0 -408 122t-125 427zM383 498q0 -183 54 -252q55 -70 198 -70q145 0 201 70q55 68 55 252v622q0 184 -55 252q-56 70 -201 70q-143 0 -198 -70 q-54 -69 -54 -252v-622zM383 1937q0 13 10 29l70 105q24 34 45 34q20 0 37 -12l321 -246q27 -21 27 -43q0 -17 -10 -28l-23 -31q-16 -19 -39 -19q-19 0 -41 11q-258 106 -374 166q-23 15 -23 34z" />
<glyph unicode="&#xd3;" horiz-adv-x="1273" d="M102 539v540q0 305 125 427t408 122q281 0 409 -123q127 -123 127 -426v-540q0 -303 -127 -426q-128 -123 -409 -123q-283 0 -408 122t-125 427zM383 498q0 -183 54 -252q55 -70 198 -70q145 0 201 70q55 68 55 252v622q0 184 -55 252q-56 70 -201 70q-143 0 -198 -70 q-54 -69 -54 -252v-622zM383 1804q0 22 27 43l321 246q15 12 37 12q21 0 45 -34l70 -105q10 -16 10 -29q0 -19 -23 -34q-116 -60 -374 -166q-22 -11 -41 -11q-23 0 -39 19l-23 31q-10 11 -10 28z" />
<glyph unicode="&#xd4;" horiz-adv-x="1273" d="M102 539v540q0 305 125 427t408 122q281 0 409 -123q127 -123 127 -426v-540q0 -303 -127 -426q-128 -123 -409 -123q-283 0 -408 122t-125 427zM250 1739q0 6 16 26l232 250q30 33 84 33h110q54 0 84 -33l232 -250q16 -20 16 -26q0 -13 -53 -13h-82q-42 0 -80 37 l-172 152l-172 -152q-38 -37 -80 -37h-82q-53 0 -53 13zM383 498q0 -183 54 -252q55 -70 198 -70q145 0 201 70q55 68 55 252v622q0 184 -55 252q-56 70 -201 70q-143 0 -198 -70q-54 -69 -54 -252v-622z" />
<glyph unicode="&#xd5;" horiz-adv-x="1273" d="M102 539v540q0 305 125 427t408 122q281 0 409 -123q127 -123 127 -426v-540q0 -303 -127 -426q-128 -123 -409 -123q-283 0 -408 122t-125 427zM213 1817q131 159 297 159q56 0 158 -50t155 -50q39 0 73 15q30 13 43 24q9 7 40 37q22 22 43 0l31 -37q15 -18 4 -31 q-69 -87 -136 -122q-69 -36 -159 -36q-83 0 -173 51q-88 50 -140 50q-28 0 -45 -4t-36 -15q-24 -14 -27 -16t-27 -22q-12 -10 -21 -19q-24 -23 -43 -4q-12 12 -23 27q-12 16 -12 18q-12 15 -2 25zM383 498q0 -183 54 -252q55 -70 198 -70q145 0 201 70q55 68 55 252v622 q0 184 -55 252q-56 70 -201 70q-143 0 -198 -70q-54 -69 -54 -252v-622z" />
<glyph unicode="&#xd6;" horiz-adv-x="1273" d="M102 539v540q0 305 125 427t408 122q281 0 409 -123q127 -123 127 -426v-540q0 -303 -127 -426q-128 -123 -409 -123q-283 0 -408 122t-125 427zM319 1776v125q0 49 48 49h129q47 0 47 -49v-125q0 -50 -47 -50h-129q-48 0 -48 50zM383 498q0 -183 54 -252q55 -70 198 -70 q145 0 201 70q55 68 55 252v622q0 184 -55 252q-56 70 -201 70q-143 0 -198 -70q-54 -69 -54 -252v-622zM727 1776v125q0 49 47 49h131q47 0 47 -49v-125q0 -50 -47 -50h-131q-47 0 -47 50z" />
<glyph unicode="&#xd7;" horiz-adv-x="1118" d="M92 279q0 18 14 32l328 326l-328 328q-14 14 -14 30q0 18 19 37l53 53q19 19 37 19q16 0 30 -14l326 -328l328 325q17 15 33 15q17 0 34 -17l54 -53q18 -18 18 -37q0 -14 -16 -30l-326 -328l326 -326q16 -16 16 -32q0 -17 -18 -35l-54 -54q-18 -18 -34 -18q-17 0 -33 16 l-328 326l-326 -328q-14 -14 -30 -14q-19 0 -37 18l-53 54q-19 19 -19 35z" />
<glyph unicode="&#xd8;" horiz-adv-x="1273" d="M66 -123q0 9 10 29l125 235q-99 125 -99 398v540q0 305 125 427t408 122q205 0 326 -61l75 141q22 36 36 43q16 8 48 8h72q35 0 35 -22q0 -13 -10 -29l-134 -250q88 -127 88 -379v-540q0 -303 -127 -426q-128 -123 -409 -123q-192 0 -307 53l-74 -137q-22 -37 -35 -43 q-16 -8 -47 -8h-70q-36 0 -36 22zM383 481l465 873q-52 88 -213 88q-143 0 -198 -70q-54 -69 -54 -252v-639zM436 246q56 -70 199 -70q145 0 201 70q55 68 55 252v600z" />
<glyph unicode="&#xd9;" horiz-adv-x="1284" d="M131 539v1030q0 49 45 49h182q48 0 48 -49v-1071q0 -182 50 -252t185 -70q139 0 192 70q52 68 52 252v1071q0 49 45 49h178q45 0 45 -49v-1030q0 -306 -121 -427q-122 -122 -391 -122q-270 0 -390 122t-120 427zM387 1937q0 13 10 29l70 105q24 34 45 34q20 0 37 -12 l321 -246q27 -21 27 -43q0 -17 -10 -28l-23 -31q-16 -19 -39 -19q-19 0 -41 11q-258 106 -374 166q-23 15 -23 34z" />
<glyph unicode="&#xda;" horiz-adv-x="1284" d="M131 539v1030q0 49 45 49h182q48 0 48 -49v-1071q0 -182 50 -252t185 -70q139 0 192 70q52 68 52 252v1071q0 49 45 49h178q45 0 45 -49v-1030q0 -306 -121 -427q-122 -122 -391 -122q-270 0 -390 122t-120 427zM387 1804q0 22 27 43l321 246q16 12 37 12t45 -34l70 -105 q10 -16 10 -29q0 -19 -23 -34q-116 -60 -374 -166q-22 -11 -41 -11q-23 0 -39 19l-23 31q-10 11 -10 28z" />
<glyph unicode="&#xdb;" horiz-adv-x="1284" d="M131 539v1030q0 49 45 49h182q48 0 48 -49v-1071q0 -182 50 -252t185 -70q139 0 192 70q52 68 52 252v1071q0 49 45 49h178q45 0 45 -49v-1030q0 -306 -121 -427q-122 -122 -391 -122q-270 0 -390 122t-120 427zM256 1739q0 6 16 26l232 250q30 33 84 33h110q54 0 84 -33 l232 -250q16 -20 16 -26q0 -13 -53 -13h-82q-42 0 -80 37l-172 152l-172 -152q-38 -37 -80 -37h-82q-53 0 -53 13z" />
<glyph unicode="&#xdc;" horiz-adv-x="1284" d="M131 539v1030q0 49 45 49h182q48 0 48 -49v-1071q0 -182 50 -252t185 -70q139 0 192 70q52 68 52 252v1071q0 49 45 49h178q45 0 45 -49v-1030q0 -306 -121 -427q-122 -122 -391 -122q-270 0 -390 122t-120 427zM338 1776v125q0 49 47 49h129q47 0 47 -49v-125 q0 -50 -47 -50h-129q-47 0 -47 50zM745 1776v125q0 49 48 49h131q47 0 47 -49v-125q0 -50 -47 -50h-131q-48 0 -48 50z" />
<glyph unicode="&#xdd;" horiz-adv-x="1187" d="M18 1569q-22 49 27 49h180q25 0 36 -7t26 -42l313 -725l315 725q17 35 28 42t36 7h166q47 0 26 -49l-440 -991v-529q0 -49 -47 -49h-180q-47 0 -47 49v533zM340 1804q0 22 27 43l321 246q15 12 37 12q21 0 45 -34l70 -105q10 -16 10 -29q0 -19 -23 -34 q-116 -60 -374 -166q-22 -11 -41 -11q-26 0 -39 19l-23 31q-10 11 -10 28z" />
<glyph unicode="&#xde;" horiz-adv-x="1300" d="M137 49v1520q0 49 47 49h181q47 0 47 -49v-232h293q290 0 407 -107q119 -108 119 -376v-66q0 -273 -119 -381q-118 -108 -407 -108h-293v-250q0 -49 -47 -49h-181q-47 0 -47 49zM412 475h293q140 0 196 52q57 53 57 190v211q0 128 -57 181q-56 52 -196 52h-293v-686z" />
<glyph unicode="&#xdf;" horiz-adv-x="1298" d="M55 49v76q0 51 47 51h56v909q0 306 115 424q116 119 401 119q263 0 388 -101q126 -102 126 -351q0 -50 -6 -93q-6 -41 -20 -73q-22 -50 -25 -55q-11 -22 -30 -41q-17 -17 -29 -26q-1 -1 -10 -8t-15 -11q-15 -9 -17 -11q174 -89 174 -364v-64q0 -242 -123 -336 q-122 -94 -407 -94q-45 0 -45 49v76q0 51 49 51q140 0 197 51t57 183v137q0 129 -57 180t-195 51q-51 0 -51 51v52q0 49 49 49q127 0 179 49t52 176q0 177 -52 235t-189 58t-189 -56q-53 -58 -53 -212v-1131q0 -49 -47 -49h-283q-47 0 -47 49z" />
<glyph unicode="&#xe0;" horiz-adv-x="1175" d="M72 334v31q0 110 52 181q52 72 129 102q69 27 168 53q76 20 168 38q77 15 129 54t52 102v68q0 96 -46 138t-161 42q-121 0 -168 -50t-47 -173v-52q0 -53 -47 -53h-156q-45 0 -45 53v45q0 394 471 394q248 0 357 -109q108 -108 108 -373v-671h49q48 0 48 -50v-55 q0 -49 -48 -49h-239q-47 0 -47 49v64l-13 8q-111 -131 -327 -131q-178 0 -283 90q-104 89 -104 254zM334 354q0 -106 50 -153t151 -47q116 0 176 57q59 56 59 151v291l-12 8q-59 -32 -175 -61q-120 -30 -185 -71q-64 -40 -64 -121v-54zM346 1616q0 13 10 29l70 104 q24 35 45 35t37 -12l321 -246q27 -21 27 -43q0 -18 -10 -29l-23 -31q-12 -18 -39 -18q-21 0 -41 10q-258 106 -374 166q-23 15 -23 35z" />
<glyph unicode="&#xe1;" horiz-adv-x="1175" d="M72 334v31q0 110 52 181q52 72 129 102q69 27 168 53q76 20 168 38q77 15 129 54t52 102v68q0 96 -46 138t-161 42q-121 0 -168 -50t-47 -173v-52q0 -53 -47 -53h-156q-45 0 -45 53v45q0 394 471 394q248 0 357 -109q108 -108 108 -373v-671h49q48 0 48 -50v-55 q0 -49 -48 -49h-239q-47 0 -47 49v64l-13 8q-111 -131 -327 -131q-178 0 -283 90q-104 89 -104 254zM334 354q0 -106 50 -153t151 -47q116 0 176 57q59 56 59 151v291l-12 8q-59 -32 -175 -61q-120 -30 -185 -71q-64 -40 -64 -121v-54zM346 1483q0 22 27 43l321 246 q16 12 37 12t45 -35l70 -104q10 -16 10 -29q0 -20 -22 -35q-112 -57 -375 -166q-20 -10 -41 -10q-24 0 -39 18l-23 31q-10 11 -10 29z" />
<glyph unicode="&#xe2;" horiz-adv-x="1175" d="M72 334v31q0 110 52 181q52 72 129 102q69 27 168 53q76 20 168 38q77 15 129 54t52 102v68q0 96 -46 138t-161 42q-121 0 -168 -50t-47 -173v-52q0 -53 -47 -53h-156q-45 0 -45 53v45q0 394 471 394q248 0 357 -109q108 -108 108 -373v-671h49q48 0 48 -50v-55 q0 -49 -48 -49h-239q-47 0 -47 49v64l-13 8q-111 -131 -327 -131q-178 0 -283 90q-104 89 -104 254zM213 1417q0 7 16 27l232 250q29 32 84 32h110q55 0 84 -32l232 -250q16 -20 16 -27q0 -12 -53 -12h-82q-42 0 -80 37l-172 151l-172 -151q-38 -37 -80 -37h-82 q-53 0 -53 12zM334 354q0 -106 50 -153t151 -47q116 0 176 57q59 56 59 151v291l-12 8q-59 -32 -175 -61q-120 -30 -185 -71q-64 -40 -64 -121v-54z" />
<glyph unicode="&#xe3;" horiz-adv-x="1175" d="M72 334v31q0 110 52 181q52 72 129 102q69 27 168 53q76 20 168 38q77 15 129 54t52 102v68q0 96 -46 138t-161 42q-121 0 -168 -50t-47 -173v-52q0 -53 -47 -53h-156q-45 0 -45 53v45q0 394 471 394q248 0 357 -109q108 -108 108 -373v-671h49q48 0 48 -50v-55 q0 -49 -48 -49h-239q-47 0 -47 49v64l-13 8q-111 -131 -327 -131q-178 0 -283 90q-104 89 -104 254zM178 1495q131 160 297 160q56 0 158 -50q104 -51 155 -51q36 0 73 16q32 14 43 23q9 7 40 37q22 22 43 0q24 -25 31 -37q15 -18 4 -30q-69 -87 -136 -122q-69 -36 -159 -36 q-85 0 -173 50t-140 50q-27 0 -44 -4q-22 -5 -37 -14q-12 -7 -27 -17q-4 -3 -26 -21q-12 -10 -22 -20q-24 -23 -43 -4q-9 9 -22 27l-13 18q-12 15 -2 25zM334 354q0 -106 50 -153t151 -47q116 0 176 57q59 56 59 151v291l-12 8q-59 -32 -175 -61q-120 -30 -185 -71 q-64 -40 -64 -121v-54z" />
<glyph unicode="&#xe4;" horiz-adv-x="1175" d="M72 334v31q0 110 52 181q52 72 129 102q69 27 168 53q76 20 168 38q77 15 129 54t52 102v68q0 96 -46 138t-161 42q-121 0 -168 -50t-47 -173v-52q0 -53 -47 -53h-156q-45 0 -45 53v45q0 394 471 394q248 0 357 -109q108 -108 108 -373v-671h49q48 0 48 -50v-55 q0 -49 -48 -49h-239q-47 0 -47 49v64l-13 8q-111 -131 -327 -131q-178 0 -283 90q-104 89 -104 254zM285 1454v125q0 49 47 49h129q47 0 47 -49v-125q0 -49 -47 -49h-129q-47 0 -47 49zM334 354q0 -106 50 -153t151 -47q116 0 176 57q59 56 59 151v291l-12 8 q-59 -32 -175 -61q-120 -30 -185 -71q-64 -40 -64 -121v-54zM692 1454v125q0 49 47 49h131q48 0 48 -49v-125q0 -49 -48 -49h-131q-47 0 -47 49z" />
<glyph unicode="&#xe5;" horiz-adv-x="1175" d="M72 334v31q0 110 52 181q52 72 129 102q69 27 168 53q76 20 168 38q77 15 129 54t52 102v68q0 96 -46 138t-161 42q-121 0 -168 -50t-47 -173v-52q0 -53 -47 -53h-156q-45 0 -45 53v45q0 394 471 394q248 0 357 -109q108 -108 108 -373v-671h49q48 0 48 -50v-55 q0 -49 -48 -49h-239q-47 0 -47 49v64l-13 8q-111 -131 -327 -131q-178 0 -283 90q-104 89 -104 254zM334 354q0 -106 50 -153t151 -47q116 0 176 57q59 56 59 151v291l-12 8q-59 -32 -175 -61q-120 -30 -185 -71q-64 -40 -64 -121v-54zM383 1622q0 91 64 154q65 63 153 63 t153 -63q64 -63 64 -154t-64 -154q-65 -63 -153 -63t-153 63q-64 63 -64 154zM500 1622q0 -42 29 -71t71 -29t71 29t29 71t-29 71t-71 29t-71 -29t-29 -71z" />
<glyph unicode="&#xe6;" horiz-adv-x="1816" d="M72 334v31q0 110 52 181q52 72 129 102q69 27 168 53q76 20 168 38q77 15 129 54t52 102v68q0 96 -47 138t-160 42q-114 0 -161 -50q-46 -49 -46 -173v-52q0 -53 -47 -53h-164q-45 0 -45 53v45q0 394 471 394q231 0 340 -95q112 95 342 95q237 0 359 -113 q121 -112 121 -381v-100q0 -49 -47 -60l-648 -88v-141q0 -143 52 -207q51 -63 165 -63q124 0 175 51t51 172v51q0 53 47 53h160q45 0 45 -53v-43q0 -395 -480 -395q-322 0 -422 196q-108 -196 -372 -196q-178 0 -283 90q-104 89 -104 254zM334 354q0 -106 50 -153t151 -47 q117 0 176 58t59 157v284l-12 8q-59 -32 -175 -61q-120 -30 -185 -71q-64 -40 -64 -121v-54zM1038 709l443 55v110q0 141 -53 205t-173 64q-113 0 -165 -64t-52 -205v-165z" />
<glyph unicode="&#xe7;" horiz-adv-x="1130" d="M90 535v227q0 304 116 425q116 120 367 120q480 0 480 -396v-43q0 -53 -45 -53h-160q-47 0 -47 53v52q0 121 -51 172t-175 51q-113 0 -165 -64t-52 -207v-448q0 -143 52 -207q51 -63 165 -63q124 0 175 51t51 172v51q0 53 47 53h160q45 0 45 -53v-43q0 -395 -480 -395 q-31 0 -55 2l-22 -105q50 35 127 35q88 0 143 -59t55 -164q0 -97 -60 -158t-175 -61q-105 0 -167 52q-64 53 -71 126h141q4 -27 29 -49q24 -21 66 -21q46 0 71 31t25 78q0 121 -94 121q-80 0 -103 -70h-135q-19 0 -14 23l47 239q-150 38 -220 161q-71 125 -71 364z" />
<glyph unicode="&#xe8;" horiz-adv-x="1138" d="M90 535v227q0 304 116 425q116 120 367 120q237 0 359 -113q121 -112 121 -381v-100q0 -49 -47 -60l-648 -88v-141q0 -143 52 -207q51 -63 165 -63q124 0 175 51t51 172v51q0 53 47 53h160q45 0 45 -53v-43q0 -395 -480 -395q-251 0 -367 120q-116 121 -116 425z M317 1616q0 12 11 29l69 104q24 35 45 35q20 0 37 -12l322 -246q26 -20 26 -43q0 -18 -10 -29l-22 -31q-15 -18 -39 -18q-21 0 -41 10q-263 109 -375 166q-23 15 -23 35zM358 705l443 59v110q0 143 -52 205q-53 64 -174 64q-113 0 -165 -64t-52 -205v-169z" />
<glyph unicode="&#xe9;" horiz-adv-x="1138" d="M90 535v227q0 304 116 425q116 120 367 120q237 0 359 -113q121 -112 121 -381v-100q0 -49 -47 -60l-648 -88v-141q0 -143 52 -207q51 -63 165 -63q124 0 175 51t51 172v51q0 53 47 53h160q45 0 45 -53v-43q0 -395 -480 -395q-251 0 -367 120q-116 121 -116 425z M317 1483q0 22 27 43l322 246q15 12 36 12q22 0 46 -35l69 -104q10 -16 10 -29q0 -20 -22 -35q-112 -57 -375 -166q-20 -10 -41 -10q-24 0 -39 18l-22 31q-11 13 -11 29zM358 705l443 59v110q0 143 -52 205q-53 64 -174 64q-113 0 -165 -64t-52 -205v-169z" />
<glyph unicode="&#xea;" horiz-adv-x="1138" d="M90 535v227q0 304 116 425q116 120 367 120q237 0 359 -113q121 -112 121 -381v-100q0 -49 -47 -60l-648 -88v-141q0 -143 52 -207q51 -63 165 -63q124 0 175 51t51 172v51q0 53 47 53h160q45 0 45 -53v-43q0 -395 -480 -395q-251 0 -367 120q-116 121 -116 425z M184 1417q0 5 17 27l231 250q29 32 84 32h111q55 0 84 -32l231 -250q16 -20 16 -27q0 -12 -53 -12h-82q-42 0 -80 37l-172 151l-172 -151q-38 -37 -80 -37h-81q-54 0 -54 12zM358 705l443 59v110q0 143 -52 205q-53 64 -174 64q-113 0 -165 -64t-52 -205v-169z" />
<glyph unicode="&#xeb;" horiz-adv-x="1138" d="M90 535v227q0 304 116 425q116 120 367 120q237 0 359 -113q121 -112 121 -381v-100q0 -49 -47 -60l-648 -88v-141q0 -143 52 -207q51 -63 165 -63q124 0 175 51t51 172v51q0 53 47 53h160q45 0 45 -53v-43q0 -395 -480 -395q-251 0 -367 120q-116 121 -116 425z M256 1454v125q0 49 47 49h129q47 0 47 -49v-125q0 -49 -47 -49h-129q-47 0 -47 49zM358 705l443 59v110q0 143 -52 205q-53 64 -174 64q-113 0 -165 -64t-52 -205v-169zM664 1454v125q0 49 47 49h131q47 0 47 -49v-125q0 -49 -47 -49h-131q-47 0 -47 49z" />
<glyph unicode="&#xec;" horiz-adv-x="550" d="M14 1616q0 12 11 29l69 104q24 35 45 35t37 -12l322 -246q26 -20 26 -43q0 -18 -10 -29l-22 -31q-15 -18 -39 -18q-21 0 -41 10q-263 109 -375 166q-23 15 -23 35zM57 1192v55q0 49 47 49h269q47 0 47 -49v-1198q0 -49 -47 -49h-172q-47 0 -47 49v1094h-50q-47 0 -47 49z " />
<glyph unicode="&#xed;" horiz-adv-x="550" d="M51 1483q0 22 27 43l321 246q15 12 37 12q21 0 45 -35l70 -104q10 -16 10 -29q0 -20 -22 -35q-112 -57 -375 -166q-20 -10 -41 -10q-24 0 -39 18l-23 31q-10 11 -10 29zM57 1192v55q0 49 47 49h269q47 0 47 -49v-1198q0 -49 -47 -49h-172q-47 0 -47 49v1094h-50 q-47 0 -47 49z" />
<glyph unicode="&#xee;" horiz-adv-x="550" d="M-96 1417q0 7 16 27l232 250q29 32 84 32h110q55 0 84 -32l232 -250q16 -20 16 -27q0 -12 -53 -12h-82q-42 0 -80 37l-172 151l-172 -151q-38 -37 -80 -37h-82q-53 0 -53 12zM57 1192v55q0 49 47 49h269q47 0 47 -49v-1198q0 -49 -47 -49h-172q-47 0 -47 49v1094h-50 q-47 0 -47 49z" />
<glyph unicode="&#xef;" horiz-adv-x="550" d="M-61 1454v125q0 49 47 49h129q47 0 47 -49v-125q0 -49 -47 -49h-129q-47 0 -47 49zM57 1192v55q0 49 47 49h269q47 0 47 -49v-1198q0 -49 -47 -49h-172q-47 0 -47 49v1094h-50q-47 0 -47 49zM346 1454v125q0 49 47 49h131q47 0 47 -49v-125q0 -49 -47 -49h-131 q-47 0 -47 49z" />
<glyph unicode="&#xf0;" horiz-adv-x="1218" d="M66 477v72q0 273 103 391q104 119 353 119q180 0 305 -101v320l-211 -104q-18 -9 -24 -9q-23 0 -23 35v57q0 50 47 74l199 99q-39 133 -227 133h-189q-45 0 -45 49v65q0 49 45 49h193q330 0 442 -188l209 104q18 9 25 9q22 0 22 -35v-60q0 -47 -47 -71l-160 -80 q13 -71 13 -137v-791q0 -244 -118 -365q-119 -122 -403 -122q-278 0 -394 122q-115 121 -115 365zM334 395q0 -131 57 -186q56 -55 184 -55q134 0 193 55t59 186v258q0 131 -57 187q-56 55 -184 55q-134 0 -193 -55t-59 -187v-258z" />
<glyph unicode="&#xf1;" horiz-adv-x="1243" d="M59 1192v55q0 49 47 49h236q47 0 47 -49v-63l10 -8q105 131 297 131q212 0 318 -118t106 -407v-733q0 -49 -47 -49h-172q-47 0 -47 49v825q0 142 -51 205q-52 64 -166 64t-166 -64q-51 -63 -51 -205v-825q0 -49 -47 -49h-170q-49 0 -49 49v1094h-48q-47 0 -47 49z M207 1495q131 160 297 160q55 0 157 -50q104 -51 156 -51q36 0 73 16q32 14 43 23q9 7 40 37q22 22 43 0q24 -25 31 -37q15 -18 4 -30q-68 -86 -137 -122t-158 -36q-85 0 -173 50t-141 50q-27 0 -44 -4q-22 -5 -37 -14q-4 -2 -26 -17q-9 -6 -27 -21q-12 -10 -21 -19 q-25 -23 -43 -5q-12 12 -23 27q-12 16 -12 18q-12 15 -2 25z" />
<glyph unicode="&#xf2;" horiz-adv-x="1146" d="M90 535v227q0 304 116 425q116 120 367 120q255 0 369 -120q115 -121 115 -425v-227q0 -304 -115 -425q-114 -120 -369 -120q-251 0 -367 120q-116 121 -116 425zM340 1616q0 13 10 29l70 104q24 35 45 35q22 0 37 -12l321 -246q27 -21 27 -43q0 -18 -10 -29l-23 -31 q-15 -18 -39 -18q-21 0 -41 10q-263 109 -375 166q-22 15 -22 35zM358 422q0 -140 51 -205q50 -63 164 -63q115 0 166 63q52 64 52 205v452q0 141 -52 205t-166 64t-164 -64q-51 -65 -51 -205v-452z" />
<glyph unicode="&#xf3;" horiz-adv-x="1146" d="M90 535v227q0 304 116 425q116 120 367 120q255 0 369 -120q115 -121 115 -425v-227q0 -304 -115 -425q-114 -120 -369 -120q-251 0 -367 120q-116 121 -116 425zM319 1483q0 22 27 43l322 246q15 12 37 12q21 0 45 -35l69 -104q10 -16 10 -29q0 -20 -22 -35 q-112 -57 -375 -166q-20 -10 -41 -10q-24 0 -39 18l-22 31q-11 13 -11 29zM358 422q0 -140 51 -205q50 -63 164 -63q115 0 166 63q52 64 52 205v452q0 141 -52 205t-166 64t-164 -64q-51 -65 -51 -205v-452z" />
<glyph unicode="&#xf4;" horiz-adv-x="1146" d="M90 535v227q0 304 116 425q116 120 367 120q255 0 369 -120q115 -121 115 -425v-227q0 -304 -115 -425q-114 -120 -369 -120q-251 0 -367 120q-116 121 -116 425zM209 1417q0 7 16 27l232 250q29 32 84 32h110q55 0 84 -32l232 -250q16 -20 16 -27q0 -12 -53 -12h-82 q-42 0 -80 37l-172 151l-172 -151q-38 -37 -80 -37h-82q-53 0 -53 12zM358 422q0 -140 51 -205q50 -63 164 -63q115 0 166 63q52 64 52 205v452q0 141 -52 205t-166 64t-164 -64q-51 -65 -51 -205v-452z" />
<glyph unicode="&#xf5;" horiz-adv-x="1146" d="M90 535v227q0 304 116 425q116 120 367 120q255 0 369 -120q115 -121 115 -425v-227q0 -304 -115 -425q-114 -120 -369 -120q-251 0 -367 120q-116 121 -116 425zM172 1495q131 160 297 160q56 0 158 -50q104 -51 155 -51q36 0 73 16q32 14 43 23q9 7 40 37q22 22 43 0 l31 -37q15 -18 4 -30q-69 -87 -136 -122q-69 -36 -159 -36q-85 0 -173 50t-140 50q-27 0 -44 -4q-22 -5 -37 -14q-12 -7 -27 -17q-9 -6 -27 -21q-12 -10 -21 -19q-25 -23 -43 -5q-12 12 -23 27q-12 16 -12 18q-12 15 -2 25zM358 422q0 -140 51 -205q50 -63 164 -63 q115 0 166 63q52 64 52 205v452q0 141 -52 205t-166 64t-164 -64q-51 -65 -51 -205v-452z" />
<glyph unicode="&#xf6;" horiz-adv-x="1146" d="M90 535v227q0 304 116 425q116 120 367 120q255 0 369 -120q115 -121 115 -425v-227q0 -304 -115 -425q-114 -120 -369 -120q-251 0 -367 120q-116 121 -116 425zM279 1454v125q0 49 47 49h129q47 0 47 -49v-125q0 -49 -47 -49h-129q-47 0 -47 49zM358 422 q0 -140 51 -205q50 -63 164 -63q115 0 166 63q52 64 52 205v452q0 141 -52 205t-166 64t-164 -64q-51 -65 -51 -205v-452zM686 1454v125q0 49 47 49h131q47 0 47 -49v-125q0 -49 -47 -49h-131q-47 0 -47 49z" />
<glyph unicode="&#xf7;" horiz-adv-x="878" d="M86 610v74q0 51 45 51h614q48 0 48 -51v-74q0 -51 -48 -51h-614q-45 0 -45 51zM326 211v125q0 49 47 49h131q47 0 47 -49v-125q0 -49 -47 -49h-131q-47 0 -47 49zM326 965v125q0 49 47 49h131q47 0 47 -49v-125q0 -50 -47 -50h-131q-47 0 -47 50z" />
<glyph unicode="&#xf8;" horiz-adv-x="1146" d="M72 -156q0 5 8 27l127 238q-117 125 -117 426v227q0 304 116 425q116 120 367 120q150 0 252 -41l78 149q27 47 76 47h65q33 0 33 -20q0 -5 -8 -27l-125 -233q113 -125 113 -420v-227q0 -304 -115 -425q-114 -120 -369 -120q-152 0 -245 37l-84 -156q-27 -47 -74 -47h-66 q-32 0 -32 20zM358 391l373 701q-55 51 -158 51q-114 0 -164 -64q-51 -65 -51 -205v-483zM418 193q46 -39 155 -39q115 0 166 63q52 64 52 205v469z" />
<glyph unicode="&#xf9;" horiz-adv-x="1263" d="M47 1192v55q0 49 47 49h268q48 0 48 -49v-825q0 -141 50 -205q50 -63 165 -63q111 0 163 57q54 59 54 182v854q0 49 47 49h172q47 0 47 -49v-1093h49q47 0 47 -50v-55q0 -49 -47 -49h-239q-48 0 -48 49v60l-10 6q-102 -125 -295 -125q-211 0 -316 118q-106 120 -106 406 v629h-49q-47 0 -47 49zM373 1616q0 13 10 29l70 104q24 35 45 35q22 0 37 -12l321 -246q27 -21 27 -43q0 -16 -11 -29l-22 -31q-15 -18 -39 -18q-21 0 -41 10q-263 109 -375 166q-22 15 -22 35z" />
<glyph unicode="&#xfa;" horiz-adv-x="1263" d="M47 1192v55q0 49 47 49h268q48 0 48 -49v-825q0 -141 50 -205q50 -63 165 -63q111 0 163 57q54 59 54 182v854q0 49 47 49h172q47 0 47 -49v-1093h49q47 0 47 -50v-55q0 -49 -47 -49h-239q-48 0 -48 49v60l-10 6q-102 -125 -295 -125q-211 0 -316 118q-106 120 -106 406 v629h-49q-47 0 -47 49zM373 1483q0 23 26 43l322 246q17 12 37 12q21 0 45 -35l69 -104q11 -17 11 -29q0 -20 -23 -35q-112 -57 -375 -166q-20 -10 -41 -10q-23 0 -38 18l-23 31q-10 11 -10 29z" />
<glyph unicode="&#xfb;" horiz-adv-x="1263" d="M47 1192v55q0 49 47 49h268q48 0 48 -49v-825q0 -141 50 -205q50 -63 165 -63q111 0 163 57q54 59 54 182v854q0 49 47 49h172q47 0 47 -49v-1093h49q47 0 47 -50v-55q0 -49 -47 -49h-239q-48 0 -48 49v60l-10 6q-102 -125 -295 -125q-211 0 -316 118q-106 120 -106 406 v629h-49q-47 0 -47 49zM240 1417q0 7 16 27l231 250q29 32 84 32h111q55 0 84 -32l231 -250q17 -22 17 -27q0 -12 -53 -12h-82q-42 0 -80 37l-172 151l-172 -151q-38 -37 -80 -37h-82q-53 0 -53 12z" />
<glyph unicode="&#xfc;" horiz-adv-x="1263" d="M47 1192v55q0 49 47 49h268q48 0 48 -49v-825q0 -141 50 -205q50 -63 165 -63q111 0 163 57q54 59 54 182v854q0 49 47 49h172q47 0 47 -49v-1093h49q47 0 47 -50v-55q0 -49 -47 -49h-239q-48 0 -48 49v60l-10 6q-102 -125 -295 -125q-211 0 -316 118q-106 120 -106 406 v629h-49q-47 0 -47 49zM309 1454v125q0 49 47 49h129q47 0 47 -49v-125q0 -49 -47 -49h-129q-47 0 -47 49zM717 1454v125q0 49 47 49h131q47 0 47 -49v-125q0 -49 -47 -49h-131q-47 0 -47 49z" />
<glyph unicode="&#xfd;" horiz-adv-x="1116" d="M31 1247q-15 49 30 49h162q17 0 21 -1q10 -2 14 -5q9 -6 13 -14q11 -24 12 -29l286 -1014l287 1014q10 34 20 42q8 7 35 7h140q44 0 32 -49l-387 -1290q-23 -77 -50 -155q-19 -54 -48 -110t-57 -79q-30 -25 -76 -46q-50 -23 -104 -27q-63 -5 -142 -5h-8q-49 0 -39 49 l14 56q12 49 58 49h59q87 0 117 51q15 24 53 156l29 104h-53q-23 0 -36 10q-15 11 -22 39zM303 1483q0 22 27 43l321 246q15 12 37 12q21 0 45 -35l70 -104q10 -16 10 -29q0 -20 -22 -35q-112 -57 -375 -166q-20 -10 -41 -10q-24 0 -39 18l-23 31q-10 11 -10 29z" />
<glyph unicode="&#xfe;" horiz-adv-x="1193" d="M39 1657v55q0 49 47 49h256q49 0 49 -49v-508l6 -6q100 109 279 109q213 0 318 -119q106 -120 106 -406v-268q0 -285 -106 -405q-105 -119 -318 -119q-179 0 -279 106l-6 -4v-508q0 -49 -49 -49h-162q-47 0 -47 49v2024h-47q-47 0 -47 49zM401 422q0 -140 51 -205 q50 -63 164 -63q115 0 166 63q52 64 52 205v452q0 141 -52 205t-166 64q-110 0 -160 -57q-51 -58 -55 -185v-479z" />
<glyph unicode="&#xff;" horiz-adv-x="1116" d="M31 1247q-15 49 30 49h162q17 0 21 -1q10 -2 14 -5q9 -6 13 -14q11 -24 12 -29l286 -1014l287 1014q10 34 20 42q8 7 35 7h140q44 0 32 -49l-387 -1290q-23 -77 -50 -155q-19 -54 -48 -110t-57 -79q-30 -25 -76 -46q-50 -23 -104 -27q-63 -5 -142 -5h-8q-49 0 -39 49 l14 56q12 49 58 49h59q87 0 117 51q15 24 53 156l29 104h-53q-23 0 -36 10q-15 11 -22 39zM250 1454v125q0 49 47 49h129q47 0 47 -49v-125q0 -49 -47 -49h-129q-47 0 -47 49zM657 1454v125q0 49 48 49h131q47 0 47 -49v-125q0 -49 -47 -49h-131q-48 0 -48 49z" />
<glyph unicode="&#x152;" horiz-adv-x="1732" d="M102 539v540q0 305 125 427t408 122q157 0 264 -37q11 27 43 27h692q47 0 47 -49v-76q0 -51 -47 -51h-463v-619h273q47 0 47 -51v-76q0 -49 -47 -49h-273v-471h463q47 0 47 -51v-76q0 -49 -47 -49h-692q-32 0 -43 25q-103 -35 -264 -35q-283 0 -408 122t-125 427z M383 498q0 -183 54 -252q55 -70 198 -70q145 0 201 70q55 68 55 252v622q0 184 -55 252q-56 70 -201 70q-143 0 -198 -70q-54 -69 -54 -252v-622z" />
<glyph unicode="&#x153;" horiz-adv-x="1837" d="M90 535v227q0 304 116 425q116 120 367 120q239 0 351 -103q112 103 350 103q236 0 358 -113q121 -112 121 -381v-100q0 -49 -47 -60l-647 -88v-141q0 -144 51 -207t166 -63q123 0 174 51t51 172v51q0 53 47 53h160q45 0 45 -53v-43q0 -395 -479 -395q-239 0 -350 102 q-108 -102 -351 -102q-251 0 -367 120q-116 121 -116 425zM358 422q0 -140 51 -205q50 -63 164 -63q115 0 166 63q52 64 52 205v452q0 141 -52 205t-166 64t-164 -64q-51 -65 -51 -205v-452zM1059 709l442 55v110q0 143 -52 205q-53 64 -173 64q-114 0 -166 -64 q-51 -63 -51 -205v-165z" />
<glyph unicode="&#x178;" horiz-adv-x="1187" d="M18 1569q-22 49 27 49h180q25 0 36 -7t26 -42l313 -725l315 725q17 35 28 42t36 7h166q47 0 26 -49l-440 -991v-529q0 -49 -47 -49h-180q-47 0 -47 49v533zM283 1776v125q0 49 47 49h129q47 0 47 -49v-125q0 -50 -47 -50h-129q-47 0 -47 50zM690 1776v125q0 49 47 49h131 q47 0 47 -49v-125q0 -50 -47 -50h-131q-47 0 -47 50z" />
<glyph unicode="&#x2c6;" horiz-adv-x="937" d="M82 1417q0 7 16 27l232 250q29 32 84 32h110q55 0 84 -32l232 -250q16 -20 16 -27q0 -12 -53 -12h-82q-42 0 -80 37l-172 151l-172 -151q-38 -37 -80 -37h-82q-53 0 -53 12z" />
<glyph unicode="&#x2dc;" horiz-adv-x="1017" d="M86 1495q131 160 297 160q56 0 158 -50q104 -51 155 -51q36 0 73 16q32 14 43 23q9 7 40 37q22 22 43 0q24 -25 31 -37q15 -18 4 -30q-69 -87 -136 -122q-69 -36 -159 -36q-85 0 -173 50t-140 50q-27 0 -44 -4q-22 -5 -37 -14q-12 -7 -27 -17q-9 -6 -27 -21 q-12 -10 -21 -19q-25 -23 -43 -5q-12 12 -23 27q-12 16 -12 18q-12 15 -2 25z" />
<glyph unicode="&#x2000;" horiz-adv-x="1080" />
<glyph unicode="&#x2001;" horiz-adv-x="2161" />
<glyph unicode="&#x2002;" horiz-adv-x="1080" />
<glyph unicode="&#x2003;" horiz-adv-x="2161" />
<glyph unicode="&#x2004;" horiz-adv-x="720" />
<glyph unicode="&#x2005;" horiz-adv-x="540" />
<glyph unicode="&#x2006;" horiz-adv-x="360" />
<glyph unicode="&#x2007;" horiz-adv-x="360" />
<glyph unicode="&#x2008;" horiz-adv-x="270" />
<glyph unicode="&#x2009;" horiz-adv-x="432" />
<glyph unicode="&#x200a;" horiz-adv-x="120" />
<glyph unicode="&#x2010;" horiz-adv-x="907" d="M100 610v76q0 51 47 51h613q47 0 47 -51v-76q0 -49 -47 -49h-613q-47 0 -47 49z" />
<glyph unicode="&#x2011;" horiz-adv-x="907" d="M100 610v76q0 51 47 51h613q47 0 47 -51v-76q0 -49 -47 -49h-613q-47 0 -47 49z" />
<glyph unicode="&#x2012;" horiz-adv-x="907" d="M100 610v76q0 51 47 51h613q47 0 47 -51v-76q0 -49 -47 -49h-613q-47 0 -47 49z" />
<glyph unicode="&#x2013;" horiz-adv-x="962" d="M96 571v74q0 51 45 51h680q47 0 47 -51v-74q0 -51 -47 -51h-680q-45 0 -45 51z" />
<glyph unicode="&#x2014;" horiz-adv-x="1699" d="M96 571v74q0 51 45 51h1415q48 0 48 -51v-74q0 -51 -48 -51h-1415q-45 0 -45 51z" />
<glyph unicode="&#x2018;" horiz-adv-x="391" d="M82 1217v133q0 26 8 45l72 178q8 23 17 32t16 11q8 2 22 2h31q36 0 28 -45l-40 -182h24q47 0 47 -50v-124q0 -52 -47 -52h-131q-47 0 -47 52z" />
<glyph unicode="&#x2019;" horiz-adv-x="380" d="M84 1442v127q0 49 47 49h131q47 0 47 -49v-135q0 -26 -8 -45l-72 -177q-12 -33 -22 -40t-33 -7h-31q-36 0 -28 47l41 183h-25q-47 0 -47 47z" />
<glyph unicode="&#x201a;" horiz-adv-x="407" d="M88 49v125q0 49 49 49h135q47 0 47 -49v-135q0 -25 -6 -43l-90 -252q-7 -21 -16 -32q-8 -9 -17 -11q-10 -2 -24 -2h-31q-33 0 -26 45l59 256h-31q-49 0 -49 49z" />
<glyph unicode="&#x201c;" horiz-adv-x="739" d="M82 1217v133q0 26 8 45l72 178q8 23 17 32t16 11q8 2 22 2h31q36 0 28 -45l-40 -182h24q47 0 47 -50v-124q0 -52 -47 -52h-131q-47 0 -47 52zM430 1217v133q0 22 6 45l72 178q8 23 17 32t17 11q10 2 23 2h31q34 0 27 -45l-41 -182h24q47 0 47 -50v-124q0 -52 -47 -52 h-129q-47 0 -47 52z" />
<glyph unicode="&#x201d;" horiz-adv-x="727" d="M84 1442v127q0 49 47 49h131q47 0 47 -49v-135q0 -26 -8 -45l-72 -177q-12 -33 -22 -40t-33 -7h-31q-36 0 -28 47l41 183h-25q-47 0 -47 47zM432 1442v127q0 49 47 49h129q47 0 47 -49v-135q0 -26 -8 -45l-69 -177q-12 -32 -24 -40q-11 -7 -34 -7h-31q-34 0 -26 47 l41 183h-25q-47 0 -47 47z" />
<glyph unicode="&#x201e;" horiz-adv-x="761" d="M88 49v125q0 49 49 49h135q47 0 47 -49v-135q0 -25 -6 -43l-90 -252q-7 -21 -16 -32q-8 -9 -17 -11q-10 -2 -24 -2h-31q-33 0 -26 45l59 256h-31q-49 0 -49 49zM442 49v125q0 49 47 49h138q47 0 47 -49v-135q0 -25 -6 -43l-90 -252q-6 -19 -17 -32q-8 -9 -16 -11 q-10 -2 -25 -2h-31q-33 0 -26 45l59 256h-33q-47 0 -47 49z" />
<glyph unicode="&#x2022;" horiz-adv-x="727" d="M129 649q0 99 69 166q70 68 164 68q100 0 168 -68t68 -166q0 -101 -68 -167t-168 -66q-98 0 -165 67q-68 68 -68 166z" />
<glyph unicode="&#x2026;" horiz-adv-x="1091" d="M86 49v125q0 49 49 49h129q47 0 47 -49v-125q0 -49 -47 -49h-129q-49 0 -49 49zM434 49v125q0 49 47 49h129q47 0 47 -49v-125q0 -49 -47 -49h-129q-47 0 -47 49zM780 49v125q0 49 47 49h131q48 0 48 -49v-125q0 -49 -48 -49h-131q-47 0 -47 49z" />
<glyph unicode="&#x202f;" horiz-adv-x="432" />
<glyph unicode="&#x2039;" horiz-adv-x="501" d="M70 522v70q0 60 32 88l250 231q22 17 27 17q12 0 12 -54v-22q0 -28 -5 -45q-4 -13 -32 -49l-145 -191v-20l145 -189q29 -40 32 -50q5 -15 5 -50v-22q0 -54 -12 -54q-5 0 -27 17l-250 231q-32 26 -32 92z" />
<glyph unicode="&#x203a;" horiz-adv-x="501" d="M111 236v22q0 35 5 50q4 13 31 50l146 189v20l-146 191q-26 34 -31 49q-5 17 -5 45v22q0 54 12 54q5 0 27 -17l249 -231q33 -28 33 -88v-70q0 -65 -33 -92l-249 -231q-22 -17 -27 -17q-12 0 -12 54z" />
<glyph unicode="&#x205f;" horiz-adv-x="540" />
<glyph unicode="&#x20ac;" horiz-adv-x="1368" d="M57 639l13 45q12 49 61 49h123v109h-148q-42 0 -30 49l12 45q12 49 62 49h104v94q0 306 118 427q119 122 390 122q265 0 389 -115q123 -114 123 -395q0 -49 -45 -49h-172q-47 0 -47 49q0 183 -54 254q-53 70 -188 70t-188 -70q-54 -71 -54 -252v-135h330q43 0 31 -49 l-13 -45q-12 -49 -63 -49h-285v-109h310q44 0 32 -49l-12 -45q-12 -49 -63 -49h-267v-92q0 -181 54 -252q53 -70 188 -70t188 70q54 71 54 254q0 49 47 49h176q45 0 45 -49q0 -285 -122 -398q-121 -112 -390 -112q-276 0 -394 121t-118 428v51h-166q-43 0 -31 49z" />
<glyph unicode="&#x2122;" horiz-adv-x="1726" d="M45 1542v47q0 29 29 29h563q29 0 29 -29v-47q0 -31 -29 -31h-199v-841q0 -29 -26 -29h-111q-29 0 -29 29v841h-198q-29 0 -29 31zM770 670l49 919q0 29 29 29h106q28 0 35 -27l203 -602l205 602q7 27 30 27h111q24 0 29 -29l47 -919q0 -29 -25 -29h-106q-29 0 -29 29 l-33 600l-168 -518q-7 -20 -13 -24q-8 -5 -23 -5h-50q-23 0 -34 29l-170 522l-31 -604q-5 -29 -29 -29h-106q-27 0 -27 29z" />
<glyph unicode="&#x25fc;" horiz-adv-x="1300" d="M0 0v1300h1300v-1300h-1300z" />
<glyph unicode="&#xfb01;" horiz-adv-x="1181" d="M31 1192v55q0 49 47 49h96v37q0 235 86 332q85 96 279 96h127q47 0 47 -49v-55q0 -49 -47 -49h-140q-48 0 -67 -25t-19 -88v-199h561q48 0 48 -49v-1198q0 -49 -48 -49h-172q-47 0 -47 49v1094h-342v-1094q0 -49 -47 -49h-172q-47 0 -47 49v1094h-96q-47 0 -47 49z M782 1524v153q0 49 45 49h177q45 0 45 -49v-153q0 -49 -45 -49h-177q-45 0 -45 49z" />
<glyph unicode="&#xfb02;" horiz-adv-x="1187" d="M31 1192v55q0 49 47 49h96v37q0 235 86 332q85 96 279 96h467q47 0 47 -49v-1663q0 -49 -47 -49h-170q-48 0 -48 49v1559h-262q-48 0 -67 -25t-19 -88v-199h195q47 0 47 -49v-55q0 -49 -47 -49h-195v-1094q0 -49 -47 -49h-172q-47 0 -47 49v1094h-96q-47 0 -47 49z" />
</font>
</defs>
</svg>
