<?xml version="1.0" standalone="no"?>
<!DOCTYPE svg PUBLIC "-//W3C//DTD SVG 1.1//EN" "http://www.w3.org/Graphics/SVG/1.1/DTD/svg11.dtd" >
<svg xmlns="http://www.w3.org/2000/svg">
<metadata></metadata>
<defs>
<font id="campton-boldbold" horiz-adv-x="1277" >
<font-face units-per-em="2048" ascent="1573" descent="-475" />
<missing-glyph horiz-adv-x="526" />
<glyph horiz-adv-x="0" />
<glyph unicode="&#xd;" horiz-adv-x="681" />
<glyph unicode=" "  horiz-adv-x="526" />
<glyph unicode="&#x09;" horiz-adv-x="526" />
<glyph unicode="&#xa0;" horiz-adv-x="526" />
<glyph unicode="!" horiz-adv-x="604" d="M123 149.5q0 73.5 51 122.5q53 51 127 50.5t127 -50t53 -123t-53 -123t-127 -50.5t-127 51q-51 49 -51 122.5zM127 1393h348l-29 -938h-290z" />
<glyph unicode="&#x22;" horiz-adv-x="753" d="M66 786v607h268v-607h-268zM422 786v607h268v-607h-268z" />
<glyph unicode="#" horiz-adv-x="1624" d="M55 299v279h262l64 204h-213v279h301l104 334h320l-105 -334h277l104 334h320l-105 -334h187v-279h-273l-63 -204h223v-279h-311l-94 -299h-320l94 299h-278l-92 -299h-320l92 299h-174zM637 578h278l64 204h-279z" />
<glyph unicode="$" horiz-adv-x="1384" d="M82 463h346q16 -92 93 -144.5t200 -52.5q96 0 146.5 33t50.5 90q0 86 -148 119l-229 51q-207 47 -305.5 145.5t-98.5 264.5q0 182 120 302t325 146v219h268v-227q174 -33 295 -141q123 -109 141 -307h-348q-31 176 -225 176q-92 0 -145.5 -37t-53.5 -103q0 -53 38 -82.5 t122 -48.5l194 -45q215 -49 317.5 -140t102.5 -257q0 -178 -116.5 -295t-321.5 -147v-207h-268v205q-213 31 -346.5 154.5t-153.5 328.5z" />
<glyph unicode="%" horiz-adv-x="2234" d="M133 1014q0 182 119 295q121 115 301 114q178 0 299 -114.5t121 -294.5t-121 -297q-121 -115 -299 -115q-180 0 -301 115q-119 117 -119 297zM360 1014q0 -84 56.5 -139.5t138.5 -55.5t137.5 55.5t55.5 139.5t-55.5 139t-137.5 55t-138.5 -55t-56.5 -139zM528 0l930 1393 h221l-929 -1393h-222zM1260 381q-1 182 118 295q121 115 301 115q178 0 299 -115t121 -295t-121 -297q-121 -115 -299 -115q-180 0 -301 115q-119 117 -118 297zM1487 381q0 -86 55 -141.5t137 -55.5t138.5 56.5t56.5 140.5t-56.5 138t-138.5 54t-137 -54t-55 -138z" />
<glyph unicode="&#x26;" horiz-adv-x="1511" d="M47 408q0 242 236 366q-84 121 -84 244q0 172 127 289q129 117 338 116q203 0 326.5 -116.5t139.5 -321.5h-311q-8 74 -46 115t-99 41q-57 0 -94 -36t-37 -95.5t41 -112.5q18 -25 159 -162l232 -225l147 242h338l-264 -437l-8 -14l309 -301h-426l-88 84 q-170 -115 -403 -115q-238 0 -387 121q-145 121 -146 318zM367 420q0 -72 63.5 -122t155.5 -50q86 0 176 43l-221 207l-78 73q-96 -61 -96 -151z" />
<glyph unicode="'" horiz-adv-x="397" d="M66 786v607h268v-607h-268z" />
<glyph unicode="(" horiz-adv-x="796" d="M90 596q0 514 438 915l228 -227q-164 -174 -240 -327.5t-76 -360.5q0 -205 76 -356q78 -154 240 -326l-228 -227q-438 401 -438 909z" />
<glyph unicode=")" horiz-adv-x="790" d="M41 -86q158 168 238 326q78 156 77.5 356.5t-78 360t-237.5 327.5l227 227q438 -401 439 -915q0 -508 -439 -909z" />
<glyph unicode="*" horiz-adv-x="843" d="M68 963l186 112l-186 113l86 149l182 -110v192h172v-192l182 110l86 -149l-186 -113l186 -112l-86 -148l-182 109v-197h-172v197l-182 -109z" />
<glyph unicode="+" horiz-adv-x="1370" d="M199 541v262h350v336h272v-336h353v-262h-353v-336h-272v336h-350z" />
<glyph unicode="," horiz-adv-x="479" d="M55 145q0 72 54.5 123t130.5 51q78 0 131 -50t53 -126q0 -66 -62 -170l-122 -204h-185l107 227q-106 45 -107 149z" />
<glyph unicode="-" horiz-adv-x="1134" d="M199 371v315h739v-315h-739z" />
<glyph unicode="." horiz-adv-x="481" d="M55 143q0 74 54.5 126.5t130.5 52.5q78 0 133 -52.5t55 -126.5q0 -76 -55 -128t-133 -52q-76 0 -130.5 52.5t-54.5 127.5z" />
<glyph unicode="/" horiz-adv-x="882" d="M66 -328l516 1823h317l-516 -1823h-317z" />
<glyph unicode="0" horiz-adv-x="1470" d="M90 696.5q0 323.5 174 524.5q174 203 471 202.5t471 -202.5q174 -201 174 -524.5t-174 -524.5q-174 -203 -471 -203t-471 203q-174 201 -174 524.5zM418 696.5q0 -186.5 84 -307.5q82 -119 233.5 -119t233.5 119q84 121 84 307.5t-84 307.5q-82 119 -233.5 118.5 t-233.5 -118.5q-84 -121 -84 -307.5z" />
<glyph unicode="1" horiz-adv-x="1087" d="M72 0v281h348v747l-328 -92v299l455 158h207v-1112h323v-281h-1005z" />
<glyph unicode="2" horiz-adv-x="1171" d="M66 952q4 211 133 342q133 129 364 129q233 0 371 -125q139 -123 139 -303q0 -96 -61 -194q-55 -90 -226 -295l-188 -225h489v-281h-993v164l424 514q10 12 47 55t45 55q66 80 68 84q39 63 39 111q0 59 -40 98t-112 39q-74 0 -118 -44t-52 -124h-329z" />
<glyph unicode="3" horiz-adv-x="1183" d="M68 408h323q18 -82 68.5 -121t146.5 -39q84 0 137.5 44t53.5 111q0 72 -57.5 116t-149.5 44h-121v254h121q82 0 132 44t50 116t-47 115q-45 43 -123 43t-129 -45q-49 -43 -55 -117h-322q12 199 146 319q133 119 352 119q221 0 352 -117q133 -117 133 -305 q0 -187 -139 -289q178 -98 178 -297q0 -190 -145 -313q-145 -121 -379 -121t-368 115t-158 324z" />
<glyph unicode="4" horiz-adv-x="1343" d="M66 246v215l378 932h332l-327 -858h325v383h326v-383h174v-289h-174v-246h-326v246h-708z" />
<glyph unicode="5" horiz-adv-x="1251" d="M76 408h325q45 -160 224 -160q96 0 157.5 55t61.5 141t-63.5 136.5t-174.5 50.5h-434l2 762h920v-295h-602l-3 -193h173q229 0 362 -127q135 -125 135 -327q0 -213 -147 -349q-150 -133 -387 -133q-236 0 -381 119q-147 121 -168 320z" />
<glyph unicode="6" d="M78 479q0 145 119 338l362 576h391l-266 -416q227 -12 372.5 -151.5t145.5 -340.5q0 -221 -158 -368q-156 -147 -405.5 -147.5t-405.5 147.5q-156 147 -155 362zM399 471q0 -90 68 -158q70 -68 172 -67q96 0 170 67q51 49 62.5 117t-13 127t-84 101t-135.5 40 q-102 -4 -164 -47l-8 -14q-68 -96 -68 -166z" />
<glyph unicode="7" horiz-adv-x="1073" d="M20 1083v310h1016v-195l-534 -1198h-377l491 1083h-596z" />
<glyph unicode="8" horiz-adv-x="1275" d="M76 403q0 225 221 336q-164 98 -164 283q0 178 141 289q139 113 363 112q225 0 364 -112q141 -111 142 -289q0 -181 -164 -283q223 -111 223 -336q0 -199 -151.5 -316.5t-413.5 -117.5q-260 0 -412 117q-150 119 -149 317zM428 426q0 -80 59.5 -133t149.5 -53t149 53 q47 41 57.5 97t-11 104.5t-74.5 81t-121 30.5q-92 -4 -150.5 -53t-58.5 -127zM446 1001.5q0 -73.5 53.5 -123t137.5 -49.5t138 49.5t54 123t-54 123t-138 49.5t-137.5 -49.5t-53.5 -123z" />
<glyph unicode="9" d="M76 907q0 221 157 369q156 147 406 147q246 0 403.5 -147.5t157.5 -362.5q0 -145 -119 -338l-362 -575h-391l266 416q-229 12 -375 151q-143 137 -143 340zM404.5 963.5q-11.5 -68.5 14 -128t85 -101.5t135.5 -40q103 4 164 47l8 15q68 96 68 166q0 90 -70 157 q-68 68 -170 68t-170 -70q-53 -45 -64.5 -113.5z" />
<glyph unicode=":" horiz-adv-x="481" d="M54.5 143q0.5 76 54.5 127q55 51 132.5 51.5t131.5 -51.5q55 -51 55 -127t-55 -129q-53 -51 -132 -51t-132 51q-55 53 -54.5 129zM55 840q0 74 54.5 125t130.5 51q78 0 133 -51.5t55 -124.5q0 -78 -54 -129.5t-134 -51.5q-76 0 -130.5 51.5t-54.5 129.5z" />
<glyph unicode=";" horiz-adv-x="481" d="M55 840q0 74 54.5 125t130.5 51q78 0 133 -51.5t55 -124.5q0 -78 -54 -129.5t-134 -51.5q-76 0 -130.5 51.5t-54.5 129.5zM57 145q0 72 54.5 123t130.5 51q78 0 131 -50t53 -126q0 -66 -61 -170l-123 -204h-185l107 227q-106 45 -107 149z" />
<glyph unicode="&#x3c;" horiz-adv-x="1083" d="M88 477v301l864 389v-301l-528 -237l528 -240v-301z" />
<glyph unicode="=" horiz-adv-x="1382" d="M199 315v263h987v-263h-987zM199 739v262h987v-262h-987z" />
<glyph unicode="&#x3e;" horiz-adv-x="1083" d="M129 88v301l528 240l-528 237v301l864 -389v-301z" />
<glyph unicode="?" horiz-adv-x="1103" d="M35 973q12 205 142 321.5t358 116.5q219 0 356 -125q141 -127 141 -325q0 -160 -105.5 -264.5t-289.5 -129.5l-10 -118h-252l-21 333h168q88 0 145.5 49.5t57.5 129.5q0 78 -49 126t-131 48t-132.5 -44t-56.5 -118h-321zM313.5 149.5q-0.5 73.5 51.5 122.5 q53 51 126.5 50.5t127 -50t53.5 -123t-53.5 -123t-127 -50.5t-126.5 51q-51 49 -51.5 122.5z" />
<glyph unicode="@" horiz-adv-x="2027" d="M109 496q-4 367 270 627.5t651 254.5q387 -6 635 -239q254 -240 254 -604q0 -223 -94 -350.5t-281 -127.5q-209 0 -299 133q-123 -129 -301 -129q-174 0 -293 123q-119 125 -119 310q0 186 119 307q119 125 293 125q133 0 234 -70v49h282v-495q0 -143 99 -144 q143 0 143 262q0 279 -189 461q-186 184 -477 185q-295 0 -501 -197q-205 -197 -205 -481.5t200 -481.5q203 -197 490 -196q252 0 438 149l119 -178q-238 -178 -555 -178q-379 0 -647 256q-260 248 -266 629zM811 494q0 -88 56.5 -142.5t136.5 -54.5q106 0 180 94 q-6 55 -6 111v100q-74 90 -174 90q-78 0 -135.5 -55t-57.5 -143z" />
<glyph unicode="A" horiz-adv-x="1562" d="M25 0l591 1401h332l590 -1401h-369l-94 240h-590l-92 -240h-368zM600 535h361l-181 462z" />
<glyph unicode="B" horiz-adv-x="1421" d="M123 0v1393h688q225 0 351 -99.5t126 -271.5q0 -102 -53 -188t-139 -117q119 -25 186.5 -116t67.5 -214q0 -178 -133.5 -282.5t-364.5 -104.5h-729zM469 287h336q100 0 153.5 39t53.5 106q0 129 -199 129h-344v-274zM469 825h287q96 0 149 40t53 110q0 135 -202 135h-287 v-285z" />
<glyph unicode="C" horiz-adv-x="1615" d="M90 696q0 313 211 518q213 207 526 207q285 0 473 -168q193 -168 226 -438h-357q-29 135 -118.5 209t-225.5 74q-170 0 -278 -115q-106 -113 -107 -287q0 -176 106.5 -288.5t278.5 -112.5q135 0 225.5 73.5t118.5 209.5h357q-33 -270 -226 -441q-190 -166 -473 -166 q-315 0 -526 205t-211 520z" />
<glyph unicode="D" horiz-adv-x="1509" d="M123 0v1393h559q328 0 541 -195q211 -193 211 -498q0 -309 -211 -505q-213 -195 -541 -195h-559zM469 311h213q170 0 285 111q114 114 114 275q0 165 -114 274q-112 110 -282 110h-3h-213v-770z" />
<glyph unicode="E" horiz-adv-x="1249" d="M123 0v1393h1053v-301h-707v-254h618v-295h-618v-242h707v-301h-1053z" />
<glyph unicode="F" horiz-adv-x="1193" d="M123 0v1393h1040v-306h-694v-294h598v-301h-598v-492h-346z" />
<glyph unicode="G" horiz-adv-x="1656" d="M90 682q0 326 211 530q211 209 533 209q264 0 458 -141q195 -139 238 -383h-365q-78 207 -323 207q-180 0 -291 -115q-111 -113 -111 -299q0 -170 111 -282q115 -115 293 -115q244 0 354 213l-399 4v272h745v-782h-258l-14 168q-160 -197 -441 -197q-324 0 -532 203 q-209 205 -209 508z" />
<glyph unicode="H" horiz-adv-x="1503" d="M123 0v1393h346v-559h567v559h344v-1393h-344v522h-567v-522h-346z" />
<glyph unicode="I" horiz-adv-x="591" d="M123 0v1393h346v-1393h-346z" />
<glyph unicode="J" horiz-adv-x="1275" d="M37 494h344q6 -98 67.5 -153.5t160 -55.5t155.5 72.5t57 199.5v836h353v-836q0 -281 -152 -434.5t-424 -153.5q-250 0 -399 137q-154 139 -162 388z" />
<glyph unicode="K" horiz-adv-x="1490" d="M123 0v1393h346v-633l555 633h410l-531 -611l576 -782h-422l-389 512l-199 -229v-283h-346z" />
<glyph unicode="L" horiz-adv-x="1198" d="M123 0v1393h346v-1088h688v-305h-1034z" />
<glyph unicode="M" horiz-adv-x="1748" d="M123 0v1393h258l493 -744l494 744h258v-1393h-346v698l-309 -477v-2h-193v2l-311 481l2 -702h-346z" />
<glyph unicode="N" horiz-adv-x="1525" d="M123 0v1393h264l672 -785v785h344v-1393h-266l-668 764v-764h-346z" />
<glyph unicode="O" horiz-adv-x="1654" d="M90 696q0 305 211 514q211 211 526 211q313 0 525 -211q213 -209 213 -514q0 -303 -213 -516q-213 -209 -525 -209q-315 0 -526 209q-211 211 -211 516zM440 696.5q0 -167.5 111 -286.5q111 -117 276.5 -117t276.5 117q111 118 111 285q0 168 -111 286 q-111 119 -276.5 119t-276.5 -119q-111 -117 -111 -284.5z" />
<glyph unicode="P" horiz-adv-x="1312" d="M123 0v1393h561q274 0 430 -138q160 -137 160 -372q0 -244 -166 -387q-166 -141 -451 -142h-188v-354h-346zM469 657h209q115 0 183.5 61.5t68.5 164.5q0 94 -68.5 149t-183.5 55h-209v-430z" />
<glyph unicode="Q" horiz-adv-x="1654" d="M90 696q0 305 211 514q211 211 526.5 211t526.5 -211q213 -209 213 -514q0 -324 -236 -538l219 -258l-245 -224l-275 322q-88 -27 -203 -27q-315 0 -526 209q-211 211 -211 516zM440 696q0 -168 111 -286q111 -117 276.5 -117t276.5 117q111 118 111 285q0 168 -111 286 q-111 119 -276.5 119t-276.5 -119q-111 -117 -111 -285z" />
<glyph unicode="R" horiz-adv-x="1435" d="M123 0v1393h608q262 0 420 -133.5t158 -356.5q0 -143 -70 -255.5t-197 -176.5l359 -471h-416l-301 403h-215v-403h-346zM469 715h256q104 0 171 52t67 136q0 82 -68 133t-170 51h-256v-372z" />
<glyph unicode="S" horiz-adv-x="1384" d="M82 463h346q16 -92 93 -144.5t200 -52.5q96 0 146.5 33t50.5 90q0 86 -148 119l-229 51q-207 47 -305.5 145.5t-98.5 264.5q0 207 152 329q151 125 401 125q195 0 367 -90q94 -51 155.5 -147t73.5 -225h-348q-31 176 -225 176q-92 0 -145.5 -37t-53.5 -103 q0 -53 38 -82.5t122 -48.5l194 -45q215 -49 317.5 -140t102.5 -257q0 -209 -158 -332q-158 -121 -419 -121q-256 0 -430 123q-178 127 -199 369z" />
<glyph unicode="T" horiz-adv-x="1327" d="M47 1083v310h1233v-310h-444v-1083h-344v1083h-445z" />
<glyph unicode="U" horiz-adv-x="1501" d="M102 649v744h349v-750q0 -160 80.5 -255t218 -95t219.5 95t82 255v750h348v-744q0 -322 -174 -502q-176 -178 -475 -178q-303 0 -475.5 178.5t-172.5 501.5z" />
<glyph unicode="V" horiz-adv-x="1597" d="M20 1393h381l398 -944l397 944h381l-602 -1401h-350z" />
<glyph unicode="W" horiz-adv-x="2211" d="M41 1393h367l260 -865l295 865h286l295 -865l260 865h367l-449 -1401h-336l-280 854l-281 -854h-333z" />
<glyph unicode="X" horiz-adv-x="1425" d="M16 0l465 686l-458 707h415l275 -430l274 430h416l-459 -707l465 -686h-395l-299 428l-301 -428h-398z" />
<glyph unicode="Y" horiz-adv-x="1472" d="M12 1393h383l340 -607l342 607h383l-549 -973v-420h-348v420z" />
<glyph unicode="Z" horiz-adv-x="1347" d="M70 0v164l690 923h-656v306h1160v-164l-662 -924h674v-305h-1206z" />
<glyph unicode="[" horiz-adv-x="784" d="M100 -301v1796h629v-309h-297v-1176h297v-311h-629z" />
<glyph unicode="\" horiz-adv-x="882" d="M25 1495h317l516 -1823h-317z" />
<glyph unicode="]" horiz-adv-x="784" d="M55 10h297v1176h-297v309h629v-1796h-629v311z" />
<glyph unicode="^" horiz-adv-x="897" d="M35 891l284 502h259l284 -502h-289l-124 252l-125 -252h-289z" />
<glyph unicode="_" horiz-adv-x="1271" d="M55 -186h1164v-281h-1164v281z" />
<glyph unicode="`" horiz-adv-x="1228" d="M317 1468h351l163 -327h-309z" />
<glyph unicode="a" d="M68 498q0 217 145 368q143 150 348 150q154 0 273 -76v53h331v-993h-331v55q-117 -75 -269 -75h-4q-205 0 -348 149q-145 152 -145 369zM393 497.5q0 -104.5 68 -175t168 -70.5q121 0 205 92v309q-84 92 -205 92q-100 0 -168 -71.5t-68 -176z" />
<glyph unicode="b" d="M113 0v1454h333v-516q119 74 271 74q205 0 348 -150q145 -150 145 -366q0 -219 -145 -371q-143 -150 -348 -150q-152 0 -271 74v-49h-333zM446 338q80 -90 205 -90q100 0 167 71.5t67 176.5q0 102 -68 174q-65 71 -163 71h-3q-123 0 -205 -92v-311z" />
<glyph unicode="c" horiz-adv-x="1187" d="M221 868q156 147 389 148q205 0 348 -121q143 -119 162 -309h-313q-12 68 -65.5 108.5t-129.5 40.5q-102 0 -164.5 -65.5t-62.5 -172t62.5 -173t164.5 -66.5q76 0 129.5 41t65.5 109h313q-18 -193 -162 -312q-139 -119 -348 -119q-236 0 -389 146q-153 142 -153 372 t153 373z" />
<glyph unicode="d" d="M68 496q0 217 145 366q143 150 348 150q154 0 273 -76v518h331v-1454h-331v51q-119 -76 -273 -76q-205 0 -348 150q-145 152 -145 371zM393 496q0 -104 68 -176t168 -72q121 0 205 92v309q-84 92 -205 92q-100 0 -168 -71.5t-68 -173.5z" />
<glyph unicode="e" horiz-adv-x="1173" d="M213 870q150 145 385 146q217 0 363 -139q143 -138 143 -359q0 -80 -6 -119h-707q47 -159 221 -159h2q104 0 152 71h330q-37 -154 -169 -244t-317 -90q-242 0 -393 146q-149 142 -149 372t145 375zM389 594h404q-27 166 -197 166q-166 0 -207 -166z" />
<glyph unicode="f" horiz-adv-x="931" d="M6 709v284h244v119q0 211 121 338q123 127 315 127q123 0 264 -37l-45 -276q-88 18 -151 18q-78 0 -125 -44t-47 -118v-127h350v-284h-350v-709h-332v709h-244z" />
<glyph unicode="g" horiz-adv-x="1286" d="M76 518q0 223 143 366.5t350 143.5q152 0 271 -74v39h331v-977q0 -229 -147 -360q-143 -131 -383 -131q-227 0 -376.5 118.5t-162.5 311.5h330q20 -150 207 -150q92 0 146.5 54.5t54.5 150.5v94q-117 -69 -267 -69h-4q-205 0 -348 141q-145 141 -145 342zM399 518 q0 -84 68 -151q72 -68 168 -68q123 0 205 92v275q-84 92 -205 92q-102 0 -169 -66.5t-67 -173.5z" />
<glyph unicode="h" horiz-adv-x="1241" d="M113 0v1454h333v-526q128 96 273 96q188 0 305 -125q117 -123 117 -332v-567h-332v514q0 102 -48 155.5t-134 53.5q-94 0 -181 -98v-625h-333z" />
<glyph unicode="i" horiz-adv-x="571" d="M90 1335q0 80 56.5 134.5t138.5 54.5q80 0 137 -54.5t57 -134.5t-57 -133t-137 -53q-82 0 -138.5 53t-56.5 133zM121 0v993h332v-993h-332z" />
<glyph unicode="j" horiz-adv-x="565" d="M-72 -135q106 10 145.5 47t39.5 125v956h333v-913q0 -244 -104 -365t-385 -127zM84 1335q0 80 57.5 134.5t137.5 54.5q82 0 138 -54.5t56 -134.5t-56 -133t-138 -53q-80 0 -137.5 53t-57.5 133z" />
<glyph unicode="k" horiz-adv-x="1224" d="M113 0v1454h333v-831l345 370h395l-377 -405l410 -588h-398l-237 344l-138 -147v-197h-333z" />
<glyph unicode="l" horiz-adv-x="559" d="M113 0v1454h333v-1454h-333z" />
<glyph unicode="m" horiz-adv-x="1867" d="M113 0v993h333v-57q100 88 244 88q190 0 307 -135q150 135 353 135q184 0 297 -125q115 -125 114 -332v-567h-331v514q0 209 -179 209q-84 0 -151 -82q4 -66 4 -74v-567h-332v514q0 209 -178 209q-82 0 -148 -86v-637h-333z" />
<glyph unicode="n" horiz-adv-x="1241" d="M113 0v993h333v-65q128 96 273 96q188 0 305 -125q117 -123 117 -332v-567h-332v514q0 102 -48 155.5t-134 53.5q-94 0 -181 -98v-625h-333z" />
<glyph unicode="o" horiz-adv-x="1214" d="M219 868q154 148 389.5 148t384.5 -148q152 -145 152 -370q0 -227 -152 -379q-150 -150 -385 -150q-238 0 -389 150q-151 151 -151 376q0 228 151 373zM383 496q0 -104 63.5 -172t162 -68t160.5 67.5t62 172.5q0 100 -62 166.5t-160.5 66.5t-162 -66.5t-63.5 -166.5z" />
<glyph unicode="p" d="M113 -461v1454h333v-51q119 74 271 74q205 0 348 -150q145 -152 145 -368.5t-145 -368.5q-142 -149 -345 -149h-3q-152 0 -271 73v-514h-333zM446 342q80 -90 205 -90q100 0 167 70.5t67 175t-66.5 176t-167.5 71.5q-123 0 -205 -92v-311z" />
<glyph unicode="q" d="M66 498q0 223 143 368q143 150 350 150q150 0 270 -74v51h332v-1454h-332v514q-119 -73 -266 -73h-4q-207 0 -350 149.5t-143 368.5zM389 497.5q0 -104.5 68 -175t168 -70.5q125 0 204 90v311q-84 92 -204 92q-100 0 -168 -71.5t-68 -176z" />
<glyph unicode="r" horiz-adv-x="839" d="M113 0v993h333v-106q143 123 342 123v-316q-223 -8 -342 -125v-569h-333z" />
<glyph unicode="s" horiz-adv-x="1067" d="M45 342l295 -2q20 -125 188 -125q66 0 105 18.5t39 51.5q0 53 -97 69l-200 35q-137 23 -215 99.5t-78 199.5q0 154 121 243t323 89q186 0 318 -82q135 -84 147 -262h-297q-10 110 -165 110h-3q-59 0 -92 -20.5t-33 -50.5q0 -59 105 -78l184 -31q311 -53 311 -301 q0 -164 -131 -250q-129 -86 -335 -86q-215 0 -345.5 94.5t-144.5 278.5z" />
<glyph unicode="t" horiz-adv-x="962" d="M14 709v284h195v338h332v-338h338v-284h-338v-285q0 -150 155 -150q49 0 176 25l37 -281q-156 -49 -301 -49q-182 0 -290.5 121t-108.5 324v295h-195z" />
<glyph unicode="u" horiz-adv-x="1241" d="M100 426v567h332v-516q0 -102 48 -155.5t134 -53.5q94 0 183 99v626h331v-993h-331v66q-127 -96 -273 -97q-190 0 -307 123t-117 334z" />
<glyph unicode="v" horiz-adv-x="1216" d="M20 993h351l237 -573l238 573h350l-430 -993h-315z" />
<glyph unicode="w" horiz-adv-x="1658" d="M27 993h348l153 -530l170 530h263l167 -528l156 528h346l-340 -993h-301l-160 516l-159 -516h-301z" />
<glyph unicode="x" horiz-adv-x="1163" d="M16 0l349 496l-349 497h379l187 -262l184 262h379l-348 -499l348 -494h-365l-198 285l-199 -285h-367z" />
<glyph unicode="y" horiz-adv-x="1312" d="M35 993h350l287 -612l258 612h348l-610 -1452h-351l189 447z" />
<glyph unicode="z" horiz-adv-x="1048" d="M61 0v162l467 555h-458v276h917v-176l-450 -543h450v-274h-926z" />
<glyph unicode="{" horiz-adv-x="753" d="M55 469v262q102 0 132 19.5t30 95.5v276q0 182 131 290t350 108v-310q-68 0 -108.5 -30.5t-40.5 -77.5v-240q0 -121 -32 -177t-126 -85q94 -29 126 -84t32 -172v-240q0 -47 41 -77.5t108 -30.5v-309q-219 0 -350 107.5t-131 289.5v270q0 76 -29.5 95.5t-132.5 19.5z" />
<glyph unicode="|" horiz-adv-x="675" d="M190 -328v1823h295v-1823h-295z" />
<glyph unicode="}" horiz-adv-x="774" d="M76 -4q68 0 108.5 30.5t40.5 77.5v240q0 117 32 172t126 84q-94 29 -126 85t-32 177v240q0 47 -41 77.5t-108 30.5v310q219 0 350 -107.5t131 -290.5v-276q0 -76 29.5 -95.5t132.5 -19.5v-262q-102 0 -132 -19.5t-30 -95.5v-270q0 -182 -131 -289.5t-350 -107.5v309z" />
<glyph unicode="~" horiz-adv-x="968" d="M31 539q0 121 46 204.5t114.5 115.5t145.5 30t140 -39l88 -51q92 -43 92 57h283q0 -123 -46 -208t-115.5 -116.5t-146.5 -29.5t-140 41l-86 53q-94 43 -95 -57h-280z" />
<glyph unicode="&#xa1;" horiz-adv-x="604" d="M123 850q0 74 51 123q53 51 127 50t127 -50t53 -123t-53 -123t-127 -50t-127 50q-51 49 -51 123zM127 -393l29 938h290l29 -938h-348z" />
<glyph unicode="&#xa2;" horiz-adv-x="1187" d="M68 498q0 195 112 327q111 135 299 176v240h269v-242q156 -35 256 -146.5t114 -266.5h-313q-12 68 -65.5 108.5t-129.5 40.5q-102 0 -164.5 -65.5t-62.5 -172t62.5 -173t164.5 -66.5q76 0 129.5 41t65.5 109h313q-14 -156 -114.5 -267.5t-255.5 -146.5v-207h-269v205 q-188 41 -299 176q-113 137 -112 330z" />
<glyph unicode="&#xa3;" horiz-adv-x="1263" d="M57 0v285h115v266h-115v258h115v113q0 225 143 360q145 135 379 135q221 0 361.5 -118.5t158.5 -323.5h-331q-14 74 -63.5 114.5t-125.5 40.5q-88 0 -140 -56t-52 -152v-113h372v-258h-372v-266h684v-285h-1129z" />
<glyph unicode="&#xa5;" horiz-adv-x="1472" d="M12 1393h383l340 -607l342 607h383l-418 -742h234v-215h-354l-11 -16v-70h365v-215h-365v-135h-348v135h-366v215h366v70l-10 16h-356v215h235z" />
<glyph unicode="&#xa6;" horiz-adv-x="675" d="M190 -328v807h295v-807h-295zM190 688v807h295v-807h-295z" />
<glyph unicode="&#xa7;" horiz-adv-x="1148" d="M55 590q0 176 144 264q-61 92 -62 203q0 162 121 258q123 98 320 98q205 0 334.5 -109.5t144.5 -297.5h-334q-4 61 -41 96t-98 35q-47 0 -77 -23.5t-30 -62.5q0 -66 82 -103l234 -104q158 -72 229.5 -155.5t71.5 -194.5q0 -178 -142 -267q59 -88 60 -200 q0 -162 -123 -260.5t-318 -98.5q-205 0 -335 110.5t-144 299.5h334q4 -61 41 -96t98 -35q47 0 77 23.5t30 62.5q0 66 -82 102l-234 103q-160 70 -230.5 153.5t-70.5 198.5zM365 612.5q0 -63.5 129 -118.5l235 -103q55 25 55 78q0 63 -129 119l-233 102q-57 -14 -57 -77.5z " />
<glyph unicode="&#xa8;" horiz-adv-x="1228" d="M192 1306q1 75 56 128q57 53 133 53t131 -53q53 -53 54 -128t-54 -128q-53 -51 -131 -51.5t-133 51.5q-57 53 -56 128zM661 1306q1 75 56 128q57 53 133 53t131 -53q53 -53 54 -128t-54 -128q-53 -51 -131 -51.5t-133 51.5q-57 53 -56 128z" />
<glyph unicode="&#xa9;" horiz-adv-x="1669" d="M90 696.5q0 309.5 219 518t526.5 208.5t526.5 -208.5t219 -518t-219 -518.5t-526.5 -209t-526.5 209t-219 518.5zM283 696.5q0 -227.5 164 -385t387 -157.5q225 0 388.5 157.5t163.5 385t-163.5 385t-388.5 157.5q-223 0 -387 -157.5t-164 -385zM494 694q0 141 96 238 q96 94 248 94q133 0 225 -76t108 -198h-217q-26 75 -116 75q-59 0 -96 -37.5t-37 -95t36.5 -95.5t96.5 -38q41 0 72.5 21.5t43.5 54.5h217q-16 -121 -110 -197q-90 -76 -223 -75q-152 0 -248 94q-96 96 -96 235z" />
<glyph unicode="&#xaa;" horiz-adv-x="743" d="M33 922q0 92 69.5 143t194.5 51h176q0 111 -100 111q-43 0 -71 -20.5t-30 -55.5h-213q2 121 90.5 186.5t223.5 65.5q143 0 230 -77t87 -210v-397h-217v24q-76 -37 -164 -36q-125 0 -200.5 58t-75.5 157zM244 942q0 -63 96 -63q70 0 133 39v67h-170q-59 0 -59 -43z" />
<glyph unicode="&#xab;" horiz-adv-x="995" d="M45 516l195 330h295l-195 -330l195 -330h-295zM461 516l194 330h295l-194 -330l194 -330h-295z" />
<glyph unicode="&#xad;" horiz-adv-x="1134" d="M199 371v315h739v-315h-739z" />
<glyph unicode="&#xae;" horiz-adv-x="1140" d="M47 907q0 217 152 363q154 147 370 147q215 0 369 -147.5t154 -362.5t-154 -362q-156 -145 -369 -145.5t-368 145.5q-154 147 -154 362zM202.5 907.5q-0.5 -149.5 108.5 -258.5q106 -106 258 -106t258 106q111 109 111 258.5t-111 257.5q-109 109 -258 109t-257.5 -108.5 t-109 -258zM403 715v413h185q82 0 130 -41.5t48 -111.5q0 -80 -72 -121l92 -139h-143l-70 112h-51v-112h-119zM522 928h64q57 0 57 49q0 47 -57 47h-64v-96z" />
<glyph unicode="&#xaf;" horiz-adv-x="1228" d="M322 1167v254h585v-254h-585z" />
<glyph unicode="&#xb0;" horiz-adv-x="946" d="M107 1067q0 154 104 256q106 100 262 100q158 0 260 -100q106 -100 106.5 -256t-106.5 -256q-102 -100 -260 -100q-156 0 -262 100q-104 102 -104 256zM328 1067q0 -59 43 -101t102 -42t102 42t43 101q0 61 -41.5 102t-103 41t-103.5 -41t-42 -102z" />
<glyph unicode="&#xb1;" horiz-adv-x="1370" d="M199 70v262h972v-262h-972zM199 664v262h350v254h272v-254h350v-262h-350v-252h-272v252h-350z" />
<glyph unicode="&#xb2;" horiz-adv-x="763" d="M66 1133q2 137 83.5 217t229.5 80q145 0 232 -74t87 -185q0 -59 -33.5 -122.5t-121.5 -165.5l-99 -115h263v-199h-637v117l284 320q59 66 78 93t19 54q0 29 -19.5 46.5t-52.5 17.5q-84 0 -88 -84h-225z" />
<glyph unicode="&#xb3;" horiz-adv-x="786" d="M59 834h230q23 -80 108 -80q43 0 70 20.5t27 52.5q0 74 -117 74h-68v180h68q102 0 102 76q0 74 -86 74q-78 0 -86 -82h-229q8 131 90 204.5t221 73.5q141 0 225 -72.5t84 -191.5q1 -103 -75 -166q100 -57 100 -174q0 -115 -92 -192q-88 -76 -238 -76q-143 0 -230 73.5 t-104 205.5z" />
<glyph unicode="&#xb4;" horiz-adv-x="1228" d="M446 1141l164 327h351l-205 -327h-310z" />
<glyph unicode="&#xb6;" horiz-adv-x="1576" d="M41 920q0 211 149.5 342t378.5 131h893v-1721h-299v1467h-145v-1467h-301v744h-148q-225 0 -376 139q-152 141 -152 365zM328 918q0 -106 66.5 -171t174.5 -65h148v457h-148q-109 0 -175 -60.5t-66 -160.5z" />
<glyph unicode="&#xb7;" horiz-adv-x="481" d="M55 565.5q0 73.5 54.5 125.5t130.5 52q78 0 133 -51t55 -127t-55 -127t-133 -51q-76 0 -130.5 52.5t-54.5 126z" />
<glyph unicode="&#xb8;" horiz-adv-x="1228" d="M393 -467l88 363h312l-123 -363h-277z" />
<glyph unicode="&#xb9;" horiz-adv-x="698" d="M51 575v199h209v393l-199 -55v211l289 94h137v-643h201v-199h-637z" />
<glyph unicode="&#xba;" horiz-adv-x="798" d="M41 1059q0 150 100 248q101 100 258.5 100t257.5 -100q100 -98 101 -248q0 -154 -101 -254q-100 -98 -258 -98t-258 100t-100 252zM254 1059q0 -68 39.5 -113t105.5 -45q63 0 103.5 45t40.5 113q0 63 -41 106t-103 43q-66 0 -105.5 -43t-39.5 -106z" />
<glyph unicode="&#xbb;" horiz-adv-x="995" d="M45 186l195 330l-195 330h295l195 -330l-195 -330h-295zM461 186l194 330l-194 330h295l194 -330l-194 -330h-295z" />
<glyph unicode="&#xbc;" horiz-adv-x="1951" d="M51 551v199h209v393l-199 -56v211l289 95h137v-643h201v-199h-637zM410 0l929 1393h222l-930 -1393h-221zM1139 139v154l225 549h235l-188 -498h154v191h233v-191h98v-205h-98v-139h-233v139h-426z" />
<glyph unicode="&#xbd;" horiz-adv-x="1910" d="M51 551v199h209v393l-199 -56v211l289 95h137v-643h201v-199h-637zM418 0l930 1393h221l-930 -1393h-221zM1212 563q2 137 84 217t230 80q145 0 232 -73.5t87 -184.5q0 -59 -33.5 -122.5t-121.5 -166.5l-99 -114h262v-199h-636v117l284 319q59 66 77.5 93.5t18.5 54.5 q0 29 -19 46t-52 17q-84 0 -88 -84h-226z" />
<glyph unicode="&#xbe;" horiz-adv-x="1923" d="M63 817h230q23 -80 108 -80q43 0 70 20.5t27 53.5q0 74 -117 74h-68v180h68q102 0 102 76q0 74 -86 73q-78 0 -86 -81h-229q8 131 90 204.5t221 73.5q141 0 225 -72.5t84 -191.5q0 -102 -75 -166q100 -57 100 -174q0 -115 -92 -193q-88 -75 -238 -75q-145 0 -231 73.5 t-103 204.5zM381 0l930 1393h223l-930 -1393h-223zM1110 139v154l225 549h238l-189 -498h154v191h234v-191h98v-205h-98v-139h-234v139h-428z" />
<glyph unicode="&#xbf;" horiz-adv-x="1103" d="M72 147q0 160 105.5 264.5t289.5 129.5l10 118h252l21 -333h-168q-88 0 -145.5 -49.5t-57.5 -129.5q0 -78 49 -126t131 -48q80 0 130 44t59 118h321q-12 -205 -142 -321.5t-358 -116.5q-219 0 -358 125q-139 127 -139 325zM430 958.5q0 73.5 53.5 122.5t127 49t127 -49 t53.5 -122.5t-53.5 -123t-127 -49.5t-127 49.5t-53.5 123z" />
<glyph unicode="&#xc0;" horiz-adv-x="1562" d="M25 0l591 1401h330l590 -1401h-367l-94 240h-590l-92 -240h-368zM449 1864h350l164 -328h-310zM600 535h361l-181 462z" />
<glyph unicode="&#xc1;" horiz-adv-x="1562" d="M25 0l591 1401h330l590 -1401h-367l-94 240h-590l-92 -240h-368zM600 535h361l-181 462zM629 1536l164 328h350l-205 -328h-309z" />
<glyph unicode="&#xc2;" horiz-adv-x="1562" d="M25 0l591 1401h330l590 -1401h-367l-94 240h-590l-92 -240h-368zM385 1536l240 336h313l238 -336h-289l-105 135l-108 -135h-289zM600 535h361l-181 462z" />
<glyph unicode="&#xc3;" horiz-adv-x="1562" d="M25 0l591 1401h330l590 -1401h-367l-94 240h-590l-92 -240h-368zM393 1552q0 106 40 178t100.5 100t126 25.5t120.5 -32.5l78 -45q82 -47 82 49h244q0 -106 -40 -179t-100.5 -100.5t-126 -26t-120.5 34.5l-78 46q-82 47 -82 -50h-244zM600 535h361l-181 462z" />
<glyph unicode="&#xc4;" horiz-adv-x="1562" d="M25 0l591 1401h330l590 -1401h-367l-94 240h-590l-92 -240h-368zM357.5 1701q0.5 75 56.5 128q57 51 133 51t131 -51q53 -53 54 -128t-54 -128q-53 -51 -131 -51t-133 51q-57 53 -56.5 128zM600 535h361l-181 462zM826.5 1701q0.5 75 56.5 128q57 51 133 51t131 -51 q53 -53 54 -128t-54 -128q-53 -51 -131 -51t-133 51q-57 53 -56.5 128z" />
<glyph unicode="&#xc5;" horiz-adv-x="1562" d="M25 0l591 1401h330l590 -1401h-367l-94 240h-590l-92 -240h-368zM526 1769q0 106 70 170q72 66 184 66q111 0 182.5 -65.5t71.5 -170.5q0 -106 -71.5 -171.5t-182.5 -65.5q-113 0 -184 65q-70 63 -70 172zM600 535h361l-181 462zM690 1769q-6 -55 42 -78.5t96.5 0 t41.5 78.5q6 53 -42 76t-96 0t-42 -76z" />
<glyph unicode="&#xc6;" horiz-adv-x="2285" d="M25 0l1034 1393h1151v-301h-707v-254h619v-295h-619v-242h707v-301h-1053v240h-543l-172 -240h-417zM827 535h330v456z" />
<glyph unicode="&#xc7;" horiz-adv-x="1615" d="M90 696q0 313 211 518q213 207 526 207q287 0 476 -168q190 -166 223 -438h-355q-29 135 -119.5 209t-226.5 74q-170 0 -278 -115q-106 -113 -107 -287q0 -176 106.5 -288.5t278.5 -112.5q135 0 226.5 73.5t119.5 209.5h355q-33 -272 -223 -441q-190 -166 -476 -166 q-315 0 -526 205t-211 520zM580 -467l88 363h311l-123 -363h-276z" />
<glyph unicode="&#xc8;" horiz-adv-x="1249" d="M123 0v1393h1053v-301h-707v-254h616v-295h-616v-242h707v-301h-1053zM305 1864h350l164 -328h-309z" />
<glyph unicode="&#xc9;" horiz-adv-x="1249" d="M123 0v1393h1053v-301h-707v-254h616v-295h-616v-242h707v-301h-1053zM487 1536l164 328h350l-204 -328h-310z" />
<glyph unicode="&#xca;" horiz-adv-x="1249" d="M123 0v1393h1053v-301h-707v-254h616v-295h-616v-242h707v-301h-1053zM242 1536l239 336h314l237 -336h-289l-104 135l-109 -135h-288z" />
<glyph unicode="&#xcb;" horiz-adv-x="1249" d="M123 0v1393h1053v-301h-707v-254h616v-295h-616v-242h707v-301h-1053zM214 1701q1 75 56 128q57 51 133 51t132 -51q53 -53 54 -128t-54 -128q-53 -51 -131 -51t-134 51q-57 53 -56 128zM683 1701q1 75 56 128q57 51 133 51t132 -51q53 -53 54 -128t-54 -128 q-53 -51 -131 -51t-134 51q-57 53 -56 128z" />
<glyph unicode="&#xcc;" horiz-adv-x="591" d="M-37 1863h351l163 -327h-309zM123 0v1393h346v-1393h-346z" />
<glyph unicode="&#xcd;" horiz-adv-x="591" d="M123 0v1393h346v-1393h-346zM143 1536l164 328h350l-204 -328h-310z" />
<glyph unicode="&#xce;" horiz-adv-x="591" d="M-100 1536l239 336h314l237 -336h-289l-104 135l-109 -135h-288zM123 0v1393h346v-1393h-346z" />
<glyph unicode="&#xcf;" horiz-adv-x="591" d="M-128 1701q1 75 56 128q57 51 133 51t132 -51q53 -53 54 -128t-54 -128q-53 -51 -131 -51t-134 51q-57 53 -56 128zM123 0v1393h346v-1393h-346zM341 1701q1 75 56 128q57 51 133 51t132 -51q53 -53 54 -128t-54 -128q-53 -51 -131 -51t-134 51q-57 53 -56 128z" />
<glyph unicode="&#xd0;" horiz-adv-x="1509" d="M14 537v299h109v557h561q326 0 539 -194.5t213 -498.5q0 -309 -213 -505q-213 -195 -539 -195h-561v537h-109zM469 311h215q172 0 285 111q115 115 114 278q0 162 -114 271q-115 111 -285 110h-215v-245h229v-299h-229v-226z" />
<glyph unicode="&#xd1;" horiz-adv-x="1525" d="M123 0v1393h264l672 -785v785h346v-1393h-268l-668 764v-764h-346zM375 1552q0 106 40 178t100 100t126 25.5t121 -32.5l78 -45q43 -20 62.5 -6t19.5 55h243q0 -106 -40 -179t-100 -100.5t-126 -26t-121 34.5l-78 46q-43 20 -62.5 5.5t-19.5 -55.5h-243z" />
<glyph unicode="&#xd2;" horiz-adv-x="1654" d="M90 696q0 305 211 514q211 211 526.5 211t526.5 -211q213 -209 213 -514q0 -303 -213 -516q-211 -209 -526.5 -209t-526.5 209q-211 211 -211 516zM440 696.5q0 -167.5 111 -286.5q111 -117 276.5 -117t276.5 117q111 119 110.5 286.5t-110.5 284.5q-111 119 -276.5 119 t-276.5 -119q-111 -117 -111 -284.5zM494 1864h350l164 -328h-310z" />
<glyph unicode="&#xd3;" horiz-adv-x="1654" d="M90 696q0 305 211 514q211 211 526.5 211t526.5 -211q213 -209 213 -514q0 -303 -213 -516q-211 -209 -526.5 -209t-526.5 209q-211 211 -211 516zM440 696.5q0 -167.5 111 -286.5q111 -117 276.5 -117t276.5 117q111 119 110.5 286.5t-110.5 284.5q-111 119 -276.5 119 t-276.5 -119q-111 -117 -111 -284.5zM676 1536l164 328h350l-205 -328h-309z" />
<glyph unicode="&#xd4;" horiz-adv-x="1654" d="M90 696q0 305 211 514q211 211 526.5 211t526.5 -211q213 -209 213 -514q0 -303 -213 -516q-211 -209 -526.5 -209t-526.5 209q-211 211 -211 516zM430 1536l240 336h313l238 -336h-289l-105 135l-108 -135h-289zM440 696.5q0 -167.5 111 -286.5q111 -117 276.5 -117 t276.5 117q111 119 110.5 286.5t-110.5 284.5q-111 119 -276.5 119t-276.5 -119q-111 -117 -111 -284.5z" />
<glyph unicode="&#xd5;" horiz-adv-x="1654" d="M90 696q0 305 211 514q211 211 526.5 211t526.5 -211q213 -209 213 -514q0 -303 -213 -516q-211 -209 -526.5 -209t-526.5 209q-211 211 -211 516zM438 1552q0 106 40 178t100.5 100t126 25.5t120.5 -32.5l78 -45q82 -47 82 49h244q0 -106 -40 -179t-100.5 -100.5 t-126 -25.5t-120.5 34l-78 46q-82 47 -82 -50h-244zM440 696.5q0 -167.5 111 -286.5q111 -117 276.5 -117t276.5 117q111 119 110.5 286.5t-110.5 284.5q-111 119 -276.5 119t-276.5 -119q-111 -117 -111 -284.5z" />
<glyph unicode="&#xd6;" horiz-adv-x="1654" d="M90 696q0 305 211 514q211 211 526.5 211t526.5 -211q213 -209 213 -514q0 -303 -213 -516q-211 -209 -526.5 -209t-526.5 209q-211 211 -211 516zM403 1701q1 75 56 128q57 51 133 51t131 -51q53 -53 54 -128t-54 -128q-53 -51 -131 -51t-133 51q-57 53 -56 128z M440 696.5q0 -167.5 111 -286.5q111 -117 276.5 -117t276.5 117q111 119 110.5 286.5t-110.5 284.5q-111 119 -276.5 119t-276.5 -119q-111 -117 -111 -284.5zM872 1701q1 75 56 128q57 51 133 51t131 -51q53 -53 54 -128t-54 -128q-53 -51 -131 -51t-133 51q-57 53 -56 128 z" />
<glyph unicode="&#xd7;" horiz-adv-x="1339" d="M199 375l284 284l-284 285l186 186l285 -284l284 284l187 -186l-285 -285l285 -284l-187 -187l-284 285l-285 -285z" />
<glyph unicode="&#xd8;" horiz-adv-x="1654" d="M90 696q0 305 211 514q211 211 526 211q209 0 383 -100l88 106l160 -133l-86 -102q195 -207 195 -496q0 -303 -213 -516q-211 -209 -527 -209q-209 0 -391 105l-98 -117l-160 133l98 117q-186 201 -186 487zM440 696q0 -119 62 -219l491 586q-74 37 -166 37 q-166 0 -276 -119q-111 -117 -111 -285zM653 334q78 -41 174 -41q166 0 277 117q111 119 110 286q0 123 -65 230z" />
<glyph unicode="&#xd9;" horiz-adv-x="1501" d="M102 649v744h349v-750q0 -160 80.5 -255t218 -95t219.5 95t82 255v750h348v-744q0 -322 -174 -502q-176 -178 -475 -178q-303 0 -475.5 178.5t-172.5 501.5zM418 1864h350l164 -328h-309z" />
<glyph unicode="&#xda;" horiz-adv-x="1501" d="M102 649v744h349v-750q0 -160 80.5 -255t218 -95t219.5 95t82 255v750h348v-744q0 -322 -174 -502q-176 -178 -475 -178q-303 0 -475.5 178.5t-172.5 501.5zM600 1536l164 328h350l-205 -328h-309z" />
<glyph unicode="&#xdb;" horiz-adv-x="1501" d="M102 649v744h349v-750q0 -160 80.5 -255t218 -95t219.5 95t82 255v750h348v-744q0 -322 -174 -502q-176 -178 -475 -178q-303 0 -475.5 178.5t-172.5 501.5zM354 1536l240 335h313l238 -335h-289l-105 135l-108 -135h-289z" />
<glyph unicode="&#xdc;" horiz-adv-x="1501" d="M102 649v744h349v-750q0 -160 80.5 -255t218 -95t219.5 95t82 255v750h348v-744q0 -322 -174 -502q-176 -178 -475 -178q-303 0 -475.5 178.5t-172.5 501.5zM327 1701q1 75 56 128q57 51 133 51t131 -51q53 -53 54 -128t-54 -128q-53 -51 -131 -51t-133 51 q-57 53 -56 128zM796 1701q1 75 56 128q57 51 133 51t131 -51q53 -53 54 -128t-54 -128q-53 -51 -131 -51t-133 51q-57 53 -56 128z" />
<glyph unicode="&#xdd;" horiz-adv-x="1472" d="M12 1393h383l340 -607l342 607h383l-549 -973v-420h-348v420zM586 1536l164 328h350l-205 -328h-309z" />
<glyph unicode="&#xde;" horiz-adv-x="1312" d="M123 0v1393h346v-176h215q274 0 430 -138q160 -139 160 -372q0 -244 -166 -388q-166 -141 -451 -141h-188v-178h-346zM469 481h209q115 0 183.5 61.5t68.5 164.5q0 94 -68.5 149t-183.5 55h-209v-430z" />
<glyph unicode="&#xdf;" horiz-adv-x="1402" d="M113 0v1092q0 215 135 344t356 129v-314q-72 0 -116 -43t-44 -116v-99h832v-188l-256 -332q158 -39 248 -148.5t90 -267.5q0 -213 -147.5 -350t-391.5 -137q-184 0 -344 51v285q168 -49 307 -49q113 0 174.5 53t61.5 141q0 78 -53.5 125t-145.5 47h-215v146l244 329h-404 v-698h-331z" />
<glyph unicode="&#xe0;" d="M68 498q0 217 145 368q143 150 348 150q154 0 273 -76v53h331v-993h-331v55q-119 -76 -273 -75q-205 0 -348 149q-145 152 -145 369zM315 1468h351l163 -327h-309zM393 497.5q0 -104.5 67 -175t167 -70.5q127 0 207 92v307q-80 94 -207 94q-100 0 -167 -71.5t-67 -176z " />
<glyph unicode="&#xe1;" d="M68 498q0 217 145 368q143 150 348 150q154 0 273 -76v53h331v-993h-331v55q-119 -76 -273 -75q-205 0 -348 149q-145 152 -145 369zM393 497.5q0 -104.5 67 -175t167 -70.5q127 0 207 92v307q-80 94 -207 94q-100 0 -167 -71.5t-67 -176zM512 1141l164 327h350 l-205 -327h-309z" />
<glyph unicode="&#xe2;" d="M68 498q0 217 145 368q143 150 348 150q154 0 273 -76v53h331v-993h-331v55q-119 -76 -273 -75q-205 0 -348 149q-145 152 -145 369zM266 1126l240 336h313l238 -336h-289l-104 136l-109 -136h-289zM393 497.5q0 -104.5 67 -175t167 -70.5q127 0 207 92v307 q-80 94 -207 94q-100 0 -167 -71.5t-67 -176z" />
<glyph unicode="&#xe3;" d="M68 498q0 217 145 368q143 150 348 150q154 0 273 -76v53h331v-993h-331v55q-119 -76 -273 -75q-205 0 -348 149q-145 152 -145 369zM274 1169q0 106 40 178t100.5 100t126 25.5t121.5 -32.5l77 -45q82 -47 82 49h244q0 -106 -40 -179t-100.5 -100.5t-126 -25.5 t-120.5 35l-78 45q-82 47 -82 -50h-244zM393 497.5q0 -104.5 67 -175t167 -70.5q127 0 207 92v307q-80 94 -207 94q-100 0 -167 -71.5t-67 -176z" />
<glyph unicode="&#xe4;" d="M68 498q0 217 145 368q143 150 348 150q154 0 273 -76v53h331v-993h-331v55q-119 -76 -273 -75q-205 0 -348 149q-145 152 -145 369zM241 1305.5q1 74.5 56 128.5q57 53 133 53t131 -53q53 -53 54 -128t-54 -128q-53 -51 -131 -51.5t-133 51.5q-57 53 -56 127.5z M393 497.5q0 -104.5 67 -175t167 -70.5q127 0 207 92v307q-80 94 -207 94q-100 0 -167 -71.5t-67 -176zM710 1305.5q1 74.5 56 128.5q57 53 133 53t131 -53q53 -53 54 -128t-54 -128q-53 -51 -131 -51.5t-133 51.5q-57 53 -56 127.5z" />
<glyph unicode="&#xe5;" d="M68 498q0 217 145 368q143 150 348 150q154 0 273 -76v53h331v-993h-331v55q-119 -76 -273 -75q-205 0 -348 149q-145 152 -145 369zM393 497.5q0 -104.5 67 -175t167 -70.5q127 0 207 92v307q-80 94 -207 94q-100 0 -167 -71.5t-67 -176zM410 1360q0 106 69 170 q72 66 185 65q111 0 182.5 -65.5t71.5 -169.5q0 -107 -72 -172.5t-182 -65.5q-113 0 -185 66q-70 63 -69 172zM573 1360q-6 -55 42.5 -79t96.5 0t42 79q6 53 -42 75.5t-96.5 0t-42.5 -75.5z" />
<glyph unicode="&#xe6;" horiz-adv-x="1828" d="M57 301q0 139 105.5 216t292.5 77h274q0 170 -158 170q-63 0 -105 -31t-50 -84h-316q8 184 144 279q137 96 338 96q207 0 329 -117q143 109 342 109q217 0 363 -139q143 -138 143 -359q0 -80 -6 -119h-706q47 -160 223 -159q104 0 151 71h330q-37 -154 -169 -244 t-316 -90q-254 0 -404 156q-182 -152 -389 -151q-190 0 -303 86t-113 233zM369 332q0 -41 39.5 -70t109.5 -29q113 0 236 80q-16 47 -23 86h-266q-43 0 -69.5 -18.5t-26.5 -48.5zM1044 594h404q-27 166 -197 166q-166 0 -207 -166z" />
<glyph unicode="&#xe7;" horiz-adv-x="1187" d="M67.5 497.5q0.5 227.5 153.5 370.5q154 147 389 148q205 0 348 -121q145 -121 160 -309h-313q-12 68 -65.5 108.5t-129.5 40.5q-102 0 -164.5 -65.5t-62.5 -172t62.5 -173t164.5 -66.5q76 0 129.5 41t65.5 109h313q-16 -193 -160 -312q-139 -119 -348 -119 q-233 0 -389 146q-154 147 -153.5 374.5zM365 -467l88 363h311l-123 -363h-276z" />
<glyph unicode="&#xe8;" horiz-adv-x="1173" d="M68 498q0 227 145 372q150 145 383 146q217 0 362.5 -139.5t145.5 -358.5q0 -76 -6 -112l2 -7h-709q47 -160 223 -159q104 0 152 71h328q-33 -154 -168 -243q-133 -90 -316 -91q-242 0 -393 146q-150 143 -149 375zM250 1468h350l164 -327h-309zM387 594h406 q-27 166 -197 166t-209 -166z" />
<glyph unicode="&#xe9;" horiz-adv-x="1173" d="M68 498q0 227 145 372q150 145 383 146q217 0 362.5 -139.5t145.5 -358.5q0 -76 -6 -112l2 -7h-709q47 -160 223 -159q104 0 152 71h328q-33 -154 -168 -243q-133 -90 -316 -91q-242 0 -393 146q-150 143 -149 375zM387 594h406q-27 166 -197 166t-209 -166zM446 1141 l164 327h351l-205 -327h-310z" />
<glyph unicode="&#xea;" horiz-adv-x="1173" d="M68 498q0 227 145 372q150 145 383 146q217 0 362.5 -139.5t145.5 -358.5q0 -76 -6 -112l2 -7h-709q47 -160 223 -159q104 0 152 71h328q-33 -154 -168 -243q-133 -90 -316 -91q-242 0 -393 146q-150 143 -149 375zM201 1126l239 336h314l237 -336h-289l-104 136 l-109 -136h-288zM387 594h406q-27 166 -197 166t-209 -166z" />
<glyph unicode="&#xeb;" horiz-adv-x="1173" d="M68 498q0 227 145 372q150 145 383 146q217 0 362.5 -139.5t145.5 -358.5q0 -76 -6 -112l2 -7h-709q47 -160 223 -159q104 0 152 71h328q-33 -154 -168 -243q-133 -90 -316 -91q-242 0 -393 146q-150 143 -149 375zM175 1305.5q1 74.5 56 128.5q57 53 133 53t132 -53 q53 -53 54 -128t-54 -128q-53 -51 -131 -51.5t-134 51.5q-57 53 -56 127.5zM387 594h406q-27 166 -197 166t-209 -166zM644 1305.5q1 74.5 56 128.5q57 53 133 53t132 -53q53 -53 54 -128t-54 -128q-53 -51 -131 -51.5t-134 51.5q-57 53 -56 127.5z" />
<glyph unicode="&#xec;" horiz-adv-x="571" d="M-62 1468h351l163 -327h-309zM121 0v993h332v-993h-332z" />
<glyph unicode="&#xed;" horiz-adv-x="571" d="M121 0v993h332v-993h-332zM135 1141l164 327h350l-205 -327h-309z" />
<glyph unicode="&#xee;" horiz-adv-x="571" d="M-111 1126l240 336h313l238 -336h-289l-104 136l-109 -136h-289zM121 0v993h332v-993h-332z" />
<glyph unicode="&#xef;" horiz-adv-x="571" d="M-136 1306q1 75 56 128q57 53 133 53t131 -53q53 -53 54.5 -128t-54.5 -128q-53 -51 -131 -51.5t-133 51.5q-57 53 -56 128zM121 0v993h332v-993h-332zM333 1306q1 75 56 128q57 53 133 53t131 -53q53 -53 54.5 -128t-54.5 -128q-53 -51 -131 -51.5t-133 51.5 q-57 53 -56 128z" />
<glyph unicode="&#xf0;" horiz-adv-x="1214" d="M68 498q0 225 151 370q154 147 389 148q43 0 82 -6q-51 68 -117 123l-303 -109l-69 180l176 64q-57 37 -176 94l286 125q106 -51 191 -109l211 76l69 -182l-110 -41q297 -309 297 -733q0 -227 -152 -379q-150 -150 -385 -150q-238 0 -389 150q-152 152 -151 379zM383 496 q0 -104 63.5 -172t162 -68t160.5 67.5t62 172.5q0 100 -62 166.5t-160.5 66.5t-162 -66.5t-63.5 -166.5z" />
<glyph unicode="&#xf1;" horiz-adv-x="1241" d="M113 0v993h331v-67q123 98 275 98q190 0 307 -123t117 -334v-567h-334v514q0 102 -47 155.5t-133 53.5q-96 0 -185 -100v-623h-331zM233 1169q0 106 40 178t100.5 100t126 25.5t121.5 -32.5l77 -45q82 -47 82 49h244q0 -106 -40 -179t-100.5 -100.5t-126 -25.5t-120.5 35 l-78 45q-82 47 -82 -50h-244z" />
<glyph unicode="&#xf2;" horiz-adv-x="1214" d="M68 498q0 225 151 370q150 147 387.5 147.5t386.5 -147.5q152 -145 152 -370q0 -227 -154 -379q-150 -150 -385 -150t-387 150q-152 152 -151 379zM260 1468h350l164 -327h-309zM383 496q0 -104 63.5 -172t162 -68t160.5 67.5t62 172.5q0 100 -62 166.5t-160.5 66.5 t-162 -66.5t-63.5 -166.5z" />
<glyph unicode="&#xf3;" horiz-adv-x="1214" d="M68 498q0 225 151 370q150 147 387.5 147.5t386.5 -147.5q152 -145 152 -370q0 -227 -154 -379q-150 -150 -385 -150t-387 150q-152 152 -151 379zM383 496q0 -104 63.5 -172t162 -68t160.5 67.5t62 172.5q0 100 -62 166.5t-160.5 66.5t-162 -66.5t-63.5 -166.5z M457 1141l164 327h350l-205 -327h-309z" />
<glyph unicode="&#xf4;" horiz-adv-x="1214" d="M68 498q0 225 151 370q150 147 387.5 147.5t386.5 -147.5q152 -145 152 -370q0 -227 -154 -379q-150 -150 -385 -150t-387 150q-152 152 -151 379zM211 1126l240 336h313l237 -336h-288l-105 136l-108 -136h-289zM383 496q0 -104 63.5 -172t162 -68t160.5 67.5t62 172.5 q0 100 -62 166.5t-160.5 66.5t-162 -66.5t-63.5 -166.5z" />
<glyph unicode="&#xf5;" horiz-adv-x="1214" d="M68 498q0 225 151 370q150 147 387.5 147.5t386.5 -147.5q152 -145 152 -370q0 -227 -154 -379q-150 -150 -385 -150t-387 150q-152 152 -151 379zM219 1169q0 106 40 178t100.5 100t126 25.5t120.5 -32.5l78 -45q43 -23 62.5 -7.5t19.5 56.5h244q0 -106 -40 -179 t-100.5 -100.5t-126 -25.5t-120.5 35l-78 45q-43 23 -62.5 7t-19.5 -57h-244zM383 496q0 -104 63.5 -172t162 -68t160.5 67.5t62 172.5q0 100 -62 166.5t-160.5 66.5t-162 -66.5t-63.5 -166.5z" />
<glyph unicode="&#xf6;" horiz-adv-x="1214" d="M68 498q0 225 151 370q150 147 387.5 147.5t386.5 -147.5q152 -145 152 -370q0 -227 -154 -379q-150 -150 -385 -150t-387 150q-152 152 -151 379zM186 1306q1 75 56 128q57 53 133 53t131 -53q53 -53 54 -128t-54 -128q-53 -51 -131 -51.5t-133 51.5q-57 53 -56 128z M383 496q0 -104 63.5 -172t162 -68t160.5 67.5t62 172.5q0 100 -62 166.5t-160.5 66.5t-162 -66.5t-63.5 -166.5zM655 1306q1 75 56 128q57 53 133 53t131 -53q53 -53 54 -128t-54 -128q-53 -51 -131 -51.5t-133 51.5q-57 53 -56 128z" />
<glyph unicode="&#xf7;" horiz-adv-x="1396" d="M199 541v262h999v-262h-999zM526 271.5q0 70.5 49 117.5q51 49 123 49t123 -49q51 -47 51 -116.5t-51 -118.5q-51 -47 -122.5 -48.5t-123.5 48.5q-49 47 -49 117.5zM526 1080.5q0 70.5 49 117.5q51 49 123 49t123 -49q51 -47 51 -116.5t-51 -118.5q-51 -47 -122.5 -48.5 t-123.5 48.5q-49 47 -49 117.5z" />
<glyph unicode="&#xf8;" horiz-adv-x="1214" d="M68 498q0 225 151 370q150 147 387 148q154 0 275 -66l57 70l127 -105l-53 -65q133 -145 133 -352q0 -227 -154 -379q-150 -150 -385 -150q-158 0 -278 70l-62 -74l-127 105l60 71q-131 145 -131 357zM383 496q0 -53 23 -109l278 330q-37 12 -76 12q-98 0 -161.5 -66.5 t-63.5 -166.5zM524 272q43 -16 84 -16q98 0 160.5 67.5t62.5 172.5q0 61 -24 112z" />
<glyph unicode="&#xf9;" horiz-adv-x="1241" d="M100 426v567h332v-516q0 -102 48 -155.5t134 -53.5q94 0 183 99v626h331v-993h-331v66q-127 -96 -273 -97q-190 0 -307 123t-117 334zM274 1468h351l163 -327h-309z" />
<glyph unicode="&#xfa;" horiz-adv-x="1241" d="M100 426v567h332v-516q0 -102 48 -155.5t134 -53.5q94 0 183 99v626h331v-993h-331v66q-127 -96 -273 -97q-190 0 -307 123t-117 334zM471 1141l164 327h350l-205 -327h-309z" />
<glyph unicode="&#xfb;" horiz-adv-x="1241" d="M100 426v567h332v-516q0 -102 48 -155.5t134 -53.5q94 0 183 99v626h331v-993h-331v66q-127 -96 -273 -97q-190 0 -307 123t-117 334zM225 1126l240 336h313l238 -336h-289l-104 136l-109 -136h-289z" />
<glyph unicode="&#xfc;" horiz-adv-x="1241" d="M100 426v567h332v-516q0 -102 48 -155.5t134 -53.5q94 0 183 99v626h331v-993h-331v66q-127 -96 -273 -97q-190 0 -307 123t-117 334zM200 1305.5q1 74.5 56 128.5q57 53 133 53t131 -53q53 -53 54 -128t-54 -128q-53 -51 -131 -51.5t-133 51.5q-57 53 -56 127.5z M669 1305.5q1 74.5 56 128.5q57 53 133 53t131 -53q53 -53 54 -128t-54 -128q-53 -51 -131 -51.5t-133 51.5q-57 53 -56 127.5z" />
<glyph unicode="&#xfd;" horiz-adv-x="1312" d="M35 993h352l285 -612l258 612h348l-612 -1452h-349l189 447zM510 1141l164 327h350l-205 -327h-309z" />
<glyph unicode="&#xfe;" horiz-adv-x="1265" d="M113 -461v1854h333v-451q119 74 271 74q205 0 348 -150q145 -152 145 -368.5t-145 -368.5q-143 -150 -348 -149q-152 0 -271 73v-514h-333zM446 342q80 -90 205 -90q100 0 167 70.5t67 175t-66.5 176t-167.5 71.5q-123 0 -205 -92v-311z" />
<glyph unicode="&#xff;" horiz-adv-x="1312" d="M35 993h352l285 -612l258 612h348l-612 -1452h-349l189 447zM239 1305.5q1 74.5 56 128.5q57 53 133 53t131 -53q53 -53 54 -128t-54 -128q-53 -51 -131 -51.5t-133 51.5q-57 53 -56 127.5zM708 1305.5q1 74.5 56 128.5q57 53 133 53t131 -53q53 -53 54 -128t-54 -128 q-53 -51 -131 -51.5t-133 51.5q-57 53 -56 127.5z" />
<glyph unicode="&#x152;" horiz-adv-x="2019" d="M49 696q0 307 215 500q215 197 551 197h1129v-301h-707v-254h618v-295h-618v-242h707v-301h-1129q-334 0 -551 195q-215 197 -215 501zM399 696q0 -166 113 -270q115 -102 303 -102h76v745h-76q-188 0 -303 -104q-113 -100 -113 -269z" />
<glyph unicode="&#x153;" horiz-adv-x="1937" d="M68 498q0 225 151 370q150 147 387 148q227 0 379 -139q145 139 377 139q217 0 362 -139q144 -138 144 -359q0 -66 -4 -119h-707q47 -160 221 -159q106 0 154 71h328q-33 -154 -168 -243q-133 -90 -316 -91q-236 0 -387 140q-150 -147 -383 -148q-236 0 -387 150 q-152 152 -151 379zM383 496q0 -104 63.5 -172t162 -68t160.5 67.5t62 172.5q0 100 -62 166.5t-160.5 66.5t-162 -66.5t-63.5 -166.5zM1153 594h406q-27 166 -199 166q-168 0 -207 -166z" />
<glyph unicode="&#x178;" horiz-adv-x="1472" d="M12 1393h383l340 -607l342 607h383l-549 -973v-420h-348v420zM312.5 1701q0.5 75 56.5 128q57 51 133 51t131 -51q53 -53 54 -128t-54 -128q-53 -51 -131 -51t-133 51q-57 53 -56.5 128zM781.5 1701q0.5 75 56.5 128q57 51 133 51t131 -51q53 -53 54 -128t-54 -128 q-53 -51 -131 -51t-133 51q-57 53 -56.5 128z" />
<glyph unicode="&#x2c6;" horiz-adv-x="1228" d="M219 1133l240 335h313l238 -335h-289l-105 135l-108 -135h-289z" />
<glyph unicode="&#x2dc;" horiz-adv-x="1228" d="M227 1169q0 106 40 178t100.5 100t126 25.5t120.5 -32.5l78 -45q43 -23 62.5 -7.5t19.5 56.5h244q0 -106 -40 -179t-100.5 -100.5t-126 -25.5t-120.5 35l-78 45q-43 23 -62.5 7t-19.5 -57h-244z" />
<glyph unicode="&#x2000;" horiz-adv-x="1002" />
<glyph unicode="&#x2001;" horiz-adv-x="2005" />
<glyph unicode="&#x2002;" horiz-adv-x="1002" />
<glyph unicode="&#x2003;" horiz-adv-x="2005" />
<glyph unicode="&#x2004;" horiz-adv-x="668" />
<glyph unicode="&#x2005;" horiz-adv-x="501" />
<glyph unicode="&#x2006;" horiz-adv-x="334" />
<glyph unicode="&#x2007;" horiz-adv-x="334" />
<glyph unicode="&#x2008;" horiz-adv-x="250" />
<glyph unicode="&#x2009;" horiz-adv-x="401" />
<glyph unicode="&#x200a;" horiz-adv-x="111" />
<glyph unicode="&#x2010;" horiz-adv-x="1134" d="M199 371v315h739v-315h-739z" />
<glyph unicode="&#x2011;" horiz-adv-x="1134" d="M199 371v315h739v-315h-739z" />
<glyph unicode="&#x2012;" horiz-adv-x="1134" d="M199 371v315h739v-315h-739z" />
<glyph unicode="&#x2013;" horiz-adv-x="1413" d="M199 373v317h1018v-317h-1018z" />
<glyph unicode="&#x2014;" horiz-adv-x="2189" d="M199 373v317h1792v-317h-1792z" />
<glyph unicode="&#x2018;" horiz-adv-x="479" d="M55 1016q0 68 62 170l123 205h184l-107 -228q106 -45 107 -147q0 -74 -53.5 -125t-131 -51t-131 51t-53.5 125z" />
<glyph unicode="&#x2019;" horiz-adv-x="479" d="M55 864l107 228q-106 45 -107 147q0 74 53.5 125t131 51t131 -51t53.5 -125q0 -68 -62 -170l-122 -205h-185z" />
<glyph unicode="&#x201a;" horiz-adv-x="479" d="M55 145q0 72 54.5 123t130.5 51q78 0 131 -50t53 -126q0 -66 -62 -170l-122 -204h-185l107 227q-106 45 -107 149z" />
<glyph unicode="&#x201c;" horiz-adv-x="903" d="M55 1016q0 68 62 170l123 205h184l-107 -228q106 -45 107 -147q0 -74 -53.5 -125t-131 -51t-131 51t-53.5 125zM477 1016q0 63 64 170l123 205h184l-107 -228q104 -45 105 -147q0 -74 -53.5 -125t-128.5 -51q-78 0 -132.5 51t-54.5 125z" />
<glyph unicode="&#x201d;" horiz-adv-x="903" d="M55 864l107 228q-106 45 -107 147q0 74 53.5 125t131 51t131 -51t53.5 -125q0 -68 -62 -170l-122 -205h-185zM479 864l105 228q-104 47 -105 147q0 74 53.5 125t131 51t131 -51t53.5 -125q0 -39 -11.5 -69.5t-52.5 -100.5l-120 -205h-185z" />
<glyph unicode="&#x201e;" horiz-adv-x="907" d="M55 145q0 72 54.5 123t130.5 51q78 0 131 -50t53 -126q0 -66 -62 -170l-122 -204h-185l107 227q-106 45 -107 149zM483 145q0 72 54.5 123t130.5 51q78 0 131 -50t53 -126q0 -66 -61 -170l-123 -204h-185l107 227q-106 45 -107 149z" />
<glyph unicode="&#x2022;" horiz-adv-x="733" d="M55 608q0 125 92.5 217.5t217.5 92.5q127 0 219 -93q94 -92 94 -217t-94 -217q-92 -92 -219 -92q-125 0 -217.5 92t-92.5 217z" />
<glyph unicode="&#x2026;" horiz-adv-x="1513" d="M54.5 143q0.5 76 54.5 127q55 51 132.5 51.5t131.5 -51.5q55 -51 55 -127t-55 -129q-53 -51 -132 -51t-132 51q-55 53 -54.5 129zM567 143q0 74 54.5 126.5t130.5 52.5q78 0 133 -52.5t55 -126.5q0 -76 -55 -128t-133 -52q-76 0 -130.5 52.5t-54.5 127.5zM1084.5 143 q0.5 76 54.5 127q55 51 133 51.5t131 -51.5q55 -51 55 -127t-55 -129q-53 -51 -132 -51t-132 51q-55 53 -54.5 129z" />
<glyph unicode="&#x202f;" horiz-adv-x="401" />
<glyph unicode="&#x2039;" horiz-adv-x="579" d="M45 516l195 330h295l-195 -330l195 -330h-295z" />
<glyph unicode="&#x203a;" horiz-adv-x="585" d="M51 186l195 330l-195 330h295l195 -330l-195 -330h-295z" />
<glyph unicode="&#x205f;" horiz-adv-x="501" />
<glyph unicode="&#x20ac;" horiz-adv-x="1734" d="M72 446v183h139q-2 14 -2 67v37h-137v182h168q68 229 260 367q195 139 446 139q287 0 475 -168q190 -166 224 -438h-355q-29 135 -120 209t-226 74q-221 0 -330 -183h469l-47 -182h-475l-2 -37q0 -6 4 -67h449l-47 -183h-330q108 -151 309 -151q135 0 226.5 73.5 t119.5 209.5h355q-33 -272 -224 -441q-190 -166 -475 -166q-250 0 -436 129t-260 346h-178z" />
<glyph unicode="&#x2122;" horiz-adv-x="1439" d="M55 1227v164h547v-164h-186v-434h-176v434h-185zM651 793v598h131l222 -306l219 306h133v-598h-176v268l-131 -193v-2h-93v2l-133 195l2 -270h-174z" />
<glyph unicode="&#x25fc;" horiz-adv-x="993" d="M0 0v993h993v-993h-993z" />
<glyph unicode="&#xfb01;" horiz-adv-x="1503" d="M6 709v284h244v78q0 231 131 368.5t338 137.5q129 0 254 -27l160 -37l-56 -278q-211 41 -303 41t-142 -55.5t-50 -155.5v-72h802v-993h-331v709h-471v-709h-332v709h-244z" />
<glyph unicode="&#xfb02;" horiz-adv-x="1490" d="M6 709v284h244v119q0 211 121 338q123 127 315 127q125 0 264 -37l-45 -276q-82 18 -151 18q-78 0 -125 -44t-47 -118v-127h303v-284h-303v-709h-332v709h-244zM1047 0v1454h331v-1454h-331z" />
</font>
</defs>
</svg>
