<?xml version="1.0" standalone="no"?>
<!DOCTYPE svg PUBLIC "-//W3C//DTD SVG 1.1//EN" "http://www.w3.org/Graphics/SVG/1.1/DTD/svg11.dtd" >
<svg xmlns="http://www.w3.org/2000/svg">
<metadata></metadata>
<defs>
<font id="lianaregular" horiz-adv-x="841" >
<font-face units-per-em="2048" ascent="1638" descent="-410" />
<missing-glyph horiz-adv-x="487" />
<glyph horiz-adv-x="0" />
<glyph unicode="&#xd;" horiz-adv-x="487" />
<glyph unicode=" "  horiz-adv-x="487" />
<glyph unicode="&#x09;" horiz-adv-x="487" />
<glyph unicode="&#xa0;" horiz-adv-x="487" />
<glyph unicode="!" horiz-adv-x="702" d="M-35 -23q0 27 31 43q25 18 63 19q86 0 86 -55q0 -27 -33.5 -47.5t-62.5 -20.5q-82 0 -84 61zM180 260q-2 123 314 531l555 718q6 16 22 45q10 23 59 25q74 2 76 -66q0 -33 -88 -102q-10 -4 -174 -194l-395 -457q-205 -238 -256 -311q-33 -47 -35 -109q0 -18 6 -59 q4 -16 10 -54q0 -20 -20.5 -32.5t-36.5 -12.5q-35 0 -37 78z" />
<glyph unicode="&#x22;" horiz-adv-x="366" d="M461 1090q0 12 24 34q33 20 58 56q45 51 61 143q6 33 53 35q54 2 54 -37q0 -45 -19 -72q-6 -12 -88 -106q-90 -76 -131 -82q-12 0 -12 29zM645 1090q0 16 27 34q86 61 119 199q8 33 53 35q51 2 51 -37q0 -45 -21 -74q-10 -14 -83 -104q-90 -76 -132 -82q-14 0 -14 29z " />
<glyph unicode="#" horiz-adv-x="1128" d="M-63 121q111 176 284 368l-166 7q-39 2 -84 10q0 29 74 45h229l175 221l-173 4q-80 2 -81 15q0 31 71 43l228 -7l223 279l63 -29l-209 -252l260 -10l248 299l64 -29l-236 -270l316 -24q0 -37 -31 -52h-51q-141 0 -155.5 6.5t-139.5 6.5q-25 -27 -174 -213l311 -15 q0 -39 -31 -49h-14q-16 -2 -35 -2q-117 -2 -278 4q-229 -295 -287 -387l-45 6q102 156 276 385q-172 4 -280 4q-219 -225 -305 -368zM350 551l262 -12l168 217l-254 12z" />
<glyph unicode="$" horiz-adv-x="763" d="M176 344l121 213q-59 20 -111 80l23 18q61 -49 119 -69q80 -6 131 -6q113 0 229 47q150 57 152 151q2 49 -39 62l-297 94q-109 35 -111 139q-2 195 555 307l119 187l25 -19l-105 -168q127 -6 127 -96q0 -57 -100 -98q-39 -12 -60 -12q-20 0 -20 12q0 2 51 35q49 25 55 63 q0 59 -86 59q-131 0 -288 -65q-193 -80 -193 -191q0 -53 72 -75l223 -72q106 -35 109 -115q2 -92 -58 -153q-49 -43 -147 -84q-106 -45 -244 -47q-39 0 -96 6l-129 -225z" />
<glyph unicode="%" horiz-adv-x="1449" d="M-29 -70q0 25 72 111q80 96 139 147q801 694 1319 1063q-426 -162 -514 -164q-111 -2 -160 31q-225 -186 -344 -186q-137 0 -139 98q-4 150 137 273q133 119 285 124l37 -16q-129 -16 -250 -104q-141 -98 -145 -217q-2 -45 33.5 -75t86.5 -30q63 0 164 70q90 63 111 98 q-18 109 13.5 195t86.5 88q57 2 58 -54q2 -125 -99 -229q47 -29 109 -31q121 -2 467 154q51 27 157.5 80t149.5 55q20 0 59 -6l-485 -338q-283 -205 -483 -383q-276 -246 -476 -436l-221 -211q-23 -70 -37 -90q-29 -39 -84 -39q-14 0 -28.5 8t-18.5 14zM750 137 q-2 82 110 193q92 90 232 174l18 -12q-47 -31 -121 -82q-170 -127 -170 -222q0 -47 25.5 -81.5t75.5 -36.5q94 -2 228 106.5t138 218.5q2 53 -27.5 77t-87.5 17q0 39 37 39q142 0 154 -102q0 -94 -186.5 -256t-317.5 -164q-49 0 -77.5 40t-30.5 91zM840 1309q0 -115 4 -121 q76 94 76 166q0 35 -23 37q-20 0 -39 -29q-8 -14 -18 -53z" />
<glyph unicode="&#x26;" horiz-adv-x="1880" d="M137 244q-2 168 203 340q96 82 346 231q-35 109 -37 260q-2 180 225 383q223 197 408 199q74 0 129 -51.5t55 -116.5q2 -139 -282 -377q-154 -129 -391 -285q88 -227 464 -563q74 63 156 191q-63 0 -67 28q0 31 55 60q18 8 94 8q285 2 285 -27q0 -14 -103 -47 q-47 -14 -211 -26q-51 -66 -166 -222q53 -66 125 -125q53 -41 154 -127l-43 -34q-35 18 -109 57q-133 82 -213 164q-201 -137 -321 -187q-133 -53 -313 -53q-166 0 -293 76q-147 88 -150 244zM252 260q-2 -133 86 -216t242 -83q193 0 321 57q101 44 275 181 q-111 90 -187 168q-199 205 -293 405q-205 -125 -288 -207q-154 -145 -156 -305zM717 1106q-2 -84 55 -244q113 74 338 230q264 188 264 358q0 127 -176 129q-170 2 -324.5 -150.5t-156.5 -322.5z" />
<glyph unicode="'" horiz-adv-x="0" d="M313 1100q0 12 31 39q55 47 80 110q8 51 20.5 76t53.5 31q53 0 53 -39q0 -43 -12 -72q-10 -18 -84 -104q-74 -66 -125 -72q-10 0 -17 31z" />
<glyph unicode="(" horiz-adv-x="679" d="M74 -166q0 489 235 889q131 223 291 379q119 117 303 241q45 31 326 207l12 -28q-379 -293 -424 -334q-184 -170 -371 -469q-195 -313 -247 -451q-74 -193 -99 -471q-27 27 -26 37z" />
<glyph unicode=")" horiz-adv-x="679" d="M-461 -221q352 272 422 336q190 176 373 467q193 305 248 452q74 193 98 469q27 -27 27 -37q0 -485 -236 -886q-133 -225 -291 -381q-119 -117 -303 -240q-35 -25 -328 -209z" />
<glyph unicode="*" horiz-adv-x="342" d="M473 1268q0 14 14 28q37 20 138 82q-72 66 -72 97q0 20 22 20q12 0 35 -22q14 -12 39 -41q14 61 45 63q18 0 4 -76q104 53 144 56q20 -1 20 -15q0 -33 -137 -86q76 -49 78 -80q0 -20 -19 -20q-27 0 -88 67v-102q0 -41 -37 -41q-25 0 -30 62v47q-88 -43 -146 -52 q-10 0 -10 13z" />
<glyph unicode="+" horiz-adv-x="995" d="M31 506q0 33 73 45h369l266 252l64 -27l-256 -225l450 -25q0 -37 -30 -51q-20 0 -52 -4q-129 0 -223 8t-205 8q-219 -233 -303 -368l-49 2q125 190 287 368l-309 5q-80 2 -82 12z" />
<glyph unicode="," horiz-adv-x="548" d="M-70 -133q0 12 35 43q43 35 49 43q18 27 60 149q10 29 55 35q53 0 53 -39q0 -45 -20 -71q-4 -10 -88 -105q-94 -84 -129 -86q-10 0 -15 31z" />
<glyph unicode="-" horiz-adv-x="761" d="M88 446q0 8 16 9q10 0 62 -9q25 -4 72 -4q4 0 118 15q102 12 187 16q59 2 125 -31q53 -26 53 -49q0 -20 -57 -20q-45 0 -107 20q-90 0 -209 -20q-47 -6 -102 -19q-63 0 -92 27q-61 41 -66 65z" />
<glyph unicode="." horiz-adv-x="542" d="M37 47q-2 72 90 72q35 0 63.5 -19.5t30.5 -52.5q0 -70 -96 -72q-86 -2 -88 72z" />
<glyph unicode="/" horiz-adv-x="1120" d="M-90 -96q2 16 2 33q2 92 889 808q236 190 784 574q6 4 6 31q0 20 31 22q80 18 84 8q-35 -49 -76 -75q-25 -14 -78 -50q-379 -252 -735 -544q-203 -166 -477 -424q-217 -203 -274 -275q-20 -27 -31 -88q-49 -55 -105 -57q-18 0 -20 20v17z" />
<glyph unicode="0" horiz-adv-x="1712" d="M221 342q-4 225 160 469q111 164 270 289q188 147 434 241v-22q-338 -117 -558 -370t-220 -515q0 -166 99 -297q109 -145 268 -145q231 0 491 198q219 168 369 398q166 254 168 473q2 121 -92 196q-86 68 -211 70q-111 2 -230.5 -42t-283.5 -150q-10 8 -11 22q2 16 27 31 q354 207 574 207q311 -1 311 -265q0 -262 -221 -567q-188 -256 -443 -436q-285 -201 -526 -203q-158 -2 -265.5 123t-109.5 295z" />
<glyph unicode="1" horiz-adv-x="1024" d="M-125 -70q0 31 76 47l188 39q645 778 948 1205q-139 18 -139 36q0 31 88 78q72 39 99 43q16 1 47 -67q0 -37 -383 -518l-615 -775l164 2l-51 -67l-297 -53q-35 -6 -49 -6q-70 0 -76 36z" />
<glyph unicode="2" horiz-adv-x="1697" d="M-35 92q0 100 98 168q86 59 193 62q104 2 250 -46q57 -16 174 -57q201 86 522 316q219 158 364.5 339t147.5 310q2 76 -57.5 129t-149.5 53q-270 0 -594 -356l-16 12q190 217 354 313q152 90 340 92q236 4 238 -184q2 -102 -115 -270q-186 -272 -467 -457 q-170 -102 -510 -315q446 -201 611 -209q16 -8 8 -23q-117 -14 -197 -16q-178 -4 -547 170q-311 -162 -471 -162q-70 0 -118 29q-57 37 -58 102zM12 131q-4 -113 154 -115q115 -1 373 144q-211 106 -336 108q-186 2 -191 -137z" />
<glyph unicode="3" horiz-adv-x="1355" d="M-92 150l14 2q139 -104 215 -140q102 -43 250 -45q293 -2 543 179.5t250 400.5q0 102 -71 176t-173 70q-303 -119 -363 -119q-72 0 -71 65q0 31 74.5 67t144.5 38q94 2 217 -6q418 190 418 381q0 86 -90 114q-47 14 -162 17q-162 2 -322 -78q-20 -10 -315 -197l-4 15 q49 41 151 120q276 209 635 215q226 4 228 -168q2 -119 -179 -253q-55 -41 -278 -175q109 -10 184 -75q82 -72 82 -176q0 -154 -168 -322q-133 -133 -303 -217q-227 -113 -475 -115q-256 -2 -432 226zM549 727q0 -6 22 -12q20 0 117 35q45 16 119 49q-33 10 -80 10 q-37 0 -111 -33q-63 -29 -67 -49z" />
<glyph unicode="4" horiz-adv-x="1564" d="M188 578q0 68 80 149q72 74 310 240q217 152 477 293q360 197 506 196q45 0 75.5 -28.5t30.5 -69.5q0 -37 -22 -68q-29 -29 -64 -73l-512 -662q397 49 514 51q37 0 74 -22q29 -19 35 -56q0 -25 -17 -30q-16 0 -37 10q-6 6 -28 10q-8 0 -301 -20q-131 -6 -277 -19 q-39 -49 -348 -383q-16 -16 -20.5 -44.5t-10.5 -61.5q-14 -66 -98 -66q-47 0 -47 27q0 35 92 115q41 35 148 157l210 244l-471 -25q-299 0 -299 136zM250 639q0 -109 252 -111q55 0 102 2l400 23q113 137 336 414.5t229 353.5q0 74 -107 74q-211 2 -864 -459 q-348 -246 -348 -297z" />
<glyph unicode="5" horiz-adv-x="1370" d="M-72 162l15 12q135 -209 336 -211q297 -2 552 154q295 180 299 458q2 248 -331 250q-49 0 -215 -55l-158 -53q-35 0 -37 33q0 51 490 626q434 55 725 88q-14 -33 -54 -73q-33 -16 -80 -45q-12 -4 -73 -19q-16 -4 -549 -49q-29 -29 -406 -512q334 125 535 125 q119 0 192.5 -82t75.5 -203q4 -236 -297 -459q-307 -227 -669 -229q-225 -2 -351 244z" />
<glyph unicode="6" horiz-adv-x="1443" d="M164 303q-2 231 221 531q195 262 499 461.5t529 199.5q111 0 179.5 -59t72.5 -168q2 -49 -32 -137.5t-56 -92.5q-27 0 -29 31q0 33 12.5 92.5t12.5 112.5q0 76 -76 119q-61 33 -145 32q-213 2 -486 -184q-250 -170 -424 -434q-180 -274 -182 -496q-2 -156 83 -264 t208 -110q195 -2 391 151q211 166 211 383q0 154 -79 241t-230 87q-119 0 -377 -107v23q236 131 389 133q166 2 268 -72q113 -84 113 -244q0 -238 -252 -442q-231 -188 -465 -192q-145 -2 -249.5 114.5t-106.5 290.5z" />
<glyph unicode="7" horiz-adv-x="999" d="M66 -8q-4 92 217 325q119 135 358 402q272 295 690 631q-43 8 -125 10q-47 0 -280 -23q-193 -18 -269 -39q-39 -10 -104.5 -39.5t-97.5 -39.5q-53 0 -54 57q0 55 105 82q76 14 151 26q66 12 293 35q195 18 355 19q94 0 96 -80q0 -23 -49 -57.5t-117 -83.5 q-113 -100 -272 -250q-272 -256 -406 -404q-385 -426 -385 -524q0 -33 6 -46t10 -28q0 -8 -32.5 -29.5t-51.5 -21.5q-37 0 -38 78z" />
<glyph unicode="8" horiz-adv-x="1406" d="M84 268q-4 301 664 518q-106 141 -107 244q0 176 186 293q162 100 349 104q127 2 208.5 -51t81.5 -139q0 -90 -22 -139q119 82 160 170l28 -17q-96 -188 -415 -323l-367 -156q406 -236 410 -444q2 -160 -205 -291q-199 -125 -459 -129q-182 -2 -334 86q-176 102 -178 274 zM190 252q0 -162 127 -244q106 -70 279 -69q201 0 369 84q207 102 211 282q2 113 -142 238q-8 6 -274 221q-268 -117 -389 -207q-180 -133 -181 -305zM672 1038q-2 -104 121 -233q76 25 321 110q273 99 275 275q2 100 -82 153q-68 43 -177 46q-164 2 -301 -91 q-154 -102 -157 -260z" />
<glyph unicode="9" horiz-adv-x="1419" d="M-57 145l26 15q111 -117 196 -161t193 -46q248 -4 512 182q209 147 365 377q174 260 176 487q2 139 -106 252q-102 106 -252 107q-207 0 -373 -133q-178 -143 -178 -346q0 -182 117.5 -294t301 -112t185.5 -8q0 -20 -2 -23q-147 -37 -283 -36q-162 0 -281.5 116.5 t-121.5 278.5q-2 236 208 423t470 187q176 0 286.5 -103.5t112.5 -277.5q2 -240 -192 -514q-166 -233 -412 -401q-281 -190 -533 -191q-117 0 -229 68q-78 47 -186 153z" />
<glyph unicode=":" horiz-adv-x="522" d="M49 47q0 72 90 72q33 0 61.5 -20.5t30.5 -51.5q0 -70 -94 -74q-88 -2 -88 74zM145 285q0 74 88 73q37 0 64 -22t29 -51q0 -70 -93 -72q-88 -2 -88 72z" />
<glyph unicode=";" horiz-adv-x="503" d="M-70 -133q0 14 29 37q88 55 117 198q6 29 55 35q53 0 53 -39q0 -45 -20 -71l-88 -105q-92 -84 -129 -86q-10 0 -17 31zM121 287q-2 74 90 73q31 0 63 -22q25 -22 31 -51q0 -68 -96 -70q-86 -2 -88 70z" />
<glyph unicode="&#x3c;" horiz-adv-x="847" d="M147 573q0 33 19 41q8 6 80 23q35 4 178 76q193 96 299 180q37 27 113 84q22 4 28 -19q10 -37 -76 -90q-76 -66 -145 -112q-168 -113 -387 -205q172 -90 442 -111q154 -12 156 -49q2 -25 -78 -24q-217 0 -338 36q-63 18 -196 58q-96 43 -95 112z" />
<glyph unicode="=" horiz-adv-x="1028" d="M188 428q0 39 52 53q33 0 118 13q264 0 545 10q27 0 70 8q33 0 35 -12q0 -51 -88 -70q-330 0 -588 -10q-33 -4 -101 -8q-39 -2 -43 16zM188 676q0 41 52 53q33 0 118 12q319 0 545 11q29 2 70 8q33 -1 35 -15q0 -18 -31 -43q-14 -12 -57 -24q-330 0 -588 -10 q-33 -2 -101 -6q-39 -2 -43 14z" />
<glyph unicode="&#x3e;" horiz-adv-x="849" d="M180 330q6 31 99 63q231 121 495 172q-141 102 -457 191q-133 37 -131 75q2 20 76 13q193 -20 361 -105l176 -88q85 -61 75 -131q-4 -27 -24 -37q-8 -4 -78 -6q-158 -4 -438 -123q-117 -49 -135 -49t-19 25z" />
<glyph unicode="?" horiz-adv-x="1286" d="M78 -6q-2 33 43 55q37 18 74 21q65 1 65 -60q0 -25 -33.5 -46t-64.5 -25q-82 0 -84 55zM195 254q0 143 139 250q111 84 360 174q78 29 402 115q231 61 340 129q74 45 127 133t55 174q2 137 -127 209q-106 59 -254 59q-236 0 -453 -119q-86 -47 -192 -131 q-31 -25 -133 -112l-19 2q166 147 254 217q233 188 613 190q199 2 310.5 -79.5t115.5 -247.5q2 -127 -117 -244q-100 -96 -205 -125q-197 -51 -670 -180q-174 -49 -286 -121q-123 -78 -156 -162q-12 -29 -10 -70q2 -72 6 -71q0 -20 -21.5 -31.5t-42.5 -7.5q-37 6 -36 49z " />
<glyph unicode="@" horiz-adv-x="1759" d="M193 385q-2 219 151 465q145 233 358 393q248 184 488 187q242 2 382 -116t140 -323q0 -223 -147 -479q-168 -291 -375 -291q-49 0 -83 42t-34 97q0 104 62 248l-11 6q-143 -166 -190 -206q-129 -109 -275 -111q-76 0 -135 33q-70 41 -69 112q0 217 211 443 q207 219 424 260q31 2 81 8q66 0 80 -51q6 -33 6 -60q0 -70 -67 -69q-4 2 -25 31q-37 82 -121 69q-162 -27 -329 -244q-158 -205 -158 -348q0 -29 33 -54.5t63 -25.5q162 0 418 246q68 66 162 207q74 111 98 119q47 0 58 -29q0 -12 -62 -96q-82 -115 -104 -164 q-74 -170 -76 -293q-2 -98 74 -98q113 0 272.5 236.5t161.5 443.5q2 395 -477 401q-207 2 -439 -174q-199 -154 -342 -387q-137 -225 -137 -405q0 -434 633 -439q338 -2 627 281q18 23 49 24q12 0 6 -16q-303 -336 -709 -338q-281 -2 -452 90q-219 117 -221 375z" />
<glyph unicode="A" horiz-adv-x="2129" d="M-416 -215q8 2 76 35q123 61 387 264q399 307 1002 987q254 287 505 287q322 0 326 -440v-22q0 -156 -26 -378q-28 -238 -64 -397q12 4 33 20q12 12 24 13q23 0 23 -17q0 -12 -88 -80l-13 -110q-2 -25 -32 -51q-23 -16 -51 -23q-14 0 -15 35q0 68 8 115 q-219 -94 -385 -95q-117 0 -386 111t-361 111q-170 0 -330 -60q-125 -47 -285 -147q-84 -55 -260 -168q-20 -12 -61 -15h-4q-23 0 -23 25zM61 57q215 92 261 107q100 31 249 31q152 0 465 -105q262 -88 344 -102q102 0 310 90q27 199 55 397q29 235 29 399q0 412 -265 412 q-156 0 -346 -164q-51 -45 -360 -360l-357 -365q-193 -190 -385 -340z" />
<glyph unicode="B" horiz-adv-x="1796" d="M-236 -387q43 49 254 297q-166 39 -165 76q0 49 67 51q31 0 84 -14q66 -18 84 -21l356 475q-352 37 -352 162q0 113 244 195q121 41 242 61q66 12 196 33q281 371 514 518q186 119 414 121q68 0 123 -43t55 -109q0 -254 -479 -604q279 -150 278 -281q0 -227 -467 -442 q-428 -197 -784 -199h-57q-231 0 -289 15l-240 -273q-35 -39 -63 -39q-14 0 -15 21zM147 -14q133 -6 326 -6q377 0 746 155q378 160 378 359q0 72 -115.5 161.5t-189.5 89.5q-334 -186 -772 -266zM164 684q0 -47 145 -90q111 -33 199 -33l213 291h-17q-101 0 -368 -61 q-172 -41 -172 -107zM582 565q182 12 415 92q191 66 248 111q-287 82 -452 88zM846 928q156 0 317 -43q68 -18 201 -56q223 188 295 271q129 145 129 260q0 65 -70 100q-55 31 -131 31q-223 0 -461 -227q-78 -76 -280 -336z" />
<glyph unicode="C" horiz-adv-x="1628" d="M41 393q0 324 244 651q213 287 540 490q365 227 686 227q135 0 232 -61q115 -75 115 -204q0 -227 -273 -447q-264 -213 -500 -213q-33 0 -65 16q-39 18 -41 47q0 49 49 82q23 14 49 16q14 -51 29 -84q14 -12 47 -14q143 0 291 96q168 109 215 164q98 115 98 276 q0 248 -311 248h-2q-291 0 -610 -188q-295 -176 -482 -428q-219 -297 -221 -604v-6q0 -231 145 -361q141 -127 404 -131h7q133 0 329 74q68 25 217 92q47 27 102 53q12 0 13 -16q0 -39 -189 -129q-324 -156 -563 -158h-14q-234 0 -381 131q-160 141 -160 381z" />
<glyph unicode="D" horiz-adv-x="1949" d="M-176 109q0 50 59 51q84 -41 236 -103q123 -39 315 -67q213 131 316 215q147 121 272 280q92 119 496 709q23 0 28 -37q-84 -164 -473 -688q-80 -109 -223 -238q-174 -158 -350 -251q72 -4 252 -9h12q389 0 766 254q383 258 383 582q0 168 -139 342q-84 104 -326 324 q-72 66 -254 221q-94 104 -96 213v25q0 145 22 151h31q-6 -31 -6 -60q0 -131 141 -284q98 -82 289 -250q242 -217 283 -266q131 -158 133 -355v-4q0 -270 -244 -514q-197 -199 -490 -327q-315 -139 -649 -140q-236 0 -509 78q-275 78 -275 148z" />
<glyph unicode="E" horiz-adv-x="1732" d="M-59 118q0 151 120 271q72 72 271 180q88 47 266 142q125 68 125 100q0 33 -70.5 129t-70.5 152q0 152 194 290q164 115 414 197q225 72 371 74h8q122 -1 208 -57q89 -58 89 -140q0 -125 -178.5 -245.5t-362.5 -123.5h-6q-148 0 -148 101q0 66 72 76q12 2 22 2 q37 0 38 -25q0 -12 -3.5 -27.5t-3.5 -33.5q6 -37 88 -39h6q120 0 246 73q145 86 146 201q0 92 -113 139q-84 37 -192 37h-6q-207 0 -474 -129q-311 -152 -313 -336q0 -68 66 -157q70 -96 75 -125q0 -63 -184 -156q-285 -141 -340 -180q-127 -88 -178 -133q-78 -84 -80 -203 v-5q0 -137 107 -216q98 -70 243 -70q264 0 504 92q199 74 455 244q2 0 18 -31q-291 -209 -521.5 -292.5t-516.5 -88.5h-8q-172 0 -276 82q-108 86 -107 231z" />
<glyph unicode="F" horiz-adv-x="1835" d="M172 1065q0 264 332 440q276 143 567 148h8q229 0 654 -111q559 -145 743 -180q-94 -53 -172 -64q-61 0 -102 11l-985 252q-145 37 -244 38h-11q-208 0 -448 -141q-268 -159 -268 -357q0 -117 146 -217q148 -102 329 -102q127 0 336 101q20 2 30 -23q-295 -137 -491 -137 q-178 0 -293 80q-131 90 -131 262zM596 -102q0 33 22 36q35 0 39 3q92 33 236 176q152 152 371 448q-55 0 -177 -18q-100 -12 -253 -35q-8 10 -13 35q0 63 92 65q111 2 422 49q197 283 484 660l24 -25q-131 -162 -457 -630q211 23 345 30q16 0 16 -20q-20 -55 -96 -64 l-336 -39q-156 -213 -314 -401q-266 -319 -350 -320q-47 0 -55 50z" />
<glyph unicode="G" horiz-adv-x="1990" d="M12 422v8q0 258 248 537q227 258 588.5 437t681.5 179q168 0 278 -77q111 -77 111 -202q0 -202 -273 -410q-276 -210 -550 -212q-119 0 -119 100q0 31 20 52q29 29 54 28q47 0 51 -14q0 -20 -3 -26.5t-4 -12.5t-3 -10q0 -47 96 -47h5q195 0 414 166q222 167 222 352 q0 111 -99.5 173t-273.5 64h-8q-307 0 -623 -157q-283 -141 -477 -357q-235 -261 -235 -530q0 -184 144 -313.5t372 -131.5h6q227 0 563 156q301 139 432 270q59 61 180 185q76 78 134 88q12 -1 18 -19q0 -14 -47 -55q-74 -63 -98 -96q-35 -47 -105 -200.5t-145 -280.5 q80 45 162 47q23 0 22 -19q0 -2 -55 -18q-84 -14 -150 -58q-268 -371 -387 -501q-274 -303 -467 -310q-35 0 -71.5 27t-42.5 82q0 254 878 700q82 139 209 390q-575 -438 -1171 -443h-6q-201 0 -341 131q-133 125 -135 328zM670 -651q0 -23 29.5 -43.5t68.5 -20.5 q145 0 399 303q164 197 273 379q-246 -121 -447 -258q-319 -219 -323 -360z" />
<glyph unicode="H" horiz-adv-x="2879" d="M23 319q0 264 299 429q246 133 534 135q166 0 617 -115q430 -111 462 -115q117 147 331 463t296 414q29 33 88 102q27 33 27 68q0 16 -11.5 38.5t-11.5 39.5q0 25 103 71q84 39 116 43q20 0 21 -47q0 -16 -98 -123q-150 -162 -189 -211q-117 -147 -303 -434 q-203 -309 -299 -438l279 -64q57 96 172 285q221 348 372 559q328 461 416 465h2q23 0 29 -49q-33 -49 -159 -191.5t-222 -273.5q-311 -424 -549 -809q43 -18 510 -74v-32l-590 -9l-123 -190v-45q0 -18 -14 -35.5t-27 -17.5q-18 0 -24 18q0 37 59 160q53 111 62 119l-289 69 q-627 -645 -1315 -647q-215 0 -381 111q-190 127 -190 331zM84 348q0 -170 162 -275.5t403 -105.5q391 0 750 199q294 164 446 381q-25 6 -606 160q-281 75 -478 75h-5q-242 0 -432 -96q-240 -119 -240 -338z" />
<glyph unicode="I" horiz-adv-x="1814" d="M-8 334q0 244 235 411q213 152 467 152q213 0 461 -59q348 -84 348 -230q0 -41 -12 -45q-18 8 -111 60q-311 174 -649 174q-279 0 -474.5 -109.5t-195.5 -269.5q0 -201 181 -316q152 -98 366 -100h11q355 0 716 254q358 252 611 702q165 295 165 557q0 93 -75.5 146 t-204.5 53q-86 0 -148 -8q127 90 244 92h10q117 0 195 -94q57 -82 57 -186q0 -227 -186 -553q-276 -485 -682 -768q-395 -276 -827 -279q-217 0 -359.5 117t-142.5 299z" />
<glyph unicode="J" horiz-adv-x="1906" d="M-651 -561q0 156 174 342q190 205 493 323q289 113 582 113q174 0 406 -37q227 217 479 602q291 442 291 680q0 236 -275 236q-72 0 -174 -15q70 55 129 82q55 18 137 19q258 0 258 -279q0 -252 -301 -708q-203 -311 -479 -625q98 -37 295 -119q188 -84 188 -147 q0 -29 -53 -29q-29 12 -168 82q-188 96 -332 131q-485 -479 -716 -647q-346 -252 -662 -256h-6q-107 0 -188 72q-78 68 -78 180zM-584 -506q0 -96 84 -158.5t183 -62.5q287 0 688 299q305 227 559 526q-195 39 -332 39q-358 0 -719 -147q-461 -188 -463 -496z" />
<glyph unicode="K" horiz-adv-x="3008" d="M55 516q-2 170 215 262q168 72 363 72q109 0 228.5 -31t307.5 -92l557 682l23 -47q-145 -182 -526 -660q94 -51 278 -155q590 305 1188 856q27 25 172 174q68 70 102 76q18 0 48 -17q20 -14 22 -28q0 -94 -446 -443q-471 -366 -1014 -657q307 -199 1063 -580l-142 -47 q-133 66 -417 215q-483 252 -635 363q-254 -135 -563 -199q-262 -299 -357 -389q-147 -143 -383 -317q-6 8 -6 26q0 14 74 72q137 106 223 186q166 154 381 408q-199 -31 -324 -31q-174 0 -288 64q-141 78 -144 237zM123 539q0 -121 147 -187q113 -49 250 -49q59 0 350 27 l238 305q-326 147 -596 147q-158 0 -273.5 -69.5t-115.5 -173.5zM942 348q127 18 444 141l-229 132q-63 -82 -215 -273z" />
<glyph unicode="L" horiz-adv-x="2746" d="M-90 -258v7q0 245 272 413q240 145 506 145q336 0 752 -123q176 -51 446 -143q90 88 217 256l312 418q119 156 295 344q199 213 253 215q4 -6 7 -41q-4 -33 -31 -139q-27 12 -74 22q-45 0 -188 -158q-127 -139 -226 -270q-74 -98 -268 -381q-141 -207 -221 -282l401 -134 q541 -180 793 -184h15q46 1 80 11q40 12 87 42q8 -8 17 -14q-3 -4 -17 -16q-106 -66 -172 -84q-45 -6 -174 -8h-13q-167 0 -325 49q-6 2 -356 110l-418 131q-299 -270 -569 -405q-375 -186 -813 -187q-240 0 -392 82q-195 104 -196 324zM-27 -258q0 -178 242 -272 q178 -68 389 -68q346 0 668 164q241 125 532 389l-508 154q-402 112 -649 112h-4q-266 0 -450 -104q-219 -125 -220 -375z" />
<glyph unicode="M" horiz-adv-x="2865" d="M66 1120q59 72 182 211t270 225q180 106 379 107q137 0 231 -68q104 -76 105 -206q0 -133 -37 -238q-45 -125 -207 -373q354 322 549 443q141 88 262 90q57 0 95 -35q40 -37 40 -96q0 -103 -245 -488q272 264 643 608q233 190 405 195h3q110 0 110 -148q0 -114 -158 -542 q-160 -440 -160 -621q0 -33 4 -55q0 -37 5 -57q0 -10 -25 -23q-16 -4 -39 -4q-53 6 -53 129q0 178 82 412q49 131 151 403q82 220 82 325q0 73 -110 75h-2q-141 0 -390 -234q-229 -223 -692 -672q-27 -27 -231 -270q-180 -217 -211 -223q-16 0 -21 4v16q0 18 2 25 q0 27 232 315q252 315 287 371q209 334 211 422q0 27 -21.5 55.5t-48.5 28.5q-147 0 -516 -314q-334 -285 -598 -604q-276 -336 -322 -342q-2 0 -8 17q0 33 86 139q59 68 176 209q215 266 373 526q190 316 190 474q0 95 -82 165q-84 72 -200 74h-13q-176 0 -350 -105 q-123 -74 -250 -204q-47 -51 -143 -156z" />
<glyph unicode="N" horiz-adv-x="2240" d="M145 1067q0 61 246 256q217 170 316 219q205 102 372 105h6q115 0 197 -80q74 -72 78 -203v-9q0 -101 -43 -227q-49 -139 -164 -344q133 139 410.5 420t474.5 283q59 0 100 -42t41 -110q0 -104 -184 -778q-68 -246 -107 -512q-53 10 -67 43q-8 16 -9 64v9q0 88 35 226 q33 119 66 236q33 131 98 395q41 162 43 246v7q0 53 -28 90q-30 40 -76 42h-2q-96 0 -340 -229q-178 -166 -301 -316q-201 -242 -303 -364q-154 -182 -238 -301l-139 -197q-41 -53 -80 -57q-18 0 -19 16q0 37 162 266q328 465 438 678q117 225 117 389q0 127 -71 203 q-66 68 -162 68q-141 0 -359 -109q-184 -92 -293 -199q-35 -35 -129 -137q-51 -57 -73 -65q-8 0 -13 18z" />
<glyph unicode="O" horiz-adv-x="1865" d="M68 437q0 397 332 751q334 356 737 381v-27q-8 1 -16 1q-99 0 -304 -111q-281 -152 -450 -369q-199 -252 -201 -537v-6q0 -219 139 -350q141 -133 367 -135h12q267 0 582 174q285 158 477 389q227 276 229 559v5q0 163 -132 280q-134 119 -324 119q-207 0 -474 -175 q-240 -158 -378 -346q-12 -12 -41 -6q301 387 579 512q117 53 176 72q88 29 193 29q510 -1 510 -443q0 -274 -242 -577q-229 -289 -575 -482q-356 -199 -695 -202h-6q-207 0 -349 139q-146 143 -146 355z" />
<glyph unicode="P" horiz-adv-x="1697" d="M-252 -31q0 16 21 51q16 27 43 31q18 0 30 -10q6 -6 27 -10q66 0 442 456q350 424 416 549q-231 41 -377 101q-43 17 -43 59q0 31 62 31q29 0 172 -41q135 -39 237 -60q256 367 590 656q476 411 883 411h2q173 1 273 -69q103 -71 102 -193q0 -185 -326 -454 q-229 -190 -597 -322.5t-665 -132.5q-195 0 -249 4q-176 -268 -422 -586q-147 -193 -342 -364q-180 -160 -234 -160q-43 0 -45 53zM840 1110h247q256 0 599 111q352 115 575 274q254 183 264 373v11q0 109 -115 171q-98 55 -225 55h-5q-608 0 -1340 -995z" />
<glyph unicode="Q" horiz-adv-x="2555" d="M-92 -123v7q0 189 223 352q210 153 448 153h3q186 0 348 -41q264 -68 825 -287q236 197 334 328q152 201 156 430v6q0 137 -93 225q-96 89 -239 89h-5q-310 0 -556 -232q-23 -20 -111 -121q-6 -4 -12 -4q-10 0 -23 11q53 80 115 145q270 289 664 291q162 0 264 -98.5 t102 -268.5q0 -281 -297 -581q-82 -80 -246 -242q268 -113 613 -219q369 -115 479 -119h7q64 0 145 33q63 27 104 30q27 0 27 -10q0 -33 -156 -82q-141 -45 -195 -45h-4q-298 0 -1104 328q-313 -266 -751 -410q-311 -100 -506 -102h-7q-193 0 -360 115q-188 131 -192 319z M2 -61q-2 -209 188 -328q160 -98 383 -98q301 0 668 186q291 147 434 276q-78 23 -381 140q-248 96 -389 137q-199 57 -401 61h-13q-191 0 -341 -110q-145 -106 -148 -264z" />
<glyph unicode="R" horiz-adv-x="2377" d="M-206.5 -739q24.5 20 42.5 22q12 0 33 -8q10 -4 25 -4q332 254 671 711q-197 0 -372 127q-168 121 -170 276v5q0 161 141 267q131 98 301 101h5q238 0 538 -180q670 903 1206 907h7q131 0 228 -74q95 -69 95 -178v-3q0 -245 -353 -528q-240 -193 -710 -440 q197 -111 708 -426q82 -49 246 -115q0 -29 -10 -32h-43h-1q-184 0 -1052 514q-80 -47 -289 -117q-221 -76 -409 -98q-147 -199 -385 -463q-324 -360 -445 -363q-32 0 -32 53q0 26 24.5 46zM70 424q0 -152 204 -262q170 -92 361 -92l295 407q-78 66 -197 127q-162 84 -297 84 q-133 0 -239 -63q-127 -76 -127 -201zM696 70q231 9 596 163l-311 211zM1051 551q37 -37 399 -260q346 178 594 368q391 300 391 529q0 84 -95 140t-208 56q-270 0 -555 -245q-160 -137 -526 -588z" />
<glyph unicode="S" horiz-adv-x="1843" d="M-43 303q0 131 172 184q36 11 57 11q22 0 25 -13q-10 -8 -70 -51q-70 -47 -69 -117q-2 -203 276 -294q186 -61 440 -64h10q310 0 522 118q214 120 214 294q0 135 -188 211l-547 219q-164 67 -164 222q1 211 289 390q290 180 632 180q182 1 282 -65q102 -67 101 -176 q0 -152 -146 -272q-148 -122 -320 -122q-61 0 -109 23q-39 25 -43 61q0 92 59 93q35 0 37 -27q0 -10 -7 -17.5t-11 -25.5q0 -68 112 -68q115 0 222.5 99.5t107.5 212.5t-119 176q-96 53 -217 53q-231 0 -512 -145q-299 -156 -299 -328q0 -129 158 -188l553 -209 q205 -78 205 -228q0 -281 -314 -417q-233 -102 -555 -105h-12q-320 0 -544 110q-228 112 -228 275z" />
<glyph unicode="T" horiz-adv-x="2017" d="M199 1196v7q0 231 258 386q256 154 663 154q186 0 844 -234q139 156 217 158q8 0 8 -16q0 -4 -43 -37l-18 -15q-55 -41 -103 -104q57 -27 328 -78q221 -43 221 -59q-8 -8 -49 -31q-49 -16 -74 -16h-18q-360 0 -489 78q-651 -887 -922 -1194q-104 -121 -229 -236 q-186 -172 -258 -174h-3q-36 0 -38 53q0 25 21.5 53.5t45.5 30.5q2 0 26.5 -7t33.5 -9q18 0 135 104q109 96 221 228q377 438 903 1161q-668 256 -817 256q-776 0 -778 -428q0 -160 149 -260q129 -86 299 -88q80 0 283 59q25 8 35 4q8 -2 2 -20q-225 -106 -379 -107 q-186 0 -329.5 113.5t-145.5 267.5z" />
<glyph unicode="U" horiz-adv-x="2433" d="M305 1446q0 16 168 133q258 180 508 182h7q246 0 398 -137q154 -139 154 -367q0 -117 -139 -571q-125 -410 -135 -504q0 -47 30.5 -88t75.5 -41q137 0 666 504q463 442 565 590q119 172 152 213q47 59 69 59q18 0 21 -2v-33q-1 -16 -435 -628q-439 -618 -438 -693 q0 -42 33 -43q10 0 20 7q18 0 25 4q-59 -78 -115 -78q-20 0 -39.5 15.5t-19.5 35.5q0 78 197 383l231 365q-166 -164 -508 -488q-317 -295 -491 -297q-66 0 -109 64q-39 53 -41 125v6q0 101 132 482q136 392 136 568q0 461 -540 465h-5q-215 0 -446 -184q-33 -20 -88 -63 q-33 0 -39 16z" />
<glyph unicode="V" horiz-adv-x="2330" d="M281 1272q0 98 229 235q252 150 520 152h5q207 1 347 -153q142 -156 142 -396q0 -147 -121 -528q-115 -360 -115 -402q0 -61 37 -107t86 -46h2q111 0 356 221q209 188 412 442q129 162 281 461q170 340 174 498v45q-59 0 -60 -90q0 -6 -2 -76v-78q0 -6 -24 -18 q-14 -2 -21 -2q-6 0 -6 2q-22 86 -22 165v7q0 63 43 120.5t104 57.5q74 0 74 -131q0 -86 -107 -348q-266 -651 -858 -1137q-260 -213 -414 -213q-68 0 -126 59q-47 59 -50 146q-2 106 125 451t127 478q0 203 -143 336t-361 133q-356 0 -604 -307q-4 -4 -18 -4q-12 10 -12 27 z" />
<glyph unicode="W" horiz-adv-x="3072" d="M211 1171q360 453 876 453q221 0 357 -115q143 -121 147 -338v-8q0 -140 -71 -301q-43 -94 -158 -278q299 233 604 493q166 141 193 168q63 51 98 53q6 0 10 -16q0 -14 -39 -39q-31 -29 -80 -74q-164 -164 -284 -381q-143 -252 -144 -444q0 -129 78 -214t205 -85 q272 0 600 238q281 203 463 465q225 326 227 641q0 66 -24 129q-31 80 -88 81h-7q-55 0 -102 -28l-10 12q68 106 155 111h3q55 0 106 -66q41 -70 43 -164v-10q0 -320 -242 -684q-227 -342 -553 -567q-334 -231 -632 -236h-6q-136 1 -230 97q-96 98 -107 245v14 q0 154 197 531q-47 -37 -328 -270q-406 -336 -624 -547q-25 0 -31 22q678 604 680 1069q0 195 -141 312q-131 106 -332 108h-8q-176 0 -371 -84q-238 -104 -403 -297z" />
<glyph unicode="X" horiz-adv-x="2105" d="M178 -172q0 23 17.5 42t35.5 19l27 -10q10 -4 47 -4q141 49 680 596q94 92 332 342q-68 295 -168 447q-143 215 -385 217h-4q-234 0 -504 -232l-12 10q158 152 272 215q152 84 332 84q393 0 559 -659l344 350q61 66 191 195q82 80 239 155l19 -22q-164 -98 -248 -187 q-53 -57 -164 -172l-369 -370q29 -125 92 -377q49 -197 129 -365q16 -37 70 -55q34 -12 67 -12q12 0 25 2v-8q-39 -25 -98 -33q-92 0 -156 82q-53 68 -92 217l-121 459q-150 -150 -336 -334q-274 -270 -411 -395q-252 -227 -367 -228q-37 0 -43 31z" />
<glyph unicode="Y" horiz-adv-x="2619" d="M238 1339l6 39q84 59 213 109q172 66 291 67h4q164 0 311 -155q137 -145 172 -318q41 -246 131 -737q66 -328 223 -332h2q111 0 422 252q264 215 549 518q70 74 248 283q117 137 137 137q21 0 23 -31q0 -18 -37 -53q-475 -453 -1407 -1839q-180 -266 -183 -336 q0 -14 33 -41q16 -14 17 -20q0 -49 -39 -49q-23 0 -55.5 40t-34.5 64q0 90 110 258q178 270 240 350q43 57 698 901l-483 -376q-193 -141 -303 -142q-231 0 -328 633q-29 193 -65 471q-23 166 -136 291q-121 137 -282 139h-12q-194 0 -465 -123z" />
<glyph unicode="Z" horiz-adv-x="2963" d="M199 1075q0 252 260 391q211 113 487 115h8q184 0 451 -88q223 -74 651 -276q35 -6 103 -33l-1239 -1018q49 8 184 35q74 18 119 18h5q165 0 460 -127q281 -121 434 -123h3q148 0 544 172l2 -10q-201 -123 -340.5 -173t-300.5 -50q-176 0 -491.5 117.5t-440.5 117.5 q-201 0 -445 -190q-20 0 -20 16l1378 1139q-446 209 -717 303q-303 104 -522 107h-7q-197 0 -343 -115q-150 -117 -150 -273q0 -168 150 -272q133 -94 309 -94q233 0 426 67l4 -14q-307 -115 -459 -115q-215 0 -359 108t-144 265z" />
<glyph unicode="[" horiz-adv-x="774" d="M-319 -322q0 29 163 248q70 92 285 357q203 250 492 583l481 561q43 49 151 50h195q31 -1 31 -9l-33 -41q-2 -6 -33 -12h-156q-100 0 -143 -51l-760 -891q-483 -578 -553 -706q-20 -55 29 -56h164q14 0 4 -20l-10 -21q-10 -20 -45 -20h-234q-23 0 -28 28z" />
<glyph unicode="\" horiz-adv-x="63" d="M-530 -72q18 35 96 78q139 0 569 338q21 12 21 -6t-6 -25q-203 -176 -330 -258q-188 -121 -350 -127z" />
<glyph unicode="]" horiz-adv-x="774" d="M-586 -344l33 43q8 8 33 10l155 2q98 2 142 51l762 891q473 557 553 705q6 16 6 26q0 27 -33 31h-164q-6 0 -8 8q0 6 2 11l12 22q6 20 43 21h236q24 0 26 -31q0 -27 -163 -246q-49 -66 -285 -356q-211 -262 -490 -584l-481 -561q-43 -49 -153 -49h-195q-31 0 -31 6z" />
<glyph unicode="^" horiz-adv-x="688" d="M317 811q10 10 43 70q45 82 297 336q84 84 191 188q84 84 125 88q20 0 20 -35q0 -18 -35 -170q-45 -195 -57 -336q-6 -70 -22 -94q-6 -20 -29 -20q-33 0 -8 200q16 133 80 365q-125 -92 -451 -457l-94 -106q-29 -27 -55 -31z" />
<glyph unicode="_" horiz-adv-x="1105" d="M16 -176h1076v-92h-1076v92z" />
<glyph unicode="`" horiz-adv-x="475" d="M150 760q0 20 26 26q23 0 35 -16l104 -166q31 -49 37 -67q0 -7 -10 -9q-35 0 -82 60l-106 133z" />
<glyph unicode="a" d="M-227 39q0 94 168 222t292 128q76 0 78 -37v-7q0 -71 -78 -71q27 10 46 15l-11 2q-25 2 -47 14q-14 33 -49 33h-3q-75 0 -179 -88q-106 -90 -107 -158q0 -43 31 -45q109 0 231 84q33 23 93 90q41 47 67 47h2q27 0 27 -20q0 -16 -34 -77.5t-34 -86.5q0 -76 76 -78h2 q88 0 293 139q72 49 274 199q4 4 13 4q8 0 8 -10q0 -16 -8 -23q-215 -182 -295 -235q-211 -141 -340 -141q-111 0 -117 165q-55 -45 -137 -86q-96 -49 -152 -49q-41 0 -75.5 18.5t-34.5 51.5z" />
<glyph unicode="b" horiz-adv-x="747" d="M-90 42q0 105 131 280q53 63 287 342q88 104 264 278q137 135 143 156q-10 8 -26 18q-27 12 -27 29q0 16 166 72q31 -1 33 -17q0 -20 -39 -57l-107 -103q-266 -260 -465 -501q-260 -315 -260 -439q0 -41 30 -66.5t71 -25.5q113 0 217 154q86 125 88 192v2q0 39 -62 41h-3 q-41 0 -81 -53q-33 -41 -39 -88q0 -18 19.5 -33.5t19.5 -23.5q0 -23 -39 -23q-53 0 -53 68q0 84 88 153q74 59 140 62q29 0 57.5 -23.5t28.5 -54.5q0 -96 -142 -266q-158 -188 -323 -189q-117 0 -117 116z" />
<glyph unicode="c" horiz-adv-x="759" d="M-119 82q0 131 162 252q152 113 289 117h4q59 0 65 -62q0 -57 -92 -117q-78 -49 -137 -51q-47 -2 -47 23q0 59 61 59q10 0 32 -7t32 -9q29 0 55.5 32.5t26.5 55.5q0 18 -53 20h-4q-88 0 -194 -92q-112 -98 -112 -186q0 -49 54 -92q41 -41 127 -41q119 0 296 96 q127 68 261 174q119 94 129 94q14 0 14 -18q0 -10 -121 -111q-94 -78 -164 -127q-250 -176 -493 -178q-78 0 -131 45q-59 47 -60 123z" />
<glyph unicode="d" horiz-adv-x="1034" d="M-225 61q0 76 114 170q162 133 316 140q29 0 59 -23q23 -10 23 -41q0 -51 -35 -57q-6 0 -16 16q-6 39 -19.5 47.5t-64.5 8.5q-84 0 -222 -136q-57 -57 -57 -107q0 -46 66 -48h4q49 0 153 48q110 50 166 89q27 115 98 244q18 29 99 151q184 279 407 494q281 268 443 270h3 q87 0 87 -101q0 -167 -527 -640q-154 -139 -553 -436q25 -160 160 -162h4q86 0 250 94q115 66 254 174q119 92 123 92q12 0 12 -16t-168 -152q-143 -115 -231 -168q-143 -86 -266 -88h-3q-142 0 -190 187q-59 -33 -182 -101q-88 -45 -195 -49h-6q-39 1 -71 27q-34 28 -35 73 zM326 207q301 221 540 428q137 119 269 272q180 216 180 324q0 50 -55 51h-2q-117 0 -371 -258q-182 -184 -312 -362q-201 -274 -249 -455z" />
<glyph unicode="e" horiz-adv-x="462" d="M-268 88q0 91 100 205q102 117 193 119q27 0 46 -18.5t23 -43.5q0 -37 -37 -74q-55 -43 -113.5 -87t-121.5 -76q-2 -51 41 -82q33 -23 76 -23q109 0 317 137q39 27 272 201q6 2 15 2q6 0 8 -12q0 -12 -8 -23q-199 -166 -297 -233q-207 -139 -371 -141h-4q-139 0 -139 149 zM-172 178q10 0 37 10q133 79 139 140q0 10 -27 16q-37 0 -93 -63.5t-56 -102.5z" />
<glyph unicode="f" horiz-adv-x="618" d="M-1391 -795q0 47 54 47q10 -10 63 -55q45 -39 98 -45q88 0 244 92q279 164 613 602q135 178 143 230h-23q-49 0 -49 43q0 35 78 35h64q117 193 335 503q528 752 809 754q39 0 67 -25.5t28 -64.5q0 -119 -275 -401q-205 -213 -381 -351q-242 -188 -420 -274l-80 -141h340 q41 0 41 -39q0 -16 -41 -23l-397 -16q-150 -199 -244 -309q-115 -135 -268 -291q-127 -127 -254 -213q-233 -156 -407 -156q-55 0 -96.5 31t-41.5 67zM78 358l8 4q297 197 377 256q195 143 344 306q246 266 246 397q0 47 -72 47q-88 0 -285 -194q-145 -143 -241 -273 q-74 -100 -377 -543z" />
<glyph unicode="g" horiz-adv-x="825" d="M-1042 -727q0 246 530 448q133 51 375 123q266 78 375 117q147 166 147 310q0 95 -115 96q-78 0 -155 -37q-94 -45 -95 -115q0 -82 68 -84h4q51 0 137 45q51 27 103 53l-17 -30q-23 -14 -110.5 -68.5t-177.5 -54.5q-49 0 -77 32q-30 33 -30 78q0 73 127 150 q121 74 240 76h7q70 0 126 -41q49 -47 49 -114q0 -92 -102 -249q123 37 524 336q6 4 14 4q6 0 8 -12q0 -12 -8 -23l-239 -194q-158 -115 -353 -185q-150 -190 -477 -440q-453 -346 -719 -348q-66 0 -112.5 37t-46.5 90zM-965 -680q0 -55 58 -90q49 -31 108 -31q63 0 187 49 q131 51 231 125q414 298 584 531q-115 -31 -387 -111q-287 -84 -459 -164q-319 -152 -322 -309z" />
<glyph unicode="h" horiz-adv-x="792" d="M-195 -16q0 33 76 141q72 98 160 223q170 272 547 678q389 420 524 424h5q42 0 83 -30q43 -32 43 -70q0 -88 -192 -312q-346 -401 -707 -618q-98 -59 -305 -164l-117 -172q14 8 350 229q113 74 154 76q29 2 29 -31q0 -10 -55.5 -84.5t-55.5 -130.5q0 -43 9 -59t73 -23 q57 0 287 168q80 57 157 117q10 0 13 -18q0 -8 -47 -47q-39 -33 -95 -82q-76 -70 -153 -117q-131 -80 -221 -82h-4q-117 0 -121 106q0 23 16 130q-20 0 -47 -15q-43 -31 -231 -170q-119 -88 -156 -90q-12 0 -19 23zM82 317q123 20 434 271q252 205 397 356q234 246 236 383 q0 59 -68 59q-90 0 -252 -153q-201 -193 -604 -698q-127 -158 -143 -218z" />
<glyph unicode="i" horiz-adv-x="501" d="M-129 76q1 65 71 164q72 102 136 116q27 0 26 -18q0 -12 -62 -87t-65 -142q-2 -82 76 -84h1q86 0 515 319q4 4 13 4q8 0 10 -12q0 -12 -10 -21q-195 -168 -277 -227q-186 -133 -274 -133q-53 0 -103 31q-57 37 -57 90zM96 489q0 59 80 60q82 -1 82 -60q0 -57 -82 -57 q-80 0 -80 57z" />
<glyph unicode="j" horiz-adv-x="540" d="M-1047 -942q0 29 74 82q125 92 258 223q305 301 604 649q262 307 267 336q-31 -4 -78 -35l-6 -4q-18 -12 -41 -26q-8 2 -11 16q0 12 19 29q51 45 139 88q47 23 101 35q24 -1 24 -13q0 -20 -133 -190q-68 -86 -174 -209q-377 -434 -801 -870q-168 -172 -213 -175h-2 q-27 0 -27 64zM401 653h5q75 0 75 -55q0 -53 -80 -53q-79 0 -79 52q0 54 79 56z" />
<glyph unicode="k" horiz-adv-x="1050" d="M-313 -123q166 184 497 594q557 688 611 803q-25 0 -60 22q-8 8 -8 39q0 14 43 31q68 27 109 57h75q0 -41 -503 -675l-527 -664q94 49 287 152q272 143 414 143q74 0 75 -53q2 -41 -41 -43q-12 0 -55 6q-20 4 -55 10q-92 0 -205 -40t-178 -101q281 -111 414 -111 q158 0 538 289q6 4 15 4q8 0 8 -14t-8 -21q-399 -334 -644 -336q-82 0 -224 47t-173 52q-109 0 -368 -201z" />
<glyph unicode="l" horiz-adv-x="614" d="M-262 176q-2 197 205 504q186 279 451 505t429 226q47 0 81 -32t34 -79q0 -176 -301 -499q-197 -211 -424 -400q-162 -133 -365 -278q4 -53 82 -86q63 -27 127 -27q152 0 355 133q20 16 268 201q6 4 16 4q6 -2 6 -12q0 -14 -6 -23q-207 -170 -299 -225 q-213 -129 -377 -131h-5q-276 0 -277 219zM-168 219v-7q0 -21 10 -36q59 29 242 176q211 172 405 363q176 172 252 284q103 150 103 279q0 75 -87 75q-9 0 -18 -1q-113 -8 -331 -199q-385 -334 -519 -700q-53 -145 -57 -234z" />
<glyph unicode="m" horiz-adv-x="1400" d="M-127 -14q20 23 117 127q109 117 114 166q0 10 -24 16q-23 0 -27 12q0 23 31 43.5t55 20.5q68 0 70 -76q0 -35 -41 -84q-27 -31 -82 -92l289 172q74 43 110 43q56 0 56 -41q0 -28 -68 -100q-80 -88 -100 -127q289 176 383 221q111 53 159 55q12 0 13 -25q-8 -16 -54 -88 q-53 -82 -53 -137q0 -80 76 -82h3q88 0 292 135q33 20 274 199q6 4 15 4q6 0 8 -14q0 -12 -8 -21q-188 -158 -293 -227q-195 -129 -334 -131h-4q-117 0 -121 115v6q0 73 43 153q-27 0 -96 -43q-53 -35 -117 -73q-283 -164 -309 -164q-39 0 -39 37q0 43 80 141q55 63 112 129 q-471 -293 -499 -297q-31 0 -31 27z" />
<glyph unicode="n" horiz-adv-x="958" d="M-141 -27q0 27 78 142q51 76 102 151q-8 12 -8 35q0 18 30 37q23 14 41 16q68 0 70 -53q0 -18 -68 -106q-59 -78 -88 -107q389 266 502 266q10 0 17 -26q1 6 -61 -73q-64 -82 -64 -145q0 -71 104 -73h2q75 0 258 123q61 41 250 184q6 2 14 2q7 0 9 -10q0 -12 -9 -23 q-186 -156 -278 -217q-188 -127 -322 -127q-115 0 -116 123q0 49 22 137q-106 -61 -326 -198q-119 -80 -131 -80q-2 0 -15 7t-13 15z" />
<glyph unicode="o" horiz-adv-x="618" d="M-236 8q0 106 160 246q145 127 262 127q104 0 105 -98q0 -109 -123 -213q27 -27 65 -27q68 0 228 113q145 102 225 188q2 6 12 2q9 0 9 -10q0 -51 -234 -217q-166 -117 -246 -119h-5q-52 0 -93 39q-20 -27 -94 -68q-86 -47 -164 -47q-106 0 -107 84zM-84 -6h4 q86 0 184 80q-41 41 -41 106q0 88 37 125q-243 -113 -243 -234q0 -75 59 -77zM109 207v-10q0 -68 26 -91q125 99 127 193q0 35 -37 37h-4q-45 0 -77 -40q-34 -42 -35 -89z" />
<glyph unicode="p" horiz-adv-x="770" d="M-870 -862q0 37 26 65q25 41 51 84q117 219 502 670q262 307 703 784q25 27 45 29h1q9 0 15 -22q0 -2 -432 -496q53 27 158 84q102 43 178 45h4q88 0 88 -78q0 -47 -82 -135q-70 -74 -176 -135q-121 -70 -207 -72q-25 0 -45 20.5t-20 49.5q0 59 38 61q20 2 27 -12 q6 -6 16 -29q14 -31 64 -31q59 0 179 97.5t120 165.5q0 35 -74 39h-5q-64 0 -136 -46q-47 -29 -225 -180q-229 -195 -455 -502q-207 -283 -227 -372v-74q0 -29 -18.5 -41t-41.5 -16q-29 0 -47 11t-24 36z" />
<glyph unicode="q" horiz-adv-x="724" d="M-666 -946q0 59 111 235q170 270 721 791q-186 -88 -227 -88t-74 37t-33 80q0 104 188 213q168 96 310 102h5q47 0 68 -39q6 -10 9 -25q0 -47 -99 -59v18q2 8 6 19q0 37 -45 37q-61 0 -190 -68q-160 -84 -162 -176q0 -25 16.5 -46.5t41.5 -21.5q68 0 192 74 q53 20 178 111q70 50 102 50q4 0 7 -1q0 -33 -47 -57q-418 -348 -641 -611q-133 -156 -197 -239q-90 -119 -121 -219q199 154 395 321q182 156 267 160h3q42 0 42 -49q0 -23 -27 -47q-10 -10 -22 -11q-23 0 -45 2h-58q-84 0 -467 -360q-25 -23 -82 -84q-49 -84 -86 -86h-4 q-35 0 -35 37z" />
<glyph unicode="r" horiz-adv-x="751" d="M-397 8q0 16 18 37q121 47 352 225q-14 14 -16 31q0 45 68.5 114.5t115.5 76.5q33 0 39 -31q0 -49 -69 -113q76 16 114 21q61 0 62 -43q0 -43 -85 -126t-91 -128q0 -27 22 -54q20 -18 57 -24q119 0 345 145q78 51 284 211h12q9 0 9 -10q0 -14 -9 -23q-221 -182 -303 -237 q-219 -147 -385 -148q-45 0 -79 35q-37 37 -37 85q0 40 57 104q35 37 104 114q-23 0 -90 -10q-41 -6 -78 -6h-8q-227 -193 -374 -256q-35 0 -35 10z" />
<glyph unicode="s" horiz-adv-x="626" d="M-399 8q0 6 20 37q199 100 408 266q0 2 2 6q61 47 123 50h4q98 0 98 -93q0 -59 -58.5 -140t-115.5 -114q119 0 334 132q98 59 276 194q6 2 15 2q6 0 8 -12q0 -12 -8 -23q-238 -197 -291 -229q-213 -137 -459 -139q-76 0 -121 30q-16 8 -74 66q0 14 5 22q-74 -43 -129 -65 q-35 0 -37 10zM-203 84q10 0 19 -4q74 -45 118 -47h4q76 1 143 67q69 68 77 148q0 51 -54 51q-31 0 -38 -4q-143 -123 -269 -211z" />
<glyph unicode="t" horiz-adv-x="585" d="M-338 791q4 18 43 18h789l184 180q20 12 51 15q10 0 21 -15q4 -6 4 -10q0 -6 -4 -12l-181 -158l545 -25q0 -47 -82 -47h-530l-299 -317q-207 -233 -207 -338q0 -66 88 -66q119 0 307 131q80 55 262 197q2 4 13 4q6 0 8 -14q0 -12 -8 -23q-119 -96 -297 -233 q-203 -139 -340 -141q-51 0 -82 38.5t-31 90.5q0 131 207 356q100 104 299 315l-739 17q-22 0 -22 25q0 5 1 12z" />
<glyph unicode="u" horiz-adv-x="811" d="M-215 47q0 70 61 133q51 51 242 176q18 0 12 -28q-35 -23 -108 -76q-98 -86 -101 -156v-6q0 -57 37 -63q18 0 80 28q90 41 142 90q37 33 109.5 129.5t107.5 96.5q25 0 26 -23q0 -20 -75.5 -92t-75.5 -121q0 -47 28 -82q23 -35 56 -39q90 0 282 131q16 12 271 201 q6 2 12 2q8 0 10 -12q0 -14 -10 -23q-443 -376 -626 -376h-1q-96 0 -114 159q-57 -63 -158 -108q-78 -35 -117 -37h-4q-31 1 -57 27q-30 30 -29 69z" />
<glyph unicode="v" d="M-100 31q0 111 149 305q10 12 41 16q16 0 19 -12q0 -2 -3 -8q-16 0 -75 -101q-55 -92 -56 -147q0 -80 78 -84h2q54 0 193 121q-35 51 -37 141v6q-1 46 29 84q32 41 77 41q80 0 80 -90q0 -102 -84 -186q51 -70 105 -70q96 0 264 109q145 96 225 188q4 8 15 4q6 0 8 -12 q0 -14 -8 -23q-74 -82 -205 -178q-176 -129 -307 -131q-57 0 -136 84q-160 -156 -262 -158q-47 0 -79.5 27t-32.5 74zM256 268v-8q0 -58 29 -106q49 61 55 67q23 37 25 76v6q0 53 -37 53q-70 0 -72 -88z" />
<glyph unicode="w" horiz-adv-x="1140" d="M-174 34q0 69 80 161l160 159q39 39 79 39q39 0 41 -51q0 -4 -63 -25q-209 -152 -213 -241q-2 -18 33 -23q84 0 430 277q8 4 18 8q14 0 17 -25q0 19 -6 19q-12 0 -48 -78q-54 -116 -53 -158q0 -78 86 -80q35 0 160 105q-35 47 -37 141v6q0 47 30 85q32 40 76 40 q80 0 80 -90q0 -102 -86 -186q55 -70 105 -70q96 0 260 107q152 98 231 190q2 8 13 4q8 0 10 -12q0 -14 -10 -23q-66 -78 -203 -178q-176 -129 -307 -131q-55 0 -138 84q-156 -156 -260 -158q-31 0 -71 43q-35 53 -35 105q0 43 26 88q-66 -59 -165 -121q-123 -76 -187 -76 q-35 1 -43 11q-10 12 -10 54zM555 268q0 -63 27 -114q25 31 57 67q23 37 25 76v6q0 53 -37 53q-72 0 -72 -88z" />
<glyph unicode="x" horiz-adv-x="913" d="M-164 -96q0 29 129 129q66 53 199 155q-43 70 -76 84q-47 18 -47 37q0 49 72 53h5q46 0 83 -38q16 -25 45 -76q115 86 194 133q111 65 164 65h2q23 0 29 -10q0 -16 -37 -30q-43 -16 -100 -41q-113 -47 -236 -158q23 -35 68 -107q49 -82 102 -84h2q79 0 277 134 q76 55 151 110q119 88 131 88q4 0 8 -12q0 -6 -8 -23q-129 -131 -295 -243q-188 -127 -311 -129h-2q-121 0 -199 211q-100 -70 -295 -244q-14 -12 -35 -12h-6q-10 4 -14 8z" />
<glyph unicode="y" horiz-adv-x="780" d="M-535 -911q0 94 115 221l682 753q-172 -112 -268 -112h-2q-96 0 -96 100q0 88 65 189q57 86 109 110h5q28 0 31 -20q0 22 -8 22q-16 0 -64 -88q-73 -135 -73 -178q0 -64 109 -66h2q80 0 252 142q168 139 194 141q21 0 23 -12q0 -23 -133 -156q-219 -219 -328 -332 q-225 -233 -432 -499q-76 -96 -84 -154q0 -4 2 -14t4 -19q2 -16 2 -35q-25 -66 -96 -69q-6 35 -11 76z" />
<glyph unicode="z" horiz-adv-x="858" d="M-119 -33q172 158 391 307h-211q-33 0 -32 19q0 35 34 49q27 10 144 16q86 4 141 9h11q52 0 57 -35q0 -8 -153.5 -110.5t-166.5 -125.5q168 0 264 -22q55 -12 101 -15h3q88 0 243 105q117 82 217 178q20 19 22 -4q0 -8 -8 -19q-172 -156 -313 -245q-150 -96 -232 -99h-6 q-47 0 -141 25q-102 27 -150 27q-63 0 -114 -23q-31 -14 -93 -39h-2z" />
<glyph unicode="{" horiz-adv-x="847" d="M-246 -258q-2 51 111 197l285 364q109 139 110 209q0 20 -17.5 47t-17.5 37q0 8 4 14q14 29 84 31q129 2 267 158l305 346q55 63 182 215q96 90 229 90h121q19 0 25 -31q0 -18 -41 -18h-117q-113 0 -211 -98q-59 -74 -184 -222l-273 -309q-84 -96 -143 -133 q-84 -53 -184 -47l-4 -6q29 -20 28 -62q2 -92 -106 -229l-246 -309q-154 -193 -154 -232q0 -41 82 -41h86q16 0 19 -26q0 -16 -51 -23h-78q-106 0 -111 78z" />
<glyph unicode="|" horiz-adv-x="489" d="M250 68q0 406 35 884q41 557 98 559q23 1 23 -36q0 -100 -35 -258q-12 -55 -33 -338q-18 -252 -21 -617q-2 -221 15 -397q0 -41 24 -92q18 -53 23 -90q0 -29 -19 -60q0 -2 -4 -10v-10q-18 0 -45 14q-61 145 -61 451z" />
<glyph unicode="}" horiz-adv-x="847" d="M-610 -305q0 18 39 18h116q113 0 211 99q61 74 187 221l272 311q98 111 172 150q68 35 156 28l4 6q-29 25 -29 62q-2 92 107 229l243 309q154 195 154 232q0 41 -82 41h-86q-12 0 -18 26q0 16 51 23h80q106 0 108 -78q2 -55 -108 -196l-285 -365q-109 -139 -111 -207 q0 -25 19 -49q12 -20 16 -35q0 -8 -4 -16q-16 -29 -84 -31q-135 -2 -268 -156l-303 -348q-119 -137 -185 -215q-96 -90 -229 -90h-121q-20 0 -22 31z" />
<glyph unicode="~" horiz-adv-x="1114" d="M84 545q25 72 146.5 162t228.5 90q80 0 135 -105q31 -57 53 -86q43 -39 101 -39q162 0 245 183q14 31 43 24q33 0 21 -35q-35 -98 -130.5 -164.5t-197.5 -68.5q-125 -2 -201 153q-35 72 -88 72q-82 0 -176 -61q-86 -57 -135 -131q-8 -8 -33 -17q-20 0 -12 23z" />
<glyph unicode="&#xa8;" horiz-adv-x="1830" d="M1278 1929q0 43 37 85t80 42q45 0 51 -37q0 -66 -42 -111.5t-91 -45.5q-35 0 -35 67zM1649 1929q0 43 36.5 85t77.5 42q49 0 49 -37q0 -59 -37.5 -108t-95.5 -49q-31 0 -30 67z" />
<glyph unicode="&#xa9;" horiz-adv-x="2254" d="M209 387q0 313 153 608q137 262 363 441q205 162 412 180v-27q-109 4 -306 -133q-231 -160 -376 -391q-186 -295 -187 -629q0 -229 160 -392t410 -163q317 0 616 209q281 197 455 504t178 620q2 199 -145 312q-129 98 -355 100q-246 2 -536 -196q-248 -170 -420 -402 q-8 4 -25 10q139 188 355 363q346 279 649 280q246 2 383 -106q153 -120 153 -358q0 -307 -192.5 -634t-491.5 -542q-315 -225 -637 -225q-266 0 -438 151q-178 158 -178 420zM528 487q-2 221 174 463q147 203 383 348q256 160 486 160q104 0 179 -57t75 -139 q0 -168 -195 -326q-186 -152 -358 -152q-20 0 -52 15.5t-34 42.5q0 29 29.5 55.5t62.5 26.5q10 -45 16 -57.5t27 -12.5q92 0 195.5 64.5t146.5 113.5q66 76 66 182q0 162 -205 164q-291 4 -592 -252q-311 -264 -314 -589q-2 -164 105 -252q98 -80 266 -82q88 0 232 51 q76 27 151 65q27 14 53 25q10 6 21 10q20 0 22 -2v-20q0 -37 -139 -105q-223 -106 -399 -110q-172 -4 -291 104q-109 98 -111 266z" />
<glyph unicode="&#xac;" horiz-adv-x="1705" d="M254 791v63h1198v-502h-59v439h-1139z" />
<glyph unicode="&#xad;" horiz-adv-x="761" d="M88 446q0 8 16 9q10 0 62 -9q25 -4 72 -4q4 0 118 15q102 12 187 16q59 2 125 -31q53 -26 53 -49q0 -20 -57 -20q-45 0 -107 20q-90 0 -209 -20q-47 -6 -102 -19q-63 0 -92 27q-61 41 -66 65z" />
<glyph unicode="&#xae;" horiz-adv-x="2254" d="M209 387q0 313 153 608q137 262 363 441q205 162 412 180v-27q-109 4 -306 -133q-231 -160 -376 -391q-186 -295 -187 -629q0 -229 160 -392t410 -163q317 0 616 209q281 197 455 504t178 620q2 199 -145 312q-129 98 -355 100q-246 2 -536 -196q-248 -170 -420 -402 q-8 4 -25 10q139 188 355 363q346 279 649 280q246 2 383 -106q153 -120 153 -358q0 -307 -192.5 -634t-491.5 -542q-315 -225 -637 -225q-266 0 -438 151q-178 158 -178 420zM371 264q0 20 14 40t39 26q8 0 16 -8q6 0 15 -7q33 0 137 170q49 84 151 252q-115 27 -186 56 q-33 12 -35 49q-2 16 17 37q12 18 39 22q59 -12 219 -51q143 209 333 364q268 221 498 224q94 0 164 -47q61 -43 63 -119q4 -129 -198 -293q-315 -256 -711 -256h-45l449 -637q0 -20 -25 -23q-4 0 -63 3q-33 2 -191 266q-180 305 -264 383q-41 -82 -156 -281 q-135 -219 -237 -219q-43 0 -43 49zM879 840h94q238 0 487 104q279 116 289 270q4 55 -59 84q-49 23 -111 23q-334 2 -700 -481z" />
<glyph unicode="&#xb0;" horiz-adv-x="796" d="M406 989q-2 61 36 139q63 129 202.5 223.5t270.5 94.5q82 0 140 -47q47 -47 51 -125q2 -55 -37 -133q-66 -129 -205 -224.5t-270 -95.5q-88 0 -137 48.5t-51 119.5zM473 1026q0 -63 43 -104t121 -41q102 0 210 71.5t159 175.5q29 57 28 113q2 145 -164 145 q-102 0 -209.5 -74.5t-154.5 -170.5q-27 -53 -33 -115z" />
<glyph unicode="&#xb4;" horiz-adv-x="503" d="M174 1612q0 14 29 37q88 55 116 198q6 29 56 35q53 0 53 -39q0 -45 -20 -71l-89 -105q-92 -84 -129 -86q-10 0 -16 31z" />
<glyph unicode="&#xb6;" horiz-adv-x="1024" d="M98 1130q0 156 107.5 252.5t288.5 96.5h432v-58h-133v-1421h-58v1421h-198v-1421h-58v782q-178 8 -279.5 102.5t-101.5 245.5z" />
<glyph unicode="&#xc0;" horiz-adv-x="2129" d="M-416 -215q8 2 76 35q123 61 387 264q399 307 1002 987q254 287 505 287q322 0 326 -440q2 -162 -25.5 -399.5t-64.5 -397.5q12 4 33 20q12 12 24 13q23 0 23 -17q0 -12 -88 -80l-13 -110q-2 -25 -32 -51q-23 -16 -51 -23q-14 0 -15 35q0 68 8 115q-219 -94 -385 -95 q-117 0 -386 111t-361 111q-170 0 -330 -60q-125 -47 -285 -147q-84 -55 -260 -168q-20 -12 -61 -15q-27 -2 -27 25zM61 57q215 92 261 107q100 31 249 31q152 0 465 -105q262 -88 344 -102q102 0 310 90q27 199 55 397q29 235 29 399q0 412 -265 412q-156 0 -346 -164 q-51 -45 -360 -360l-357 -365q-193 -190 -385 -340zM1315 1733q0 20 26 26q23 0 35 -16l105 -166q31 -49 37 -68q-1 -6 -11 -8q-35 0 -82 60l-106 133z" />
<glyph unicode="&#xc4;" horiz-adv-x="2129" d="M-416 -215q8 2 76 35q123 61 387 264q399 307 1002 987q254 287 505 287q322 0 326 -440q2 -162 -25.5 -399.5t-64.5 -397.5q12 4 33 20q12 12 24 13q23 0 23 -17q0 -12 -88 -80l-13 -110q-2 -25 -32 -51q-23 -16 -51 -23q-14 0 -15 35q0 68 8 115q-219 -94 -385 -95 q-117 0 -386 111t-361 111q-170 0 -330 -60q-125 -47 -285 -147q-84 -55 -260 -168q-20 -12 -61 -15q-27 -2 -27 25zM61 57q215 92 261 107q100 31 249 31q152 0 465 -105q262 -88 344 -102q102 0 310 90q27 199 55 397q29 235 29 399q0 412 -265 412q-156 0 -346 -164 q-51 -45 -360 -360l-357 -365q-193 -190 -385 -340zM1348 1712q0 43 36.5 85t79.5 42q46 0 52 -37q0 -66 -42 -111.5t-92 -45.5q-35 0 -34 67zM1718 1712q0 43 37 85t78 42q49 0 49 -37q0 -59 -38 -108t-95 -49q-31 0 -31 67z" />
<glyph unicode="&#xc5;" horiz-adv-x="2129" d="M-416 -215q8 2 76 35q123 61 387 264q399 307 1002 987q254 287 505 287q322 0 326 -440q2 -162 -25.5 -399.5t-64.5 -397.5q12 4 33 20q12 12 24 13q23 0 23 -17q0 -12 -88 -80l-13 -110q-2 -25 -32 -51q-23 -16 -51 -23q-14 0 -15 35q0 68 8 115q-219 -94 -385 -95 q-117 0 -386 111t-361 111q-170 0 -330 -60q-125 -47 -285 -147q-84 -55 -260 -168q-20 -12 -61 -15q-27 -2 -27 25zM61 57q215 92 261 107q100 31 249 31q152 0 465 -105q262 -88 344 -102q102 0 310 90q27 199 55 397q29 235 29 399q0 412 -265 412q-156 0 -346 -164 q-51 -45 -360 -360l-357 -365q-193 -190 -385 -340zM1655 1528q0 29 16 61q29 55 88.5 96t118.5 41q37 0 62.5 -23.5t27.5 -57.5q0 -27 -16 -62q-29 -55 -88.5 -96t-118.5 -41q-41 0 -65.5 23.5t-24.5 58.5zM1708 1540q0 -45 55 -45q49 0 99.5 43t50.5 92q2 47 -55 47 q-49 0 -96.5 -43t-53.5 -94z" />
<glyph unicode="&#xc9;" horiz-adv-x="1732" d="M-59 113q-2 154 120 276q72 72 271 180q88 47 266 142q125 68 125 100q0 33 -70.5 129t-70.5 152q0 152 194 290q164 115 414 197q225 72 371 74q127 2 216 -56.5t89 -140.5q0 -125 -178.5 -245.5t-362.5 -123.5q-154 -2 -154 101q0 66 72 76q59 8 60 -23 q0 -12 -3.5 -27.5t-3.5 -33.5q6 -37 88 -39q123 -2 252 73q145 86 146 201q0 92 -113 139q-84 37 -192 37q-209 2 -480 -129q-311 -152 -313 -336q0 -68 66 -157q70 -96 75 -125q0 -63 -184 -156q-285 -141 -340 -180q-127 -88 -178 -133q-78 -84 -80 -203q-2 -141 107 -221 q98 -70 243 -70q264 0 504 92q199 74 455 244q2 0 18 -31q-291 -209 -521.5 -292.5t-516.5 -88.5q-178 -2 -283.5 82t-107.5 226zM883 1612q0 14 28 37q88 55 117 198q6 29 55 35q54 0 54 -39q0 -45 -21 -71l-88 -105q-92 -84 -129 -86q-10 0 -16 31z" />
<glyph unicode="&#xcb;" horiz-adv-x="1830" d="M-59 113q-2 152 120 276q66 68 271 180q88 47 266 144q125 68 125 100q0 31 -70.5 127t-70.5 152q0 150 194 290q164 117 414 197q225 74 371 74q127 0 216 -57.5t89 -139.5q0 -123 -177.5 -244.5t-363.5 -124.5q-154 -2 -154 101q0 66 72 76q59 8 60 -23q0 -6 -5 -29 q-2 -10 -2 -32q6 -35 88 -37q121 -2 250 74q147 84 148 198q0 92 -113 141q-86 35 -192 35q-266 0 -528.5 -154.5t-264.5 -310.5q0 -68 64 -151q70 -92 77 -129q0 -66 -184 -158q-279 -139 -340 -180q-145 -98 -178 -133q-78 -80 -80 -203q-2 -139 109 -219q98 -72 241 -72 q264 0 504 92q199 74 455 244l18 -29q-283 -205 -520.5 -291.5t-517.5 -89.5q-164 -2 -269 68q-121 82 -122 238zM1278 1929q0 43 37 85t80 42q45 0 51 -37q0 -66 -42 -111.5t-91 -45.5q-35 0 -35 67zM1649 1929q0 43 36.5 85t77.5 42q49 0 49 -37q0 -59 -37.5 -108 t-95.5 -49q-31 0 -30 67z" />
<glyph unicode="&#xd6;" horiz-adv-x="1865" d="M68 432q-2 399 332.5 755.5t736.5 381.5v-27q-98 10 -320 -110q-281 -152 -450 -369q-199 -252 -201 -537q-2 -223 139 -356t367 -135q272 -4 594 174q285 158 477 389q227 276 229 559q2 166 -132 285t-324 119q-207 0 -474 -175q-240 -158 -378 -346q-12 -12 -41 -6 q301 387 579 512q117 53 176 72q88 29 193 29q510 -1 510 -443q0 -274 -242 -577q-229 -289 -575 -482q-356 -199 -695 -202q-211 -2 -355 139t-146 350zM1464 1763q0 43 37 85t80 42q45 0 51 -37q0 -66 -42 -111.5t-91 -45.5q-35 0 -35 67zM1835 1763q0 43 37 85t78 42 q49 0 49 -37q0 -59 -38 -108t-95 -49q-31 0 -31 67z" />
<glyph unicode="&#xd8;" horiz-adv-x="1931" d="M82 469q0 299 184 559q150 209 402 358q231 139 471 183v-27q-133 0 -359 -131q-244 -141 -397 -328q-217 -262 -217 -563q0 -178 88 -301q96 -131 274 -166q160 324 289 545q229 393 625 961q-246 -61 -324 -93q-135 -53 -295 -174l-12 23q125 104 326 203 q141 70 241 100q68 20 127 29q33 47 111 153q2 6 -6 33q-10 14 20 33q70 41 78 35q-14 -45 -45 -99q-25 -26 -119 -149q96 12 180 12q492 0 492 -461q0 -256 -231.5 -557t-587.5 -502q-367 -207 -735 -206q-57 0 -113 6q-47 -82 -84 -178q-14 -41 4 -132q-27 -66 -76 -88 q-16 -8 -26 15q-6 0 -17 45q-4 59 43 168q43 90 86 178q-195 25 -301 172q-96 137 -96 344zM598 41q68 -6 74 -6q158 0 356 43q225 51 371 131q315 174 511.5 434t196.5 514q0 209 -135 318q-125 100 -350 100q-63 0 -135 -8q-604 -924 -889 -1526z" />
<glyph unicode="&#xdc;" horiz-adv-x="2433" d="M305 1446q0 16 168 133q258 180 508 182t404.5 -137t154.5 -367q0 -117 -139 -571q-125 -410 -135 -504q0 -47 30.5 -88t75.5 -41q137 0 666 504q463 442 565 590q119 172 152 213q47 59 69 59q18 0 21 -2v-33q0 -16 -434.5 -628.5t-438.5 -687.5q-2 -47 33 -48 q10 0 20 7q18 0 25 4q-59 -78 -115 -78q-20 0 -39.5 15.5t-19.5 35.5q0 78 197 383l231 365q-166 -164 -508 -488q-317 -295 -491 -297q-66 0 -109 64q-39 53 -41 125q-4 96 132 488t136 568q0 461 -540 465q-217 2 -451 -184q-33 -20 -88 -63q-33 0 -39 16zM1942 1708 q0 43 36.5 85t79.5 42q45 0 51 -37q0 -66 -42 -112t-91 -46q-35 0 -34 68zM2312 1708q0 43 37 85t78 42q49 0 49 -37q0 -59 -38 -108.5t-95 -49.5q-31 0 -31 68z" />
<glyph unicode="&#xdf;" horiz-adv-x="860" d="M-399 8q0 6 20 37q199 100 408 266q0 2 2 6q61 47 123 50q102 2 102 -93q0 -59 -58.5 -140t-115.5 -114q84 0 176 46q152 78 354 239q0 2 2 6q61 47 123 49q102 2 103 -92q0 -59 -58.5 -140t-115.5 -114q119 0 333 131q98 59 277 195q6 2 14 2q6 0 8 -12q0 -12 -8 -23 q-238 -197 -291 -229q-213 -137 -458 -139q-76 0 -121 30q-16 8 -74 66v8q-182 -96 -389 -98q-76 0 -121 30q-16 8 -74 66q0 14 5 22q-74 -43 -129 -65q-35 0 -37 10zM-172 96q10 0 18 -4q74 -45 119 -47q78 -2 146.5 66.5t76.5 148.5q0 51 -53 51q-31 0 -39 -4 q-143 -123 -268 -211zM414 82q4 0 8 -2q74 -45 119 -47q78 -2 146.5 66.5t76.5 148.5q0 51 -53 51h-23q-223 -182 -272 -215z" />
<glyph unicode="&#xe0;" d="M-227 39q0 94 168 222t292 128q76 0 78 -37q4 -78 -78 -78q27 10 46 15l-11 2q-25 2 -47 14q-14 33 -49 33q-76 2 -182.5 -88t-106.5 -158q0 -43 31 -45q109 0 231 84q33 23 93 90q43 49 69 47q27 0 27 -20q0 -16 -34 -77.5t-34 -86.5q0 -76 76 -78q88 -2 295 139 q72 49 274 199q4 4 13 4q8 0 8 -10q0 -16 -8 -23q-215 -182 -295 -235q-213 -141 -340 -141q-111 0 -117 165q-55 -45 -137 -86q-96 -49 -152 -49q-41 0 -75.5 18.5t-34.5 51.5zM150 760q0 20 26 26q23 0 35 -16l104 -166q31 -49 37 -67q0 -7 -10 -9q-35 0 -82 60l-106 133z " />
<glyph unicode="&#xe4;" d="M-227 39q0 94 168 222t292 128q76 0 78 -37q4 -78 -78 -78q27 10 46 15l-11 2q-25 2 -47 14q-14 33 -49 33q-76 2 -182.5 -88t-106.5 -158q0 -43 31 -45q109 0 231 84q33 23 93 90q43 49 69 47q27 0 27 -20q0 -16 -34 -77.5t-34 -86.5q0 -76 76 -78q88 -2 295 139 q72 49 274 199q4 4 13 4q8 0 8 -10q0 -16 -8 -23q-215 -182 -295 -235q-213 -141 -340 -141q-111 0 -117 165q-55 -45 -137 -86q-96 -49 -152 -49q-41 0 -75.5 18.5t-34.5 51.5zM115 539q-2 51 63 51q25 0 46.5 -15.5t21.5 -35.5q0 -49 -70 -54q-59 -2 -61 54zM299 539 q-2 51 63 51q29 0 48.5 -15.5t19.5 -35.5q0 -49 -70 -54q-59 -2 -61 54z" />
<glyph unicode="&#xe5;" d="M-227 39q0 94 168 222t292 128q76 0 78 -37q4 -78 -78 -78q27 10 46 15l-11 2q-25 2 -47 14q-14 33 -49 33q-76 2 -182.5 -88t-106.5 -158q0 -43 31 -45q109 0 231 84q33 23 93 90q43 49 69 47q27 0 27 -20q0 -16 -34 -77.5t-34 -86.5q0 -76 76 -78q88 -2 295 139 q72 49 274 199q4 4 13 4q8 0 8 -10q0 -16 -8 -23q-215 -182 -295 -235q-213 -141 -340 -141q-111 0 -117 165q-55 -45 -137 -86q-96 -49 -152 -49q-41 0 -75.5 18.5t-34.5 51.5zM350 575q0 27 17 60q25 53 83 94t115 41q37 0 64 -22q20 -20 22 -56q2 -24 -16 -59 q-27 -53 -85 -93t-116 -40q-39 0 -61.5 21.5t-22.5 53.5zM391 590q2 -51 62 -51q51 0 102 44t53 95q0 53 -61 53q-51 0 -100.5 -45t-55.5 -96z" />
<glyph unicode="&#xe8;" horiz-adv-x="462" d="M-268 84q-2 92 100 209t193 119q27 0 46 -18.5t23 -43.5q0 -37 -37 -74q-55 -43 -113.5 -87t-121.5 -76q-2 -51 41 -82q33 -23 76 -23q109 0 317 137q39 27 272 201q6 2 15 2q6 0 8 -12q0 -12 -8 -23q-199 -166 -297 -233q-207 -139 -371 -141q-141 -2 -143 145z M-172 178q10 0 37 10q133 79 139 140q0 10 -27 16q-37 0 -93 -63.5t-56 -102.5zM-131 842q0 20 27 26q23 0 34 -16l105 -166q31 -49 37 -68q-1 -6 -11 -8q-35 0 -81 60l-107 133z" />
<glyph unicode="&#xe9;" horiz-adv-x="462" d="M-268 84q-2 92 100 209t193 119q27 0 46 -18.5t23 -43.5q0 -37 -37 -74q-55 -43 -113.5 -87t-121.5 -76q-2 -51 41 -82q33 -23 76 -23q109 0 317 137q39 27 272 201q6 2 15 2q6 0 8 -12q0 -12 -8 -23q-199 -166 -297 -233q-207 -139 -371 -141q-141 -2 -143 145z M-172 178q10 0 37 10q133 79 139 140q0 10 -27 16q-37 0 -93 -63.5t-56 -102.5zM53 535q0 14 29 36q88 55 117 199q6 29 55 35q53 0 53 -39q0 -45 -20 -72l-88 -104q-92 -84 -129 -86q-10 0 -17 31z" />
<glyph unicode="&#xeb;" horiz-adv-x="520" d="M-221 84q-2 90 101.5 208t191.5 118q63 0 67 -60q2 -47 -119 -151q-72 -61 -151 -103q-4 -37 39 -67q41 -23 76 -23q195 -4 458 178q21 15 21 -8q2 -10 -6 -22q-336 -215 -535 -215q-141 0 -143 145zM-127 162q29 0 64 26q104 62 112 140q0 10 -26 16q-33 0 -91.5 -61.5 t-58.5 -120.5zM-78 545q-2 51 64 51q25 0 46 -15.5t21 -35.5q0 -49 -69 -53q-59 -2 -62 53zM106 545q-2 51 64 51q29 0 48.5 -15.5t19.5 -35.5q0 -49 -70 -53q-59 -2 -62 53z" />
<glyph unicode="&#xf6;" horiz-adv-x="618" d="M-236 8q0 106 160 246q145 127 262 127q104 0 105 -98q0 -109 -123 -213q27 -27 65 -27q68 0 228 113q145 102 225 188q2 6 12 2q9 0 9 -10q0 -51 -234 -217q-166 -117 -246 -119q-55 -2 -98 39q-20 -27 -94 -68q-86 -47 -164 -47q-106 0 -107 84zM-143 70q0 -74 59 -76 q88 -2 188 80q-41 41 -41 106q0 88 37 125q-244 -113 -243 -235zM66 539q-2 51 63 51q25 0 46.5 -15.5t21.5 -35.5q0 -49 -70 -54q-59 -2 -61 54zM109 207q-2 -76 26 -101q125 99 127 193q0 35 -37 37q-47 2 -80.5 -40t-35.5 -89zM250 539q-2 51 63 51q29 0 48.5 -15.5 t19.5 -35.5q0 -49 -70 -54q-59 -2 -61 54z" />
<glyph unicode="&#xf8;" horiz-adv-x="618" d="M-236 8q0 106 160 246q145 127 262 127q104 0 105 -98q0 -109 -123 -213q27 -27 65 -27q68 0 228 113q145 102 225 188q2 6 12 2q9 0 9 -10q0 -51 -234 -217q-166 -117 -246 -119q-55 -2 -98 39q-20 -27 -94 -68q-86 -47 -164 -47q-106 0 -107 84zM-143 70q0 -74 59 -76 q88 -2 188 80q-41 41 -41 106q0 88 37 125q-244 -113 -243 -235zM109 207q-2 -76 26 -101q125 99 127 193q0 35 -37 37q-47 2 -80.5 -40t-35.5 -89z" />
<glyph unicode="&#xfc;" horiz-adv-x="811" d="M-215 43q-2 72 61 137q51 51 242 176q18 0 12 -28q-35 -23 -108 -76q-98 -86 -101 -156q-2 -63 37 -69q18 0 80 28q90 41 142 90q37 33 109.5 129.5t107.5 96.5q25 0 26 -23q0 -20 -75.5 -92t-75.5 -121q0 -47 28 -82q23 -35 56 -39q90 0 282 131q16 12 271 201q6 2 12 2 q8 0 10 -12q0 -14 -10 -23q-444 -377 -627 -376q-96 0 -114 159q-57 -63 -158 -108q-78 -35 -117 -37q-33 -2 -60.5 26.5t-29.5 65.5zM100 547q-2 51 64 51q25 0 46 -15.5t21 -35.5q0 -49 -69 -53q-59 -2 -62 53zM285 547q-2 51 63 51q29 0 48.5 -15.5t19.5 -35.5 q0 -49 -70 -53q-59 -2 -61 53z" />
<glyph unicode="&#x2000;" horiz-adv-x="1096" />
<glyph unicode="&#x2001;" horiz-adv-x="2193" />
<glyph unicode="&#x2002;" horiz-adv-x="1096" />
<glyph unicode="&#x2003;" horiz-adv-x="2193" />
<glyph unicode="&#x2004;" horiz-adv-x="731" />
<glyph unicode="&#x2005;" horiz-adv-x="548" />
<glyph unicode="&#x2006;" horiz-adv-x="365" />
<glyph unicode="&#x2007;" horiz-adv-x="365" />
<glyph unicode="&#x2008;" horiz-adv-x="274" />
<glyph unicode="&#x2009;" horiz-adv-x="438" />
<glyph unicode="&#x200a;" horiz-adv-x="121" />
<glyph unicode="&#x2010;" horiz-adv-x="761" d="M88 446q0 8 16 9q10 0 62 -9q25 -4 72 -4q4 0 118 15q102 12 187 16q59 2 125 -31q53 -26 53 -49q0 -20 -57 -20q-45 0 -107 20q-90 0 -209 -20q-47 -6 -102 -19q-63 0 -92 27q-61 41 -66 65z" />
<glyph unicode="&#x2011;" horiz-adv-x="761" d="M88 446q0 8 16 9q10 0 62 -9q25 -4 72 -4q4 0 118 15q102 12 187 16q59 2 125 -31q53 -26 53 -49q0 -20 -57 -20q-45 0 -107 20q-90 0 -209 -20q-47 -6 -102 -19q-63 0 -92 27q-61 41 -66 65z" />
<glyph unicode="&#x2012;" horiz-adv-x="761" d="M88 446q0 8 16 9q10 0 62 -9q25 -4 72 -4q4 0 118 15q102 12 187 16q59 2 125 -31q53 -26 53 -49q0 -20 -57 -20q-45 0 -107 20q-90 0 -209 -20q-47 -6 -102 -19q-63 0 -92 27q-61 41 -66 65z" />
<glyph unicode="&#x2013;" horiz-adv-x="663" d="M43 188q0 6 6 19q49 45 62.5 47t25.5 6q25 0 35 2q66 0 198 5t197 5q27 0 27 -10q0 -90 -186 -90h-232q-20 0 -63 2t-64 2q-6 0 -6 12z" />
<glyph unicode="&#x2014;" horiz-adv-x="1327" d="M94 338q0 6 15 6q4 0 135 -16q139 0 416.5 23.5t416.5 23.5q45 0 103 -19q75 -24 75 -59q0 -18 -57 -18q-29 0 -54.5 7t-53.5 11q-432 0 -574 -18q-41 -2 -130 -16.5t-136 -14.5q-63 0 -92 22q-63 49 -64 68z" />
<glyph unicode="&#x2018;" horiz-adv-x="264" d="M350 1108q0 47 14.5 72.5t84.5 103.5q74 66 122 72q15 0 17 -31q0 -10 -31 -35.5t-47 -48t-31 -61.5q-6 -25 -20 -74q-8 -31 -53 -37q-55 0 -56 39z" />
<glyph unicode="&#x2019;" horiz-adv-x="264" d="M387 1100q0 12 33 37.5t45 46.5q20 31 31 65q8 29 22 76q12 25 53 31q56 0 56 -39t-15 -72q-10 -18 -84 -104q-74 -66 -122 -72q-12 0 -19 31z" />
<glyph unicode="&#x201c;" horiz-adv-x="366" d="M420 1100q0 45 20 71q0 2 84 105q96 80 131 82q15 0 15 -29q0 -14 -27 -35q-16 -12 -57 -53q-39 -51 -62 -145q-6 -29 -53 -35q-51 0 -51 39zM604 1100q0 43 18.5 69.5t88.5 106.5q94 80 131 82q12 0 12 -29q0 -16 -26.5 -34.5t-55.5 -53.5q-45 -55 -61 -145 q-6 -29 -54 -35q-53 0 -53 39z" />
<glyph unicode="&#x201d;" horiz-adv-x="366" d="M461 1090q0 12 24 34q33 20 58 56q45 51 61 143q6 33 53 35q54 2 54 -37q0 -45 -19 -72q-6 -12 -88 -106q-90 -76 -131 -82q-12 0 -12 29zM645 1090q0 16 27 34q86 61 119 199q8 33 53 35q51 2 51 -37q0 -45 -21 -74q-10 -14 -83 -104q-90 -76 -132 -82q-14 0 -14 29z " />
<glyph unicode="&#x2022;" horiz-adv-x="995" d="M143 588q0 92 62 198q92 164 276.5 280t345.5 116q98 0 162 -49q70 -55 70 -150q-1 -91 -64 -197q-96 -166 -276 -278q-186 -117 -348 -117q-106 0 -167 53.5t-61 143.5z" />
<glyph unicode="&#x2026;" horiz-adv-x="1327" d="M51 47q-2 72 90 72q35 0 64 -19.5t31 -52.5q0 -70 -97 -72q-86 -2 -88 72zM494 47q-2 72 90 72q35 0 63.5 -19.5t30.5 -52.5q0 -70 -96 -72q-86 -2 -88 72zM936 47q-2 72 90 72q35 0 63.5 -19.5t30.5 -52.5q0 -70 -96 -72q-86 -2 -88 72z" />
<glyph unicode="&#x202f;" horiz-adv-x="438" />
<glyph unicode="&#x205f;" horiz-adv-x="548" />
<glyph unicode="&#x2122;" horiz-adv-x="3102" d="M0 1415q-2 158 173 264.5t448 106.5q119 0 532 -154q100 100 145 101q10 0 17 -23q-41 -37 -98 -96q43 -12 178 -49q4 4 10 11t10 11q170 141 352 142q96 0 158 -46q68 -51 68 -145t-19 -137q-18 -78 -96 -199q180 162 317 246q86 53 156 53q100 0 100 -96 q0 -57 -112 -244q289 281 375 346q147 115 247 115q84 0 84 -109q0 -76 -100 -354t-104 -401q0 -16 2 -35q0 -25 2 -39q0 -10 -22.5 -20.5t-33.5 -10.5q-41 14 -41 99q0 135 101.5 388t103.5 351q0 33 -61 39q-94 0 -254 -152q-147 -143 -443 -434q-29 -35 -151.5 -178 t-142.5 -143q-18 0 -21 6v33q0 18 150 204q160 201 188 246q133 215 133 268q0 39 -35 43q-90 0 -325.5 -203.5t-386.5 -385.5q-186 -223 -222 -228q-12 0 -14 21q0 25 57 94l115 139q123 152 219 305q141 223 144 334q2 63 -51.5 105.5t-118.5 42.5q-139 2 -271 -95 q97 -18 101 -36q-33 -35 -88 -37q-47 -2 -97 2l-137 -138l-45 21q39 41 119 121q-102 12 -168 41q-418 -565 -594 -770q-61 -72 -154 -154q-119 -109 -172 -117q-35 0 -37 50q0 12 15 38q20 20 39 23q4 0 14 -4q4 0 13.5 -1t13.5 -3q16 0 110 94q76 76 111 117 q258 301 579 739q-72 33 -223 94q-176 68 -291 68q-494 2 -495 -264q0 -102 92 -164q82 -53 188 -53q51 0 181 38q8 2 22 7q20 0 21 -15q0 -8 -9 -22q-154 -68 -256 -70q-125 -2 -219 76t-96 182z" />
<glyph unicode="&#x25fc;" horiz-adv-x="450" d="M0 0v451h451v-451h-451z" />
</font>
</defs>
</svg>
